<svg width="181" height="141" viewBox="0 0 181 141" fill="none" xmlns="http://www.w3.org/2000/svg">
<path d="M142.98 31.6152C142.061 31.5771 141.142 31.5986 140.224 31.6679C139.306 31.7373 138.389 31.854 137.472 32.0019C136.556 32.1498 135.641 32.3297 134.726 32.5273C133.812 32.7249 132.898 32.9397 131.986 33.1582C131.074 33.3766 130.163 33.5982 129.254 33.8085C128.344 34.0189 127.434 34.2172 126.527 34.3906C125.523 34.5824 124.514 34.7526 123.502 34.8925C122.489 35.0325 121.473 35.1431 120.453 35.2168C119.601 35.4372 118.734 35.629 117.853 35.7988C116.973 35.9685 116.079 36.1159 115.176 36.246C113.369 36.5064 111.525 36.6983 109.664 36.8672C107.803 37.036 105.925 37.1815 104.056 37.3476C102.188 37.5138 100.329 37.7007 98.4998 37.9531C97.5853 38.0793 96.6787 38.2223 95.783 38.3867C94.8872 38.5511 94.0018 38.7374 93.1306 38.9511C92.2595 39.1648 91.4009 39.4055 90.5603 39.6797C89.7197 39.9538 88.8958 40.2617 88.0916 40.6074C87.2873 40.9531 86.5039 41.3372 85.742 41.7656C84.98 42.194 84.2408 42.6673 83.5271 43.1894C82.8134 43.7116 82.1243 44.2831 81.4646 44.9101C81.1348 45.2236 80.813 45.5507 80.4978 45.8925C80.1826 46.2344 79.8738 46.5913 79.574 46.9628C78.8779 47.8254 78.21 48.7106 77.5681 49.6191C76.9263 50.5276 76.3106 51.4595 75.7224 52.4082C75.1342 53.3568 74.5741 54.3237 74.0388 55.3066C73.5036 56.2895 72.9944 57.2876 72.5115 58.2988C72.0286 59.31 71.5716 60.3336 71.1404 61.3672C70.7092 62.4007 70.3037 63.444 69.9236 64.4941C69.5435 65.5441 69.1889 66.6014 68.8591 67.6621C68.5294 68.7227 68.225 69.7862 67.9451 70.8515C67.7368 71.6441 67.5618 72.4386 67.4197 73.2324C67.2775 74.0261 67.1676 74.8195 67.0877 75.6132C67.0078 76.407 66.9569 77.1996 66.9353 77.9922C66.9137 78.7847 66.922 79.5769 66.9548 80.3672C66.9877 81.1574 67.0452 81.9457 67.1286 82.7324C67.212 83.5191 67.3208 84.3039 67.4509 85.0859C67.581 85.8679 67.7332 86.6477 67.906 87.4238C68.0788 88.1999 68.2724 88.9731 68.4841 89.7422C68.6958 90.5112 68.925 91.2763 69.1716 92.0371C69.4182 92.7978 69.681 93.5533 69.9587 94.3047C70.5141 95.8074 71.1287 97.2901 71.7849 98.748C72.4411 100.206 73.139 101.639 73.865 103.043C74.5909 104.447 75.3447 105.822 76.1091 107.162C76.8128 108.396 77.5308 109.658 78.2712 110.928C79.0116 112.197 79.774 113.473 80.57 114.736C81.366 115.999 82.1957 117.249 83.0661 118.463C83.5014 119.07 83.9466 119.667 84.404 120.254C84.8614 120.84 85.3303 121.416 85.8122 121.977C86.2929 122.536 86.7853 123.083 87.2927 123.611C87.4817 123.441 87.6613 123.259 87.863 123.103C88.2285 122.822 88.616 122.566 89.0251 122.34C89.4342 122.113 89.8652 121.917 90.32 121.752C90.7749 121.587 91.2528 121.453 91.7556 121.355C92.2584 121.258 92.7866 121.195 93.3396 121.172C95.7614 121.068 98.1818 120.941 100.601 120.779C103.021 120.618 105.44 120.422 107.853 120.184C110.267 119.945 112.676 119.665 115.08 119.332C117.484 118.999 119.881 118.614 122.271 118.168C123.81 117.881 125.364 117.593 126.926 117.291C128.487 116.989 130.055 116.672 131.621 116.33C133.186 115.988 134.748 115.621 136.299 115.215C137.849 114.809 139.387 114.363 140.904 113.869C141.662 113.622 142.416 113.364 143.162 113.09C143.908 112.816 144.649 112.528 145.381 112.225C146.112 111.921 146.835 111.602 147.551 111.266C148.266 110.93 148.972 110.577 149.668 110.205C150.364 109.833 151.05 109.444 151.724 109.033C152.399 108.623 153.062 108.192 153.713 107.74C154.363 107.288 155.002 106.815 155.627 106.318C156.251 105.821 156.861 105.3 157.457 104.756C157.882 104.367 158.272 103.959 158.629 103.531C158.986 103.103 159.31 102.657 159.605 102.193C159.9 101.73 160.165 101.249 160.404 100.754C160.643 100.259 160.854 99.7491 161.043 99.2265C161.231 98.7039 161.398 98.1696 161.543 97.623C161.688 97.0765 161.812 96.5178 161.92 95.9511C162.027 95.3844 162.117 94.8095 162.193 94.2265C162.269 93.6435 162.332 93.0526 162.383 92.457C162.484 91.2659 162.542 90.0544 162.58 88.8359C162.618 87.6174 162.635 86.3931 162.658 85.1777C162.681 83.9623 162.708 82.756 162.765 81.5742C162.823 80.3923 162.911 79.2351 163.052 78.1172C163.345 75.8069 163.579 73.3537 163.908 70.8945C164.073 69.6649 164.261 68.4327 164.492 67.2168C164.607 66.6088 164.735 66.0044 164.875 65.4062C165.014 64.808 165.166 64.2169 165.334 63.6328C165.502 63.0486 165.685 62.4721 165.886 61.9062C166.088 61.3403 166.307 60.7855 166.547 60.2422C166.786 59.6988 167.044 59.1669 167.326 58.6503C167.608 58.1338 167.914 57.632 168.244 57.1464C168.574 56.6609 168.928 56.1924 169.31 55.7422C169.692 55.2919 170.101 54.86 170.541 54.4492C170.922 54.0925 171.337 53.7594 171.765 53.4355C171.484 52.9267 171.204 52.4175 170.906 51.9179C170.517 51.2645 170.113 50.6183 169.695 49.9824C169.277 49.3464 168.845 48.7201 168.398 48.1035C167.952 47.4869 167.492 46.8805 167.017 46.2851C166.542 45.6897 166.052 45.1054 165.549 44.5332C165.045 43.9609 164.528 43.4008 163.996 42.8535C163.464 42.3062 162.917 41.7723 162.357 41.2519C161.797 40.7315 161.223 40.2241 160.634 39.7324C160.046 39.2407 159.443 38.7637 158.826 38.3027C158.209 37.8417 157.577 37.3972 156.931 36.9687C156.286 36.5402 155.627 36.1284 154.953 35.7343C154.279 35.3402 153.591 34.9632 152.888 34.6054C152.186 34.2476 151.469 33.9094 150.738 33.5898C150.007 33.2702 149.264 32.969 148.506 32.6894C148.045 32.5196 147.583 32.3728 147.123 32.246C146.662 32.1193 146.2 32.0129 145.74 31.9257C145.28 31.8385 144.819 31.77 144.359 31.7187C143.899 31.6674 143.44 31.6343 142.98 31.6152Z" fill="#FF9801" stroke="#FF9700" stroke-width="6.592" stroke-linecap="round" stroke-linejoin="round"/>
<path d="M171.766 53.4354C171.338 53.7593 170.922 54.0924 170.541 54.4491C170.102 54.8598 169.693 55.2917 169.311 55.742C168.928 56.1923 168.574 56.6608 168.244 57.1463C167.914 57.6319 167.608 58.1337 167.326 58.6502C167.044 59.1668 166.786 59.6987 166.547 60.242C166.308 60.7854 166.088 61.3402 165.887 61.9061C165.685 62.472 165.502 63.0485 165.334 63.6327C165.166 64.2168 165.014 64.8079 164.875 65.4061C164.736 66.0043 164.608 66.6087 164.492 67.2166C164.261 68.4326 164.073 69.6647 163.908 70.8944C163.579 73.3536 163.345 75.8067 163.053 78.117C162.911 79.235 162.823 80.3922 162.766 81.5741C162.708 82.7559 162.681 83.9622 162.658 85.1776C162.635 86.393 162.618 87.6173 162.58 88.8358C162.542 90.0543 162.484 91.2657 162.383 92.4569C162.332 93.0524 162.269 93.6434 162.193 94.2264C162.117 94.8094 162.027 95.3843 161.92 95.951C161.812 96.5177 161.688 97.0764 161.543 97.6229C161.398 98.1694 161.232 98.7038 161.043 99.2264C160.854 99.749 160.643 100.259 160.404 100.754C160.166 101.249 159.9 101.73 159.605 102.193C159.311 102.656 158.986 103.103 158.629 103.531C158.272 103.959 157.882 104.367 157.457 104.756C156.861 105.3 156.251 105.821 155.627 106.318C155.002 106.815 154.364 107.288 153.713 107.74C153.062 108.192 152.399 108.623 151.725 109.033C151.05 109.443 150.364 109.833 149.668 110.205C148.972 110.577 148.266 110.93 147.551 111.265C146.836 111.601 146.113 111.921 145.381 112.224C144.649 112.528 143.908 112.816 143.162 113.09C142.416 113.363 141.663 113.622 140.904 113.869C139.388 114.363 137.849 114.809 136.299 115.215C134.748 115.621 133.187 115.988 131.621 116.33C130.056 116.672 128.487 116.989 126.926 117.291C125.364 117.593 123.81 117.881 122.271 118.168C119.881 118.613 117.484 118.999 115.08 119.332C112.676 119.665 110.267 119.945 107.854 120.183C105.44 120.422 103.021 120.617 100.602 120.779C98.1821 120.941 95.7617 121.068 93.3398 121.172C92.7869 121.195 92.2587 121.258 91.7559 121.355C91.253 121.453 90.7752 121.587 90.3203 121.752C89.8655 121.917 89.4345 122.113 89.0254 122.34C88.6163 122.566 88.2288 122.822 87.8633 123.103C87.6615 123.259 87.482 123.441 87.293 123.611C87.294 123.612 87.296 123.614 87.297 123.615C87.8057 124.145 88.3293 124.657 88.8673 125.15C89.4053 125.644 89.9578 126.118 90.5274 126.57C91.097 127.022 91.6836 127.451 92.2872 127.855C92.8907 128.26 93.5126 128.64 94.1524 128.992C94.7923 129.344 95.4505 129.67 96.129 129.965C96.8075 130.259 97.5051 130.524 98.2247 130.756C98.9443 130.987 99.6864 131.186 100.449 131.35C101.956 131.672 103.469 131.961 104.986 132.217C106.504 132.473 108.026 132.696 109.553 132.883C111.08 133.07 112.611 133.22 114.145 133.334C115.678 133.448 117.216 133.525 118.754 133.562C120.292 133.6 121.832 133.597 123.373 133.554C124.914 133.512 126.455 133.427 127.996 133.301C129.537 133.174 131.078 133.006 132.617 132.793C134.156 132.579 135.694 132.321 137.229 132.017C138.155 131.834 139.07 131.621 139.977 131.381C140.883 131.141 141.779 130.872 142.664 130.578C143.549 130.283 144.422 129.964 145.285 129.617C146.148 129.27 147 128.897 147.84 128.5C148.68 128.103 149.507 127.683 150.322 127.238C151.138 126.793 151.942 126.324 152.733 125.834C153.523 125.343 154.299 124.829 155.063 124.295C155.827 123.76 156.578 123.205 157.315 122.629C158.051 122.053 158.774 121.457 159.483 120.842C160.191 120.226 160.884 119.592 161.563 118.939C162.242 118.287 162.906 117.615 163.555 116.927C164.203 116.24 164.836 115.535 165.453 114.814C166.07 114.093 166.673 113.357 167.258 112.605C167.843 111.854 168.41 111.087 168.961 110.306C169.512 109.526 170.048 108.733 170.565 107.926C171.081 107.119 171.579 106.298 172.061 105.467C172.535 104.646 172.999 103.818 173.443 102.98C173.888 102.143 174.315 101.295 174.713 100.439C175.111 99.583 175.483 98.7172 175.818 97.8416C176.154 96.9659 176.454 96.0814 176.711 95.1853C176.968 94.2892 177.18 93.3821 177.342 92.4646C177.503 91.547 177.614 90.6174 177.664 89.6775C177.689 89.2075 177.698 88.7353 177.691 88.2595C177.685 87.7838 177.664 87.3056 177.625 86.824C177.586 86.3423 177.529 85.8566 177.455 85.3689C177.381 84.8812 177.289 84.392 177.178 83.8982C177.057 83.3623 176.954 82.8235 176.865 82.2849C176.776 81.7463 176.701 81.2066 176.639 80.6658C176.514 79.584 176.437 78.4979 176.387 77.4099C176.287 75.234 176.296 73.0493 176.252 70.8708C176.23 69.7816 176.195 68.6953 176.125 67.6111C176.055 66.5268 175.951 65.4464 175.793 64.3708C175.714 63.8331 175.621 63.2964 175.512 62.7615C175.403 62.2266 175.279 61.6934 175.135 61.1619C174.991 60.6303 174.828 60.0998 174.645 59.572C174.461 59.0443 174.254 58.5193 174.025 57.9958C173.722 57.3014 173.405 56.6121 173.072 55.9294C172.74 55.2468 172.392 54.571 172.031 53.9021C171.946 53.7446 171.852 53.5921 171.766 53.4354Z" fill="#FF6E00" stroke="#FF6E00" stroke-width="6.592" stroke-linecap="round" stroke-linejoin="round"/>
<path d="M140.832 101.633C141.162 102.635 141.181 103.911 142.012 104.579C142.641 105.085 142.804 103.826 142.896 103.413C143.084 102.573 143.221 101.722 143.454 100.892" fill="#FF6E00"/>
<path d="M140.832 101.633C141.162 102.635 141.181 103.911 142.012 104.579C142.641 105.085 142.804 103.826 142.896 103.413C143.084 102.573 143.221 101.722 143.454 100.892" stroke="#FF6E00" stroke-width="6.592" stroke-linecap="round" stroke-linejoin="round"/>
<path d="M156.07 76.4268C155.404 77.3951 154.21 78.1705 154.127 79.394C154.082 80.0628 154.062 81.0288 154.708 81.328C155.412 81.6547 155.402 80.5887 155.481 80.1469C155.702 78.9109 155.836 77.6604 156.07 76.4268Z" fill="#FF6E00" stroke="#FF6E00" stroke-width="6.592" stroke-linecap="round" stroke-linejoin="round"/>
<path d="M150.804 90.8008C149.556 92.138 148.612 94.0422 149.144 95.8997C149.471 97.0391 150.55 98.3126 151.81 97.9963C152.853 97.7344 153.098 96.5031 153.096 95.5736C153.094 94.5287 152.856 93.4751 152.216 92.6094C151.761 91.9942 151.22 91.4454 150.804 90.8008Z" fill="#FF6E00" stroke="#FF6E00" stroke-width="6.592" stroke-linecap="round" stroke-linejoin="round"/>
<path d="M160.284 84.0322C158.953 85.5328 157.668 87.1526 156.968 89.0631C156.664 89.8923 156.802 90.981 157.672 91.4382C158.199 91.7149 158.804 91.7924 159.391 91.8182" fill="#FF6E00"/>
<path d="M160.284 84.0322C158.953 85.5328 157.668 87.1526 156.968 89.0631C156.664 89.8923 156.802 90.981 157.672 91.4382C158.199 91.7149 158.804 91.7924 159.391 91.8182" stroke="#FF6E00" stroke-width="6.592" stroke-linecap="round" stroke-linejoin="round"/>
<path d="M152.201 106.637C150.902 104.755 150.17 102.379 150.574 100.085C150.842 98.5591 152.142 97.4046 153.648 97.0995C153.832 97.0623 154.018 97.0347 154.205 97.0154" fill="#FF6E00"/>
<path d="M152.201 106.637C150.902 104.755 150.17 102.379 150.574 100.085C150.842 98.5591 152.142 97.4046 153.648 97.0995C153.832 97.0623 154.018 97.0347 154.205 97.0154" stroke="#FF6E00" stroke-width="6.592" stroke-linecap="round" stroke-linejoin="round"/>
<path d="M133.07 109.174C134.05 108.491 134.813 107.485 135.919 106.998C136.675 106.665 137.528 106.882 138.245 107.21" fill="#FF6E00"/>
<path d="M133.07 109.174C134.05 108.491 134.813 107.485 135.919 106.998C136.675 106.665 137.528 106.882 138.245 107.21" stroke="#FF6E00" stroke-width="6.592" stroke-linecap="round" stroke-linejoin="round"/>
<path d="M121.266 107.996C120.463 109.27 119.64 110.558 119.227 112.018C118.911 113.138 118.369 114.252 118.473 115.444C118.558 116.426 119.738 116.434 120.455 116.117C121.952 115.455 123.241 114.196 123.781 112.621C124.118 111.638 123.577 110.692 122.972 109.938C122.432 109.266 121.816 108.659 121.266 107.996Z" fill="#FF6E00" stroke="#FF6E00" stroke-width="6.592" stroke-linecap="round" stroke-linejoin="round"/>
<path d="M136.825 113.933C135.528 110.844 136.801 107.376 138.601 104.789C140.65 101.843 143.513 99.0246 147.133 98.3862C148.946 98.0664 151.509 98.1729 152.316 100.091C153.166 102.113 151.707 104.301 150.083 105.426" fill="#FF6E00"/>
<path d="M136.825 113.933C135.528 110.844 136.801 107.376 138.601 104.789C140.65 101.843 143.513 99.0246 147.133 98.3862C148.946 98.0664 151.509 98.1729 152.316 100.091C153.166 102.113 151.707 104.301 150.083 105.426" stroke="#FF6E00" stroke-width="6.592" stroke-linecap="round" stroke-linejoin="round"/>
<path d="M131.444 84.5024C129.705 84.364 127.805 85.0814 126.971 86.6974C125.873 88.8244 126.125 91.4825 127.219 93.5658C127.685 94.4528 128.745 95.4425 129.773 94.8689C131.094 94.1326 131.643 92.5955 132.16 91.26C132.538 90.2835 132.725 89.2452 132.511 88.1848C132.258 86.9287 131.722 85.7513 131.444 84.5024Z" fill="#FF6E00" stroke="#FF6E00" stroke-width="6.592" stroke-linecap="round" stroke-linejoin="round"/>
<path d="M140.775 98.9346C139.717 97.1586 138.044 95.5819 138.069 93.3332C138.114 89.3478 141.012 86.0048 144.199 83.968C146.8 82.306 149.99 80.9234 153.13 81.6396C155.186 82.1084 156.228 84.2571 156.282 86.2479C156.331 88.0864 155.895 89.8989 155.338 91.638" fill="#FF6E00"/>
<path d="M140.775 98.9346C139.717 97.1586 138.044 95.5819 138.069 93.3332C138.114 89.3478 141.012 86.0048 144.199 83.968C146.8 82.306 149.99 80.9234 153.13 81.6396C155.186 82.1084 156.228 84.2571 156.282 86.2479C156.331 88.0864 155.895 89.8989 155.338 91.638" stroke="#FF6E00" stroke-width="6.592" stroke-linecap="round" stroke-linejoin="round"/>
<path d="M133.825 107.159C131.149 105.848 127.961 106.958 125.788 108.733C123.97 110.218 122.234 112.296 122.198 114.716C122.171 116.542 123.922 117.702 125.494 118.162C127.282 118.685 129.26 118.864 131.066 118.332" fill="#FF6E00"/>
<path d="M133.825 107.159C131.149 105.848 127.961 106.958 125.788 108.733C123.97 110.218 122.234 112.296 122.198 114.716C122.171 116.542 123.922 117.702 125.494 118.162C127.282 118.685 129.26 118.864 131.066 118.332" stroke="#FF6E00" stroke-width="6.592" stroke-linecap="round" stroke-linejoin="round"/>
<path d="M159.242 70.811C156.476 68.6104 152.123 68.3772 149.338 70.6679C147.537 72.1501 147.41 74.7604 148.158 76.8434C149.237 79.8451 152.793 81.0847 155.786 80.5264C157.972 80.1187 159.715 78.4661 160.593 76.4373C160.931 75.6544 161.196 74.8429 161.474 74.0374" fill="#FF6E00"/>
<path d="M159.242 70.811C156.476 68.6104 152.123 68.3772 149.338 70.6679C147.537 72.1501 147.41 74.7604 148.158 76.8434C149.237 79.8451 152.793 81.0847 155.786 80.5264C157.972 80.1187 159.715 78.4661 160.593 76.4373C160.931 75.6544 161.196 74.8429 161.474 74.0374" stroke="#FF6E00" stroke-width="6.592" stroke-linecap="round" stroke-linejoin="round"/>
<path d="M155.544 97.3309C153.595 97.2469 151.203 96.7299 149.713 98.2298C148.502 99.4495 148 101.269 148.051 102.957C148.107 104.793 149.894 105.969 151.608 106.056C156.348 106.296 161.064 102.74 161.936 97.9924C162.392 95.5049 160.903 93.0433 158.742 91.8272C156.401 90.5092 152.993 90.298 151.094 92.4477C150.843 92.7321 150.631 93.0504 150.461 93.3896" fill="#FF6E00"/>
<path d="M155.544 97.3309C153.595 97.2469 151.203 96.7299 149.713 98.2298C148.502 99.4495 148 101.269 148.051 102.957C148.107 104.793 149.894 105.969 151.608 106.056C156.348 106.296 161.064 102.74 161.936 97.9924C162.392 95.5049 160.903 93.0433 158.742 91.8272C156.401 90.5092 152.993 90.298 151.094 92.4477C150.843 92.7321 150.631 93.0504 150.461 93.3896" stroke="#FF6E00" stroke-width="6.592" stroke-linecap="round" stroke-linejoin="round"/>
<path d="M107.562 116.612C108.004 114.32 107.865 111.885 109.228 109.793C112.624 104.579 118.198 100.518 124.595 100.122C129.621 99.81 134.847 101.235 138.595 104.368C138.967 104.679 141.223 105.671 139.985 106.212" fill="#FF6E00"/>
<path d="M107.562 116.612C108.004 114.32 107.865 111.885 109.228 109.793C112.624 104.579 118.198 100.518 124.595 100.122C129.621 99.81 134.847 101.235 138.595 104.368C138.967 104.679 141.223 105.671 139.985 106.212" stroke="#FF6E00" stroke-width="6.592" stroke-linecap="round" stroke-linejoin="round"/>
<path d="M105.707 73.2969C104.748 74.56 103.076 75.5354 103.02 77.2498C102.97 78.7748 103.206 80.3629 103.93 81.7299C104.403 82.6225 105.531 83.0774 106.477 82.663C108.282 81.8718 109.344 79.874 109.456 77.9563C109.564 76.0989 108.254 74.4839 106.634 73.6842C106.333 73.5358 106.023 73.4079 105.707 73.2969Z" fill="#FF6E00" stroke="#FF6E00" stroke-width="6.592" stroke-linecap="round" stroke-linejoin="round"/>
<path d="M111.866 118.564C110.72 117.835 110.076 116.383 110.47 115.053C111.081 112.988 112.931 111.43 114.963 110.821C116.181 110.457 117.623 110.833 118.352 111.947C118.615 112.348 118.79 112.801 118.907 113.264" fill="#FF6E00"/>
<path d="M111.866 118.564C110.72 117.835 110.076 116.383 110.47 115.053C111.081 112.988 112.931 111.43 114.963 110.821C116.181 110.457 117.623 110.833 118.352 111.947C118.615 112.348 118.79 112.801 118.907 113.264" stroke="#FF6E00" stroke-width="6.592" stroke-linecap="round" stroke-linejoin="round"/>
<path d="M133.035 61.6404C131.394 61.9031 129.593 62.8307 129.177 64.5652C128.675 66.6532 129.6 68.8692 131.008 70.3748C131.7 71.1161 132.772 72.2855 133.757 71.7098C134.564 71.2377 134.956 70.2979 135.327 69.4835C136.161 67.6581 136.971 65.6306 136.61 63.588C136.427 62.5547 135.489 61.8605 134.434 61.7653C133.968 61.7232 133.496 61.7289 133.035 61.6404Z" fill="#FF6E00" stroke="#FF6E00" stroke-width="6.592" stroke-linecap="round" stroke-linejoin="round"/>
<path d="M101.573 98.8508C100.406 99.3392 99.2415 99.9186 98.3287 100.834C97.887 101.277 97.9073 102.058 98.4775 102.415C99.4378 103.018 100.907 102.616 101.299 101.48C101.591 100.634 101.457 99.7233 101.573 98.8508Z" fill="#FF6E00" stroke="#FF6E00" stroke-width="6.592" stroke-linecap="round" stroke-linejoin="round"/>
<path d="M86.9759 50.7117C85.9818 52.6696 84.4618 54.4396 83.9929 56.592C83.7022 57.9261 84.1652 59.6897 85.5088 60.1908C86.6838 60.6289 87.7115 59.611 88.3528 58.7632C89.2783 57.5396 89.4557 55.9683 89.7445 54.5118C89.9283 53.5847 90.44 52.3143 89.5537 51.6356C88.816 51.0707 87.8577 50.9187 86.9759 50.7117Z" fill="#FFC600" stroke="#FFC600" stroke-width="6.592" stroke-linecap="round" stroke-linejoin="round"/>
<path d="M76.6261 68.0159C75.1926 68.0054 73.9458 69.0673 73.5382 70.4192C72.9347 72.421 73.4028 74.6127 74.3439 76.4644C74.7299 77.2239 75.7132 77.094 76.2639 76.5569C77.4673 75.383 78.2252 73.7598 78.468 72.1076C78.6434 70.914 77.8303 69.8989 77.2191 68.9643C77.015 68.6523 76.8118 68.3394 76.6261 68.0159Z" fill="#FFC600" stroke="#FFC600" stroke-width="6.592" stroke-linecap="round" stroke-linejoin="round"/>
<path d="M97.8184 57.3383C97.9774 58.0866 97.9437 59.0676 98.5977 59.5162C99.229 59.9492 99.6978 59.0047 99.8974 58.5366C100.263 57.6787 100.927 56.681 100.555 55.8153C100.313 55.2514 99.5181 56.0122 99.1926 56.259C98.7284 56.6109 98.2976 57.006 97.8184 57.3383Z" fill="#FFC600" stroke="#FFC600" stroke-width="6.592" stroke-linecap="round" stroke-linejoin="round"/>
<path d="M122.285 37.2841C119.809 37.4457 117.399 36.6952 115.381 35.2573C109.65 31.1752 105.694 25.0644 102.748 18.7971C100.486 13.986 95.503 8.04772 98.3145 3.49453C99.4464 1.66147 102.109 3.30408 103.53 4.07288C108.324 6.66594 113.077 9.52222 116.991 13.3577C121.249 17.5296 124.454 23.4259 123.532 29.6035C123.149 32.169 122.375 34.678 122.285 37.2841Z" fill="#9CC600" stroke="#9CC600" stroke-width="4.492" stroke-linecap="round" stroke-linejoin="round"/>
<path d="M104.346 62.7891C104.213 62.7861 104.078 62.7894 103.939 62.8008C103.662 62.8238 103.373 62.8752 103.074 62.9512C102.776 63.0272 102.468 63.1277 102.154 63.2481C101.84 63.3685 101.519 63.5081 101.195 63.6641C100.548 63.9762 99.8891 64.351 99.2403 64.754C98.5915 65.1569 97.9542 65.5893 97.3516 66.0137C96.7727 66.4214 96.4013 66.6997 95.9082 67.0645C95.9357 67.345 95.9601 67.6288 95.9805 67.918C96.0283 68.5976 96.0909 69.2758 96.1661 69.9512C96.2412 70.6266 96.3285 71.2992 96.4278 71.9708C96.6265 73.314 96.8705 74.6501 97.1466 75.9805C97.4227 77.311 97.7308 78.6363 98.0587 79.9571C98.3866 81.2779 98.7339 82.5938 99.088 83.9083C99.2463 84.496 99.3767 85.0837 99.4805 85.67C99.5844 86.2563 99.6623 86.8418 99.7149 87.4258C99.7675 88.0099 99.7961 88.5929 99.8008 89.1739C99.8058 89.7549 99.786 90.333 99.7461 90.9102C99.7063 91.4874 99.6456 92.0642 99.5645 92.6368C99.4834 93.2094 99.3828 93.7785 99.2637 94.3458C99.1446 94.913 99.0073 95.478 98.8535 96.0391C98.6998 96.6003 98.5289 97.1587 98.3438 97.713C98.1587 98.2672 97.9593 98.8168 97.7461 99.3633C97.5329 99.9099 97.3063 100.452 97.0684 100.99C96.858 101.466 96.6355 101.938 96.4082 102.406C96.3784 102.468 96.3523 102.531 96.3223 102.592C96.0629 103.121 95.7932 103.643 95.5157 104.162C94.9607 105.2 94.3715 106.216 93.7637 107.209C93.156 108.202 92.5287 109.172 91.8946 110.113C91.3123 110.978 90.7053 111.818 90.0723 112.633C89.4394 113.448 88.7809 114.238 88.0997 115.002C87.4184 115.766 86.7136 116.504 85.9864 117.215C85.2592 117.926 84.5091 118.61 83.7383 119.268C82.9676 119.925 82.1754 120.554 81.3633 121.156C80.5513 121.758 79.7202 122.332 78.8692 122.877C78.0182 123.422 77.1493 123.939 76.2618 124.426C75.3742 124.913 74.4687 125.371 73.5469 125.799C72.6516 126.214 71.7463 126.592 70.8321 126.934C69.9178 127.275 68.9949 127.58 68.0645 127.852C67.1341 128.124 66.1957 128.363 65.252 128.57C64.3083 128.778 63.3585 128.955 62.4044 129.104C61.4502 129.252 60.4912 129.373 59.5294 129.467C58.5675 129.561 57.6035 129.629 56.6368 129.674C55.67 129.719 54.7013 129.74 53.7325 129.74C52.7637 129.741 51.7943 129.72 50.8262 129.682C49.5914 129.632 48.3519 129.577 47.1114 129.506C45.8708 129.435 44.629 129.348 43.3907 129.238C42.1524 129.129 40.9176 128.998 39.6895 128.834C38.4614 128.67 37.2393 128.475 36.0294 128.24C35.4244 128.123 34.8217 127.996 34.2227 127.857C33.6238 127.719 33.0295 127.569 32.4376 127.408C31.8456 127.247 31.2578 127.075 30.6739 126.889C30.09 126.703 29.5085 126.504 28.9336 126.291C28.3588 126.078 27.7895 125.85 27.2247 125.607C26.6598 125.365 26.1008 125.109 25.5469 124.836C24.9931 124.563 24.4443 124.273 23.9024 123.967C23.3605 123.66 22.8258 123.336 22.2969 122.994C21.5896 122.537 20.8573 122.095 20.1133 121.656C19.3694 121.218 18.6127 120.786 17.8555 120.348C17.0984 119.909 16.3406 119.465 15.5938 119.008C14.847 118.551 14.1115 118.081 13.3985 117.586C12.6855 117.091 11.9955 116.573 11.3399 116.022C11.0121 115.746 10.692 115.463 10.3829 115.17C10.0738 114.877 9.77575 114.575 9.48834 114.262C9.20093 113.949 8.92497 113.625 8.66217 113.289C8.57737 113.181 8.50201 113.064 8.41998 112.953C8.24778 112.721 8.07346 112.49 7.91412 112.246C7.81836 112.1 7.73544 111.942 7.64459 111.791C7.49255 111.891 7.33217 111.983 7.18756 112.09C6.88858 112.311 6.60765 112.55 6.34381 112.805C6.07996 113.06 5.83355 113.331 5.60943 113.623C5.38532 113.915 5.18375 114.228 5.00396 114.561C4.82418 114.894 4.66607 115.248 4.53521 115.625C4.4115 115.982 4.32206 116.331 4.26373 116.674C4.2054 117.017 4.17822 117.351 4.17975 117.68C4.18125 118.008 4.21179 118.33 4.26764 118.645C4.32349 118.959 4.40519 119.267 4.50983 119.568C4.61446 119.869 4.7428 120.164 4.89069 120.451C5.03857 120.739 5.20704 121.019 5.39264 121.293C5.57824 121.567 5.78033 121.833 5.99811 122.094C6.21589 122.354 6.44899 122.608 6.69342 122.856C6.93785 123.103 7.19351 123.342 7.45905 123.576C7.72458 123.81 8.0002 124.039 8.28131 124.26C8.84354 124.702 9.43022 125.117 10.0215 125.508C10.6129 125.899 11.2091 126.265 11.7852 126.606C12.3614 126.946 12.917 127.261 13.4337 127.553C14.1151 127.937 14.8051 128.304 15.5001 128.654C15.9073 128.86 16.3209 129.048 16.7325 129.242C17.0232 129.379 17.3108 129.525 17.6036 129.656C18.3109 129.974 19.0236 130.275 19.7422 130.563C20.4609 130.85 21.1853 131.122 21.9141 131.381C22.6429 131.64 23.3755 131.887 24.1133 132.119C24.8512 132.352 25.5942 132.571 26.3399 132.779C27.0856 132.988 27.8354 133.185 28.588 133.371C29.3405 133.557 30.0954 133.733 30.8536 133.898C32.3699 134.23 33.8955 134.524 35.4278 134.787C36.9601 135.05 38.4999 135.284 40.0391 135.494C41.5784 135.705 43.1172 135.892 44.6544 136.066C46.1916 136.241 47.7258 136.402 49.252 136.557C50.0412 136.636 50.8297 136.69 51.6153 136.721C52.4008 136.752 53.1831 136.761 53.9649 136.746C54.7467 136.732 55.5269 136.695 56.3047 136.639C57.0826 136.582 57.8592 136.504 58.6329 136.408C59.2701 136.329 59.9048 136.232 60.5391 136.129C60.675 136.107 60.8116 136.092 60.9473 136.068C61.7168 135.937 62.4831 135.789 63.2481 135.625C64.0131 135.461 64.7768 135.281 65.5372 135.088C66.2976 134.895 67.055 134.69 67.8106 134.471C68.5662 134.252 69.3197 134.021 70.0704 133.779C70.8211 133.538 71.5689 133.284 72.3145 133.023C73.8058 132.502 75.2879 131.945 76.7579 131.365C78.2278 130.786 79.6855 130.184 81.1329 129.572C82.5802 128.961 84.0161 128.34 85.4395 127.723C85.8243 127.556 86.2012 127.378 86.5684 127.189C86.9356 127.001 87.294 126.803 87.6446 126.594C87.9952 126.385 88.3371 126.165 88.6719 125.938C89.0068 125.71 89.3343 125.472 89.6544 125.227C90.2945 124.736 90.9057 124.211 91.4922 123.658C92.0787 123.106 92.6414 122.525 93.1817 121.922C93.722 121.319 94.2408 120.693 94.7422 120.051C95.2437 119.408 95.7272 118.749 96.1973 118.078C96.6674 117.408 97.1243 116.726 97.5704 116.039C98.0164 115.352 98.4514 114.659 98.8809 113.967C99.4409 113.064 99.9767 112.147 100.486 111.217C100.996 110.287 101.48 109.343 101.939 108.389C102.399 107.434 102.833 106.467 103.242 105.49C103.652 104.514 104.037 103.529 104.397 102.533C104.756 101.538 105.092 100.533 105.402 99.5215C105.713 98.5095 105.997 97.4886 106.258 96.4629C106.519 95.4372 106.755 94.406 106.967 93.3691C107.179 92.3323 107.366 91.2895 107.529 90.2441C107.692 89.1988 107.831 88.1508 107.945 87.0996C108.06 86.0484 108.149 84.9938 108.215 83.9395C108.281 82.8851 108.322 81.8303 108.34 80.7754C108.357 79.7205 108.351 78.6661 108.32 77.6133C108.29 76.5605 108.237 75.5089 108.158 74.461C108.08 73.413 107.978 72.3686 107.852 71.3281C107.726 70.2876 107.576 69.2511 107.402 68.2207C107.229 67.1903 107.033 66.1661 106.813 65.1485C106.732 64.7764 106.624 64.4555 106.492 64.1797C106.426 64.0418 106.353 63.9143 106.275 63.7988C106.198 63.6834 106.114 63.5784 106.025 63.4844C105.937 63.3904 105.843 63.3081 105.744 63.2344C105.645 63.1607 105.542 63.0956 105.434 63.041C105.217 62.932 104.982 62.861 104.732 62.8223C104.608 62.8029 104.478 62.7925 104.346 62.7891Z" fill="#FF6E00" stroke="#FF6E00" stroke-width="6.592" stroke-linecap="round" stroke-linejoin="round"/>
<path d="M79.4551 102.455C82.552 102.453 85.6488 102.457 88.7383 102.453C91.3011 102.45 93.855 102.432 96.4082 102.406C96.6355 101.938 96.858 101.466 97.0684 100.99C97.3063 100.452 97.5329 99.9098 97.7461 99.3633C97.9593 98.8168 98.1586 98.2671 98.3438 97.7129C98.5289 97.1587 98.6998 96.6002 98.8535 96.0391C99.0073 95.4779 99.1446 94.913 99.2637 94.3457C99.3828 93.7784 99.4833 93.2093 99.5645 92.6367C99.6456 92.0641 99.7063 91.4874 99.7461 90.9102C99.786 90.333 99.8055 89.7549 99.8008 89.1738C99.7958 88.5928 99.7675 88.0098 99.7149 87.4258C99.6623 86.8417 99.5843 86.2562 99.4805 85.6699C99.3767 85.0836 99.2462 84.496 99.0879 83.9082C98.7339 82.5937 98.3865 81.2779 98.0586 79.957C97.7307 78.6362 97.4226 77.3109 97.1465 75.9805C96.8704 74.65 96.6264 73.3139 96.4278 71.9707C96.3285 71.2991 96.2412 70.6266 96.1661 69.9512C96.0909 69.2758 96.0283 68.5976 95.9805 67.918C95.9602 67.6287 95.9357 67.3449 95.9082 67.0645C95.3748 67.4592 94.7289 67.9334 94.3477 68.2031C92.428 69.5614 90.5059 70.9261 88.5703 72.2695C88.8298 72.4824 89.0879 72.697 89.3125 72.9395C89.6052 73.2553 89.8693 73.5957 90.1074 73.9531C90.3456 74.3105 90.5572 74.6849 90.7461 75.0742C90.935 75.4635 91.1013 75.8678 91.2461 76.2793C91.3909 76.6909 91.5152 77.111 91.6211 77.5352C91.727 77.9593 91.8145 78.3874 91.8867 78.8145C91.959 79.2416 92.0168 79.6675 92.0606 80.0879C92.1192 80.6501 92.1961 81.2075 92.2871 81.7637C92.3781 82.3198 92.4814 82.8737 92.5938 83.4258C92.8184 84.5299 93.0747 85.6277 93.3184 86.7266C93.562 87.8255 93.7945 88.9264 93.9688 90.0352C94.0559 90.5896 94.1285 91.1454 94.1817 91.7051C94.2349 92.2648 94.2673 92.8276 94.2754 93.3945C94.2794 93.6757 94.2625 93.9703 94.2227 94.2676C94.1829 94.5649 94.1219 94.8645 94.0391 95.1582C93.9563 95.4519 93.8517 95.7393 93.7266 96.0098C93.6015 96.2803 93.4557 96.5342 93.2891 96.7617C93.1225 96.9892 92.9339 97.1906 92.7266 97.3555C92.6229 97.4379 92.5141 97.5111 92.4004 97.5742C92.2867 97.6373 92.1686 97.6911 92.0449 97.7324C91.9213 97.7737 91.7936 97.8033 91.6602 97.8203C91.5267 97.8373 91.3874 97.8418 91.2441 97.832C91.1009 97.822 90.9536 97.7987 90.8008 97.7597C90.6479 97.7208 90.4905 97.6662 90.3281 97.5957C89.7543 97.3462 89.1887 97.0795 88.6309 96.8007C88.0731 96.522 87.5231 96.2305 86.9785 95.9277C85.8894 95.3221 84.8243 94.6737 83.7715 94.0039C81.6659 92.6641 79.6092 91.2389 77.5156 89.8964C76.9921 89.5608 76.4581 89.2498 75.9141 88.957C75.37 88.6642 74.8169 88.3893 74.2598 88.125C73.1455 87.5962 72.0127 87.1097 70.8906 86.6074C70.3296 86.3562 69.7705 86.1003 69.2188 85.8339C68.667 85.5676 68.121 85.2902 67.5859 84.9941C67.1259 84.7395 66.6789 84.4623 66.2363 84.1757C63.7947 85.0027 61.3441 85.8205 58.9004 86.6718C58.0427 86.9706 57.1902 87.2836 56.3359 87.5918C56.4116 87.6117 56.4891 87.6227 56.5645 87.6445C56.8938 87.7402 57.2198 87.8548 57.543 87.9843C57.8661 88.1138 58.1859 88.2598 58.5039 88.4179C58.8219 88.576 59.1371 88.7464 59.4512 88.9277C60.0793 89.2902 60.7012 89.6936 61.3203 90.1171C62.5586 90.9641 63.7874 91.8912 65.0449 92.7265C65.6737 93.1441 66.3097 93.5378 66.957 93.8886C67.2807 94.064 67.6074 94.2281 67.9375 94.3788C68.2676 94.5295 68.6019 94.6683 68.9395 94.789C69.3256 94.9271 69.7083 95.0755 70.0859 95.2343C70.4636 95.3931 70.8367 95.5613 71.2051 95.7402C71.5734 95.919 71.9368 96.1085 72.2949 96.3066C72.6531 96.5047 73.0045 96.711 73.3516 96.9277C73.6987 97.1444 74.0418 97.3708 74.377 97.6054C74.7121 97.84 75.0409 98.0822 75.3633 98.3339C76.008 98.8373 76.6246 99.3755 77.2129 99.9433C77.507 100.227 77.7936 100.519 78.0723 100.818C78.351 101.117 78.6223 101.423 78.8848 101.736C79.0814 101.971 79.268 102.213 79.4551 102.455Z" fill="#FFE58D" stroke="#FFE58D" stroke-width="6.592" stroke-linecap="round" stroke-linejoin="round"/>
<path d="M41.1582 104.133C41.1597 104.201 41.1667 104.269 41.168 104.338C41.184 105.22 41.1777 106.104 41.1523 106.988C41.127 107.873 41.0822 108.758 41.0254 109.641C40.9118 111.407 40.7465 113.167 40.5664 114.906C40.4989 115.559 40.4443 116.235 40.377 116.916C40.3096 117.597 40.2287 118.281 40.1035 118.951C40.0409 119.286 39.9668 119.618 39.8789 119.943C39.791 120.268 39.6889 120.587 39.5684 120.897C39.4478 121.206 39.3088 121.507 39.1484 121.797C38.988 122.087 38.8071 122.368 38.5996 122.633C38.4979 122.763 38.3886 122.878 38.2734 122.98C38.1583 123.083 38.0374 123.174 37.9102 123.252C37.7829 123.33 37.6497 123.396 37.5117 123.451C37.3737 123.507 37.2293 123.551 37.082 123.586C36.7875 123.656 36.4757 123.687 36.1523 123.689C35.829 123.691 35.4952 123.665 35.1543 123.617C34.8134 123.57 34.4664 123.501 34.1191 123.422C33.7719 123.343 33.4245 123.253 33.082 123.16C32.3972 122.975 31.7329 122.78 31.1348 122.65C30.2342 122.455 29.3439 122.223 28.4629 121.959C27.5819 121.695 26.7111 121.4 25.8496 121.074C24.9882 120.749 24.1348 120.395 23.293 120.016C22.4511 119.636 21.619 119.231 20.7969 118.805C19.9747 118.378 19.1638 117.929 18.3613 117.463C17.5589 116.996 16.7652 116.513 15.9824 116.014C15.1997 115.514 14.427 114.999 13.6641 114.475C12.9011 113.95 12.1494 113.415 11.4063 112.871C11.2486 112.756 11.1175 112.639 11.0137 112.521C10.9098 112.404 10.8324 112.284 10.7773 112.164C10.7261 112.053 10.6989 111.941 10.6855 111.828C10.3466 112 10.008 112.172 9.64844 112.346C9.24136 112.542 8.82846 112.746 8.41992 112.953C8.50195 113.064 8.57731 113.181 8.66211 113.289C8.92491 113.624 9.20087 113.949 9.48828 114.262C9.7757 114.575 10.0737 114.877 10.3828 115.17C10.6919 115.463 11.012 115.746 11.3398 116.021C11.9955 116.572 12.6855 117.091 13.3984 117.586C14.1114 118.081 14.8469 118.551 15.5938 119.008C16.3406 119.465 17.0983 119.909 17.8555 120.348C18.6126 120.786 19.3693 121.218 20.1133 121.656C20.8573 122.094 21.5896 122.537 22.2969 122.994C22.8257 123.336 23.3605 123.66 23.9023 123.967C24.4442 124.273 24.993 124.563 25.5469 124.836C26.1007 125.109 26.6597 125.365 27.2246 125.607C27.7895 125.85 28.3587 126.078 28.9336 126.291C29.5085 126.504 30.0899 126.703 30.6738 126.889C31.2577 127.075 31.8456 127.247 32.4375 127.408C33.0294 127.569 33.6237 127.719 34.2227 127.857C34.8216 127.996 35.4243 128.123 36.0293 128.24C37.2393 128.475 38.4613 128.67 39.6894 128.834C40.9176 128.998 42.1523 129.129 43.3906 129.238C44.6289 129.347 45.8708 129.435 47.1113 129.506C48.3519 129.577 49.5914 129.632 50.8262 129.682C51.7942 129.72 52.7636 129.741 53.7324 129.74C54.7012 129.74 55.67 129.719 56.6367 129.674C57.6034 129.629 58.5674 129.561 59.5293 129.467C60.4912 129.373 61.4501 129.252 62.4043 129.104C63.3585 128.955 64.3083 128.778 65.252 128.57C66.1956 128.363 67.1341 128.124 68.0645 127.852C68.9948 127.58 69.9178 127.275 70.832 126.934C71.7463 126.592 72.6516 126.214 73.5469 125.799C74.4686 125.371 75.3742 124.913 76.2617 124.426C77.1492 123.939 78.0182 123.422 78.8691 122.877C79.7201 122.332 80.5512 121.758 81.3633 121.156C82.1753 120.554 82.9675 119.925 83.7383 119.268C84.5091 118.61 85.2591 117.926 85.9863 117.215C86.7135 116.504 87.4184 115.766 88.0996 115.002C88.7808 114.238 89.4393 113.448 90.0723 112.633C90.7052 111.818 91.3122 110.978 91.8945 110.113C92.5286 109.172 93.1559 108.202 93.7637 107.209C94.3714 106.216 94.9606 105.2 95.5156 104.162C95.7931 103.643 96.0629 103.121 96.3223 102.592C96.3523 102.531 96.3785 102.468 96.4082 102.406C93.8549 102.432 91.3011 102.45 88.7383 102.453C85.6488 102.456 82.552 102.453 79.455 102.455C79.5176 102.536 79.5849 102.613 79.6465 102.695C79.8917 103.022 80.1282 103.356 80.3554 103.695C80.5827 104.035 80.8014 104.381 81.0098 104.732C81.2181 105.084 81.4168 105.442 81.6054 105.805C81.794 106.168 81.9726 106.538 82.1406 106.912C82.3086 107.286 82.4648 107.665 82.6113 108.049C82.7644 108.45 82.9055 108.869 83.0273 109.301C83.1492 109.733 83.2526 110.177 83.334 110.627C83.4154 111.077 83.4741 111.533 83.5058 111.99C83.5375 112.447 83.5428 112.904 83.5158 113.356C83.4886 113.807 83.4295 114.253 83.3342 114.688C83.2388 115.122 83.1066 115.546 82.9338 115.951C82.8474 116.154 82.7502 116.352 82.6428 116.545C82.5353 116.738 82.417 116.927 82.2873 117.109C82.1576 117.292 82.0166 117.469 81.8635 117.639C81.7104 117.809 81.545 117.971 81.3674 118.127C80.7695 118.652 80.1442 119.143 79.4983 119.609C78.8523 120.075 78.186 120.517 77.508 120.941C76.8301 121.366 76.1395 121.772 75.4455 122.172C74.7516 122.572 74.0535 122.964 73.3596 123.356C72.8105 123.666 72.2407 123.961 71.6525 124.236C71.0644 124.512 70.459 124.768 69.842 124.994C69.225 125.221 68.595 125.42 67.9592 125.584C67.3233 125.748 66.6819 125.877 66.0373 125.965C65.715 126.009 65.3911 126.044 65.0686 126.066C64.746 126.089 64.4234 126.1 64.1018 126.1C63.7802 126.099 63.4602 126.086 63.1408 126.061C62.8215 126.035 62.5036 125.996 62.1877 125.943C61.8718 125.891 61.5574 125.823 61.2463 125.742C60.9352 125.661 60.6276 125.566 60.3225 125.455C60.0173 125.344 59.716 125.217 59.4182 125.074C59.1203 124.931 58.8247 124.772 58.5354 124.596C58.1042 124.333 57.7027 124.042 57.3283 123.727C56.9539 123.411 56.6072 123.071 56.2873 122.711C55.9675 122.351 55.674 121.97 55.4065 121.572C55.1389 121.175 54.8975 120.76 54.6799 120.332C54.4623 119.904 54.2697 119.463 54.0998 119.012C53.9299 118.561 53.7828 118.1 53.6584 117.633C53.534 117.166 53.4311 116.693 53.3498 116.217C53.2686 115.741 53.2085 115.262 53.1682 114.785C53.0745 113.678 52.9591 112.573 52.8303 111.467C52.7014 110.361 52.5592 109.254 52.4123 108.148C52.1915 106.487 51.9731 104.825 51.76 103.162C51.0895 103.207 50.4178 103.243 49.7482 103.293C48.1335 103.414 46.5214 103.554 44.9123 103.713C43.6587 103.837 42.4078 103.984 41.1582 104.133Z" fill="#FFE58D" stroke="#FFE58D" stroke-width="6.592" stroke-linecap="round" stroke-linejoin="round"/>
<path d="M41.1582 104.133C42.4078 103.984 43.6585 103.837 44.9121 103.713C46.5212 103.554 48.1332 103.414 49.748 103.293C50.4176 103.243 51.0893 103.207 51.7598 103.162C51.6893 102.612 51.6083 102.064 51.543 101.514C51.4114 100.407 51.2914 99.2995 51.1934 98.1914C51.0953 97.0833 51.0182 95.9754 50.9707 94.8652C50.9232 93.755 50.9054 92.6423 50.9258 91.5293C50.9359 90.9728 50.956 90.4167 50.9863 89.8594C50.9907 89.7781 50.999 89.6965 51.0039 89.6152C50.781 89.7049 50.5543 89.7859 50.332 89.877C48.9229 90.454 47.5261 91.0591 46.1465 91.6973C45.4567 92.0164 44.7706 92.3443 44.0898 92.6816C43.4091 93.019 42.733 93.3651 42.0625 93.7227C41.392 94.0802 40.7276 94.4485 40.0684 94.8281C39.9895 94.8735 39.9127 94.923 39.834 94.9688C39.9827 95.4777 40.1455 95.9834 40.2656 96.498C40.465 97.3525 40.6255 98.2147 40.7539 99.082C40.8823 99.9494 40.9776 100.823 41.0449 101.699C41.107 102.508 41.1401 103.319 41.1582 104.133Z" fill="#FFE58D" stroke="#FFE58D" stroke-width="6.592" stroke-linecap="round" stroke-linejoin="round"/>
<path d="M7.64453 111.791C7.73538 111.942 7.8183 112.1 7.91406 112.246C8.07341 112.49 8.24772 112.721 8.41992 112.953C8.82846 112.746 9.24136 112.542 9.64844 112.346C10.008 112.172 10.3466 112 10.6855 111.828C10.6845 111.819 10.6785 111.811 10.6777 111.803C10.6664 111.682 10.6758 111.559 10.7031 111.438C10.7304 111.316 10.777 111.194 10.8379 111.072C10.8988 110.951 10.975 110.83 11.0645 110.709C11.2404 110.472 11.4672 110.236 11.7246 110.006C11.6243 110.036 11.5174 110.057 11.418 110.088C11.0244 110.21 10.6366 110.341 10.2598 110.482C9.88297 110.624 9.51563 110.777 9.16017 110.941C8.80471 111.106 8.46235 111.282 8.13282 111.473C7.96269 111.571 7.80682 111.685 7.64453 111.791Z" fill="#FFE58D" stroke="#FFE58D" stroke-width="6.592" stroke-linecap="round" stroke-linejoin="round"/>
<path d="M14.8281 109.238C13.9645 109.764 13.1148 110.313 12.2891 110.902C11.9337 111.156 11.5205 111.397 11.0723 111.635C10.9505 111.699 10.812 111.764 10.6855 111.828C10.6988 111.941 10.7261 112.053 10.7773 112.164C10.8324 112.284 10.9098 112.404 11.0137 112.521C11.1175 112.639 11.2486 112.756 11.4063 112.871C12.1494 113.415 12.9011 113.95 13.6641 114.475C14.427 114.999 15.1997 115.514 15.9824 116.014C16.7652 116.513 17.5589 116.996 18.3613 117.463C19.1638 117.929 19.9747 118.378 20.7969 118.805C21.619 119.231 22.4511 119.636 23.293 120.016C24.1348 120.395 24.9882 120.749 25.8496 121.074C26.711 121.399 27.5819 121.695 28.4629 121.959C29.3439 122.223 30.2342 122.455 31.1348 122.65C31.7329 122.78 32.3972 122.975 33.082 123.16C33.4245 123.253 33.7719 123.343 34.1191 123.422C34.4664 123.501 34.8134 123.57 35.1543 123.617C35.4952 123.665 35.829 123.692 36.1523 123.689C36.4757 123.687 36.7875 123.656 37.082 123.586C37.2293 123.551 37.3737 123.507 37.5117 123.451C37.6497 123.396 37.7829 123.33 37.9102 123.252C38.0374 123.174 38.1583 123.083 38.2734 122.98C38.3886 122.878 38.4979 122.763 38.5996 122.633C38.8071 122.368 38.988 122.087 39.1484 121.797C39.3088 121.507 39.4478 121.206 39.5684 120.896C39.6889 120.587 39.791 120.268 39.8789 119.943C39.9668 119.618 40.0409 119.286 40.1035 118.951C40.2287 118.281 40.3096 117.597 40.377 116.916C40.4443 116.235 40.4988 115.559 40.5664 114.906C40.7465 113.167 40.9118 111.407 41.0254 109.641C41.0822 108.758 41.127 107.873 41.1523 106.988C41.1777 106.104 41.184 105.22 41.168 104.338C41.1668 104.269 41.1598 104.201 41.1582 104.133C40.8038 104.175 40.4477 104.207 40.0937 104.252C38.4914 104.453 36.8934 104.677 35.2988 104.926C33.7042 105.175 32.1131 105.449 30.5273 105.75C28.9415 106.051 27.3611 106.381 25.7851 106.74C24.2092 107.099 22.6373 107.487 21.0722 107.908C20.3482 108.103 19.5801 108.277 18.7851 108.441C17.9901 108.606 17.169 108.761 16.3398 108.924C15.8369 109.022 15.3327 109.132 14.8281 109.238Z" fill="#FF9801" stroke="#FF9801" stroke-width="6.592" stroke-linecap="round" stroke-linejoin="round"/>
<path d="M14.8281 109.238C15.3327 109.132 15.8369 109.022 16.3398 108.924C17.169 108.761 17.9902 108.606 18.7852 108.441C19.5802 108.277 20.3482 108.103 21.0723 107.908C22.6374 107.487 24.2092 107.099 25.7852 106.74C27.3611 106.381 28.9416 106.051 30.5273 105.75C32.1131 105.449 33.7042 105.175 35.2988 104.926C36.8934 104.677 38.4914 104.453 40.0938 104.252C40.4477 104.207 40.8039 104.175 41.1582 104.133C41.1401 103.319 41.107 102.508 41.0449 101.699C40.9777 100.823 40.8823 99.9494 40.7539 99.082C40.6255 98.2147 40.465 97.3525 40.2656 96.498C40.1455 95.9834 39.9827 95.4777 39.834 94.9688C39.2549 95.3054 38.6787 95.6465 38.1094 96.002C37.4626 96.4057 36.8226 96.8221 36.1895 97.252C35.5563 97.6818 34.9309 98.1261 34.3125 98.584C33.8875 98.8987 33.456 99.2027 33.0195 99.498C32.5831 99.7933 32.1397 100.079 31.6934 100.357C30.8006 100.914 29.8903 101.441 28.9668 101.945C28.0433 102.45 27.1064 102.932 26.1641 103.404C25.2217 103.876 24.2736 104.335 23.3242 104.795C22.3749 105.254 21.4248 105.714 20.4805 106.182C19.5361 106.649 18.5974 107.126 17.6699 107.621C16.7424 108.117 15.8265 108.63 14.9277 109.174C14.8939 109.194 14.8619 109.218 14.8281 109.238Z" fill="#FF9801" stroke="#FF9801" stroke-width="6.592" stroke-linecap="round" stroke-linejoin="round"/>
<path d="M11.7244 110.006C11.467 110.236 11.2402 110.472 11.0643 110.709C10.9748 110.83 10.8986 110.951 10.8377 111.072C10.7768 111.194 10.7302 111.316 10.703 111.438C10.6757 111.559 10.6662 111.682 10.6776 111.803C10.6784 111.812 10.6844 111.82 10.6854 111.828C10.8118 111.764 10.9503 111.699 11.0721 111.635C11.5204 111.397 11.9336 111.156 12.2889 110.902C13.1147 110.313 13.9643 109.764 14.828 109.238C14.5006 109.307 14.1727 109.369 13.8475 109.443C13.1253 109.609 12.4183 109.8 11.7244 110.006Z" fill="#FF9801" stroke="#FF9801" stroke-width="6.592" stroke-linecap="round" stroke-linejoin="round"/>
<path d="M51.76 103.162C51.9731 104.825 52.1915 106.487 52.4123 108.148C52.5593 109.254 52.7014 110.361 52.8303 111.467C52.9592 112.573 53.0746 113.678 53.1682 114.785C53.2086 115.262 53.2686 115.741 53.3498 116.217C53.4311 116.693 53.534 117.166 53.6584 117.633C53.7829 118.1 53.93 118.561 54.0998 119.012C54.2697 119.463 54.4623 119.904 54.6799 120.332C54.8975 120.76 55.1389 121.175 55.4065 121.572C55.6741 121.97 55.9675 122.351 56.2873 122.711C56.6072 123.071 56.954 123.411 57.3284 123.727C57.7027 124.042 58.1042 124.333 58.5354 124.596C58.8247 124.772 59.1204 124.931 59.4182 125.074C59.716 125.217 60.0174 125.344 60.3225 125.455C60.6276 125.566 60.9352 125.661 61.2463 125.742C61.5575 125.823 61.8718 125.891 62.1877 125.943C62.5036 125.996 62.8215 126.035 63.1409 126.061C63.4602 126.086 63.7802 126.099 64.1018 126.1C64.4234 126.1 64.746 126.089 65.0686 126.066C65.3912 126.044 65.715 126.009 66.0373 125.965C66.6819 125.877 67.3234 125.748 67.9592 125.584C68.5951 125.42 69.225 125.221 69.842 124.994C70.459 124.768 71.0645 124.512 71.6526 124.236C72.2407 123.961 72.8105 123.666 73.3596 123.356C74.0535 122.964 74.7516 122.572 75.4455 122.172C76.1395 121.772 76.8301 121.366 77.508 120.941C78.186 120.517 78.8523 120.075 79.4983 119.609C80.1442 119.143 80.7695 118.652 81.3674 118.127C81.5451 117.971 81.7104 117.809 81.8635 117.639C82.0166 117.469 82.1576 117.292 82.2873 117.109C82.417 116.927 82.5353 116.738 82.6428 116.545C82.7503 116.352 82.8474 116.154 82.9338 115.951C83.1066 115.546 83.2388 115.122 83.3342 114.688C83.4296 114.253 83.4886 113.807 83.5159 113.356C83.5431 112.904 83.5378 112.447 83.5059 111.99C83.4742 111.533 83.4154 111.077 83.334 110.627C83.2526 110.177 83.1492 109.733 83.0273 109.301C82.9055 108.869 82.7644 108.45 82.6113 108.049C82.4649 107.665 82.3086 107.286 82.1406 106.912C81.9727 106.538 81.7941 106.168 81.6055 105.805C81.4169 105.442 81.2181 105.084 81.0098 104.732C80.8014 104.381 80.5827 104.035 80.3555 103.695C80.1282 103.356 79.8918 103.022 79.6465 102.695C79.585 102.613 79.5177 102.536 79.4551 102.455C79.2974 102.455 79.1401 102.455 78.9824 102.455C75.7276 102.458 72.4715 102.472 69.2168 102.516C67.5895 102.537 65.9617 102.566 64.3359 102.606C62.7102 102.645 61.086 102.692 59.4629 102.754C57.8398 102.815 56.2191 102.89 54.5996 102.979C53.6517 103.031 52.7064 103.099 51.76 103.162Z" fill="#FF9801" stroke="#FF9801" stroke-width="6.592" stroke-linecap="round" stroke-linejoin="round"/>
<path d="M51.7598 103.162C52.7062 103.099 53.6517 103.031 54.5996 102.978C56.2191 102.889 57.8398 102.815 59.4629 102.754C61.086 102.692 62.7102 102.645 64.3359 102.605C65.9617 102.566 67.5895 102.537 69.2168 102.516C72.4715 102.472 75.7276 102.458 78.9824 102.455C79.1401 102.455 79.2974 102.455 79.4551 102.455C79.268 102.213 79.0814 101.971 78.8848 101.736C78.6223 101.423 78.351 101.117 78.0723 100.818C77.7936 100.519 77.507 100.227 77.2129 99.9433C76.6246 99.3756 76.008 98.8374 75.3633 98.3339C75.0409 98.0822 74.7121 97.84 74.377 97.6054C74.0418 97.3709 73.6987 97.1444 73.3516 96.9277C73.0045 96.711 72.6531 96.5047 72.2949 96.3066C71.9368 96.1085 71.5734 95.919 71.2051 95.7402C70.8367 95.5614 70.4636 95.3931 70.0859 95.2343C69.7083 95.0755 69.3256 94.9271 68.9395 94.789C68.6019 94.6683 68.2676 94.5296 67.9375 94.3789C67.6074 94.2281 67.2807 94.064 66.957 93.8886C66.3097 93.5378 65.6737 93.1442 65.0449 92.7265C63.7874 91.8912 62.5586 90.9642 61.3203 90.1172C60.7012 89.6936 60.0793 89.2903 59.4512 88.9277C59.1371 88.7464 58.8219 88.576 58.5039 88.4179C58.1859 88.2598 57.8661 88.1139 57.543 87.9843C57.2198 87.8548 56.8938 87.7402 56.5645 87.6445C56.4891 87.6226 56.4116 87.6117 56.3359 87.5918C55.7548 87.8014 55.1706 88.0035 54.5918 88.2187C53.3877 88.6666 52.194 89.1361 51.0039 89.6152C50.999 89.6965 50.9908 89.7781 50.9863 89.8594C50.956 90.4167 50.9359 90.9728 50.9258 91.5293C50.9054 92.6423 50.9233 93.755 50.9707 94.8652C51.0182 95.9754 51.0953 97.0833 51.1934 98.1914C51.2914 99.2995 51.4114 100.407 51.543 101.514C51.6083 102.064 51.6893 102.612 51.7598 103.162Z" fill="#FF9801" stroke="#FF9801" stroke-width="6.592" stroke-linecap="round" stroke-linejoin="round"/>
<path d="M66.2363 84.1757C66.6789 84.4623 67.1259 84.7395 67.5859 84.9941C68.121 85.2902 68.667 85.5676 69.2188 85.8339C69.7705 86.1003 70.3296 86.3562 70.8906 86.6074C72.0127 87.1097 73.1455 87.5962 74.2598 88.125C74.8169 88.3893 75.37 88.6642 75.9141 88.957C76.4581 89.2498 76.9921 89.5608 77.5156 89.8964C79.6092 91.2389 81.6659 92.6641 83.7715 94.0039C84.8243 94.6737 85.8894 95.3221 86.9785 95.9277C87.5231 96.2305 88.0731 96.522 88.6309 96.8007C89.1887 97.0795 89.7543 97.3462 90.3281 97.5957C90.4905 97.6663 90.6479 97.7208 90.8008 97.7597C90.9536 97.7986 91.1009 97.8222 91.2441 97.832C91.3874 97.842 91.5267 97.837 91.6602 97.8203C91.7936 97.8033 91.9213 97.7737 92.0449 97.7324C92.1686 97.6911 92.2867 97.6373 92.4004 97.5742C92.5141 97.5111 92.6229 97.4379 92.7266 97.3555C92.9339 97.1906 93.1225 96.9892 93.2891 96.7617C93.4557 96.5342 93.6015 96.2803 93.7266 96.0098C93.8517 95.7393 93.9562 95.4519 94.0391 95.1582C94.1219 94.8645 94.1829 94.5649 94.2227 94.2676C94.2625 93.9703 94.2795 93.6757 94.2754 93.3945C94.2674 92.8276 94.2348 92.2648 94.1817 91.7051C94.1285 91.1453 94.0559 90.5896 93.9688 90.0352C93.7945 88.9264 93.562 87.8255 93.3184 86.7266C93.0747 85.6277 92.8184 84.5299 92.5938 83.4258C92.4814 82.8737 92.3781 82.3198 92.2871 81.7637C92.1961 81.2075 92.1192 80.6501 92.0606 80.0879C92.0168 79.6675 91.959 79.2416 91.8867 78.8145C91.8144 78.3874 91.727 77.9593 91.6211 77.5352C91.5152 77.111 91.3909 76.6908 91.2461 76.2793C91.1013 75.8677 90.935 75.4635 90.7461 75.0742C90.5572 74.6849 90.3456 74.3105 90.1074 73.9531C89.8693 73.5957 89.6052 73.2553 89.3125 72.9395C89.0879 72.697 88.8298 72.4824 88.5703 72.2695C88.3791 72.4023 88.1916 72.5397 88 72.6719C86.9347 73.4071 85.863 74.1334 84.7832 74.8457C83.7034 75.558 82.614 76.2558 81.5137 76.9336C80.4134 77.6114 79.3026 78.2687 78.1758 78.9004C77.049 79.532 75.9075 80.137 74.7481 80.7109C73.5886 81.2849 72.411 81.8274 71.2129 82.332C70.6139 82.5843 70.0103 82.8277 69.4004 83.0605C68.7906 83.2933 68.1742 83.5167 67.5527 83.7285C67.1156 83.8776 66.6744 84.0274 66.2363 84.1757Z" fill="#FF9801" stroke="#FF9801" stroke-width="6.592" stroke-linecap="round" stroke-linejoin="round"/>
<path d="M30.1003 99.8037C28.6676 101.212 26.9761 102.4 25.9344 104.167C25.0275 105.706 24.121 107.342 23.9766 109.171C23.9075 110.046 24.6646 110.811 25.5654 110.705C27.3041 110.502 28.7068 109.194 29.6505 107.799C31.1601 105.568 31.2356 102.625 30.2492 100.158C30.2017 100.039 30.152 99.9209 30.1003 99.8037Z" fill="#FFC600" stroke="#FFC600" stroke-width="4.492" stroke-linecap="round" stroke-linejoin="round"/>
<path d="M38.6463 98.8904C37.8434 100.052 36.7479 101.07 36.4198 102.497C36.1733 103.569 35.7724 104.591 35.4115 105.626C35.152 106.371 35.2261 107.276 35.9112 107.814C37.2551 108.87 39.2168 108.279 40.2893 107.085C41.5228 105.711 41.4834 103.64 40.7832 102.011C40.2817 100.844 39.5104 99.813 38.6463 98.8904Z" fill="#FFC600" stroke="#FFC600" stroke-width="4.492" stroke-linecap="round" stroke-linejoin="round"/>
<path d="M52.1494 91.5987C52.4318 93.0617 52.2952 94.6622 53.202 95.9649C53.8408 96.8826 55.0253 97.6274 56.1591 97.1972C57.3613 96.741 57.7614 95.3041 57.5944 94.1253C57.4573 93.1569 57.0571 92.2464 56.6278 91.3789C56.2402 90.5955 55.2299 90.7386 54.5311 90.9011C53.7242 91.0887 52.9622 91.4336 52.1494 91.5987Z" fill="#FFC600" stroke="#FFC600" stroke-width="4.492" stroke-linecap="round" stroke-linejoin="round"/>
<path d="M63.6481 94.5037C63.4663 95.4848 62.8735 96.4679 63.2515 97.4933C63.6212 98.4959 64.7639 98.9282 65.7644 98.8785C66.6834 98.8328 67.7296 98.5502 68.2378 97.7289C68.6351 97.0868 68.1397 96.3748 67.6389 95.9461C66.5214 94.9895 64.9916 94.929 63.6481 94.5037Z" fill="#FFC600" stroke="#FFC600" stroke-width="4.492" stroke-linecap="round" stroke-linejoin="round"/>
<path d="M69.7373 81.9392C70.7392 83.1342 71.8824 84.3771 73.4158 84.8204C73.9074 84.9625 74.6867 85.1081 74.9318 84.5732C75.1861 84.0183 74.6716 83.481 74.247 83.194C72.9317 82.305 71.285 82.0662 69.7373 81.9392Z" fill="#FFC600" stroke="#FFC600" stroke-width="4.492" stroke-linecap="round" stroke-linejoin="round"/>
<path d="M113.091 24.3813C114.969 28.2347 118.657 30.9233 120.254 34.9365C120.584 35.7641 120.798 36.6422 120.836 37.534" fill="#26A269"/>
<path d="M113.091 24.3813C114.969 28.2347 118.657 30.9233 120.254 34.9365C120.584 35.7641 120.798 36.6422 120.836 37.534" stroke="#77B870" stroke-width="4.492" stroke-linecap="round" stroke-linejoin="round"/>
</svg>
