<svg xmlns="http://www.w3.org/2000/svg" enable-background="new 0 0 512 512" viewBox="0 0 512 512" id="present"><path fill="#e03d05" d="M212.1,60.6c-10.5-11-42.2-44-72.3-35.1c-2.2,0.7-18.7,5.6-25.8,19.6c-4.8,9.5-1.4,15.4-7.2,21.7
	c-7.1,7.7-16.1,3.1-25.8,9.3c-10.8,6.9-15.4,22.6-14.5,33c2.5,25.8,41.6,43.9,71.2,47.5c43.9,5.4,98.4-16.5,102.2-47.5
	C242.1,91.9,228,77.2,212.1,60.6z"></path><path d="M82,121.5c-1-10.4,3.6-26.1,14.5-33c9.7-6.2,18.7-1.6,25.8-9.3c5.8-6.3,2.4-12.2,7.2-21.7
	c7.1-14,23.6-19,25.8-19.6c15.7-4.6,31.8,2.1,45.1,11.2c-14.8-13.5-38.1-30.2-60.6-23.6c-2.2,0.7-18.7,5.6-25.8,19.6
	c-4.8,9.5-1.4,15.4-7.2,21.7c-7.1,7.7-16.1,3.1-25.8,9.3c-10.8,6.9-15.4,22.6-14.5,33c1.2,12.7,11.3,23.5,24.8,31.7
	C86.1,135.1,82.7,128.6,82,121.5z" opacity=".07"></path><path fill="#e03d05" d="M299.9,60.6c10.5-11,42.2-44,72.3-35.1c2.2,0.7,18.7,5.6,25.8,19.6c4.8,9.5,1.4,15.4,7.2,21.7
	c7.1,7.7,16.1,3.1,25.8,9.3c10.8,6.9,15.4,22.6,14.5,33c-2.5,25.8-41.6,43.9-71.2,47.5c-43.9,5.4-98.4-16.5-102.2-47.5
	C269.9,91.9,284,77.2,299.9,60.6z"></path><path d="M430,121.5c1-10.4-3.6-26.1-14.5-33c-9.7-6.2-18.7-1.6-25.8-9.3c-5.8-6.3-2.4-12.2-7.2-21.7
	c-7.1-14-23.6-19-25.8-19.6c-15.7-4.6-31.8,2.1-45.1,11.2c14.8-13.5,38.1-30.2,60.6-23.6c2.2,0.7,18.7,5.6,25.8,19.6
	c4.8,9.5,1.4,15.4,7.2,21.7c7.1,7.7,16.1,3.1,25.8,9.3c10.8,6.9,15.4,22.6,14.5,33c-1.2,12.7-11.3,23.5-24.8,31.7
	C425.9,135.1,429.3,128.6,430,121.5z" opacity=".07"></path><ellipse cx="255.6" cy="121" fill="#e03d05" rx="44.9" ry="36.6"></ellipse><path d="M285.1,92.8c1.5,3,2.3,6.2,2.3,9.6c0,14-13.9,25.3-31,25.3s-31-11.3-31-25.3c0-3.4,0.8-6.7,2.3-9.6
	c-9.9,6.7-16.2,16.9-16.2,28.2c0,20.2,20.1,36.6,44.9,36.6c24.8,0,44.9-16.4,44.9-36.6C301.3,109.7,295,99.5,285.1,92.8z" opacity=".11"></path><ellipse cx="256.4" cy="95.7" fill="#fff" opacity=".33" rx="14.5" ry="5.2"></ellipse><path fill="#ffa300" d="M458.9,488H53.1c-17.7,0-32-14.3-32-32V194.8h469.7V456C490.8,473.7,476.5,488,458.9,488z"></path><path fill="#ffc127" d="M433.3 413.7l-13.6-13.6c-10.8-10.8-28.2-10.8-38.9 0l-13.6 13.6c-8 8-21 8-29 0l-13.6-13.6c-10.8-10.8-28.2-10.8-38.9 0L272 413.7c-8 8-21 8-29 0l-13.6-13.6c-10.8-10.8-28.2-10.8-38.9 0l-13.6 13.6c-8 8-21 8-29 0l-13.6-13.6c-10.8-10.8-28.2-10.8-38.9 0l-13.6 13.6c-8 8-21 8-29 0l-31.4-31.4V455c0 18.2 14.8 33 33 33h403.7c18.2 0 33-14.8 33-33v-69.8l-28.5 28.5C454.3 421.7 441.3 421.7 433.3 413.7zM502.5 217.5H9.5c-5.2 0-9.5-4.2-9.5-9.5v-64.7c0-5.2 4.2-9.5 9.5-9.5h493.1c5.2 0 9.5 4.2 9.5 9.5v64.7C512 213.3 507.8 217.5 502.5 217.5zM490.8 239.7c-.4.1-.9.2-1.2.6l-28.5 28.5c-3.5 3.5-8.1 5.4-13.1 5.4-4.9 0-9.6-1.9-13.1-5.4l-13.6-13.6c-5.6-5.6-13-8.7-20.9-8.7s-15.3 3.1-20.9 8.7l-13.6 13.6c-3.5 3.5-8.1 5.4-13.1 5.4-4.9 0-9.6-1.9-13.1-5.4l-13.6-13.6c-11.5-11.5-30.3-11.5-41.9 0l-13.6 13.6c-7.2 7.2-18.9 7.2-26.1 0L231 255.2c-5.6-5.6-13-8.7-20.9-8.7s-15.3 3.1-20.9 8.7l-13.6 13.6c-3.5 3.5-8.1 5.4-13.1 5.4-4.9 0-9.6-1.9-13.1-5.4l-13.6-13.6c-5.6-5.6-13-8.7-20.9-8.7-7.9 0-15.3 3.1-20.9 8.7l-13.6 13.6c-3.5 3.5-8.1 5.4-13.1 5.4s-9.6-1.9-13.1-5.4l-31.4-31.4c-.5-.5-1.1-.7-1.7-.6v4.7l30.2 30.2c4.3 4.3 9.9 6.6 16 6.6s11.7-2.3 16-6.6l13.6-13.6c4.8-4.8 11.2-7.5 18-7.5 6.8 0 13.2 2.6 18 7.5l13.6 13.6c4.3 4.3 9.9 6.6 16 6.6 6 0 11.7-2.3 16-6.6l13.6-13.6c4.8-4.8 11.2-7.5 18-7.5 6.8 0 13.2 2.6 18 7.5l13.6 13.6c8.8 8.8 23.1 8.8 31.9 0l13.6-13.6c9.9-9.9 26.1-9.9 36 0l13.6 13.6c4.3 4.3 9.9 6.6 16 6.6 6 0 11.7-2.3 16-6.6l13.6-13.6c4.8-4.8 11.2-7.5 18-7.5 6.8 0 13.2 2.6 18 7.5l13.6 13.6c8.8 8.8 23.1 8.8 31.9 0l26.8-26.8V239.7zM490.8 293.4c-.4.1-.9.2-1.2.6l-28.5 28.5c-3.5 3.5-8.1 5.4-13.1 5.4-4.9 0-9.6-1.9-13.1-5.4l-13.6-13.6c-5.6-5.6-13-8.7-20.9-8.7s-15.3 3.1-20.9 8.7l-13.6 13.6c-3.5 3.5-8.1 5.4-13.1 5.4-4.9 0-9.6-1.9-13.1-5.4l-13.6-13.6c-11.5-11.5-30.3-11.5-41.9 0l-13.6 13.6c-7.2 7.2-18.9 7.2-26.1 0L231 308.8c-5.6-5.6-13-8.7-20.9-8.7s-15.3 3.1-20.9 8.7l-13.6 13.6c-3.5 3.5-8.1 5.4-13.1 5.4-4.9 0-9.6-1.9-13.1-5.4l-13.6-13.6c-5.6-5.6-13-8.7-20.9-8.7-7.9 0-15.3 3.1-20.9 8.7l-13.6 13.6c-3.5 3.5-8.1 5.4-13.1 5.4s-9.6-1.9-13.1-5.4L22.9 291c-.5-.5-1.1-.7-1.7-.6v4.7l30.2 30.2c4.3 4.3 9.9 6.6 16 6.6s11.7-2.3 16-6.6l13.6-13.6c4.8-4.8 11.2-7.5 18-7.5 6.8 0 13.2 2.6 18 7.5l13.6 13.6c4.3 4.3 9.9 6.6 16 6.6 6 0 11.7-2.3 16-6.6l13.6-13.6c4.8-4.8 11.2-7.5 18-7.5 6.8 0 13.2 2.6 18 7.5l13.6 13.6c8.8 8.8 23.1 8.8 31.9 0l13.6-13.6c9.9-9.9 26.1-9.9 36 0l13.6 13.6c4.3 4.3 9.9 6.6 16 6.6 6 0 11.7-2.3 16-6.6l13.6-13.6c4.8-4.8 11.2-7.5 18-7.5 6.8 0 13.2 2.6 18 7.5l13.6 13.6c8.8 8.8 23.1 8.8 31.9 0l26.8-26.8V293.4z"></path><rect width="70.2" height="354.1" x="220.9" y="133.9" fill="#e03d05"></rect><ellipse cx="256" cy="349.1" opacity=".11" rx="4.6" ry="103.7"></ellipse><rect width="469.7" height="8.3" x="21.2" y="217.5" opacity=".11"></rect><circle cx="22.4" cy="158.7" r="9.3" fill="#fff" opacity=".5"></circle><circle cx="42" cy="173.1" r="5.2" fill="#fff" opacity=".5"></circle></svg>