<?xml version="1.0" encoding="UTF-8" standalone="no"?>
<svg
   width="134.3264"
   height="227.98473"
   viewBox="0 0 134.3264 227.98473"
   fill="none"
   version="1.1"
   id="svg182"
   sodipodi:docname="treeeee.svg"
   xml:space="preserve"
   inkscape:version="1.3 (0e150ed6c4, 2023-07-21)"
   xmlns:inkscape="http://www.inkscape.org/namespaces/inkscape"
   xmlns:sodipodi="http://sodipodi.sourceforge.net/DTD/sodipodi-0.dtd"
   xmlns="http://www.w3.org/2000/svg"
   xmlns:svg="http://www.w3.org/2000/svg"><sodipodi:namedview
     id="namedview182"
     pagecolor="#ffffff"
     bordercolor="#000000"
     borderopacity="0.25"
     inkscape:showpageshadow="2"
     inkscape:pageopacity="0.0"
     inkscape:pagecheckerboard="0"
     inkscape:deskcolor="#d1d1d1"
     showgrid="false"
     inkscape:zoom="1.1942822"
     inkscape:cx="30.56229"
     inkscape:cy="-26.375675"
     inkscape:window-width="1920"
     inkscape:window-height="991"
     inkscape:window-x="-9"
     inkscape:window-y="-9"
     inkscape:window-maximized="1"
     inkscape:current-layer="layer8" /><defs
     id="defs182"><inkscape:path-effect
       effect="simplify"
       id="path-effect227"
       is_visible="true"
       lpeversion="1.3"
       threshold="24.3902"
       steps="1"
       smooth_angles="360"
       helper_size="0"
       simplify_individual_paths="false"
       simplify_just_coalesce="false" /><inkscape:path-effect
       effect="simplify"
       id="path-effect226"
       is_visible="true"
       lpeversion="1.3"
       threshold="24.3902"
       steps="1"
       smooth_angles="360"
       helper_size="0"
       simplify_individual_paths="false"
       simplify_just_coalesce="false" /><inkscape:path-effect
       effect="simplify"
       id="path-effect224"
       is_visible="true"
       lpeversion="1.3"
       threshold="24.3902"
       steps="1"
       smooth_angles="360"
       helper_size="0"
       simplify_individual_paths="false"
       simplify_just_coalesce="false" /><inkscape:path-effect
       effect="simplify"
       id="path-effect221"
       is_visible="true"
       lpeversion="1.3"
       threshold="24.3902"
       steps="1"
       smooth_angles="360"
       helper_size="0"
       simplify_individual_paths="false"
       simplify_just_coalesce="false" /><inkscape:path-effect
       effect="simplify"
       id="path-effect220"
       is_visible="true"
       lpeversion="1.3"
       threshold="24.3902"
       steps="1"
       smooth_angles="360"
       helper_size="0"
       simplify_individual_paths="false"
       simplify_just_coalesce="false" /><inkscape:path-effect
       effect="simplify"
       id="path-effect218"
       is_visible="true"
       lpeversion="1.3"
       threshold="24.3902"
       steps="1"
       smooth_angles="360"
       helper_size="0"
       simplify_individual_paths="false"
       simplify_just_coalesce="false" /><inkscape:path-effect
       effect="simplify"
       id="path-effect217"
       is_visible="true"
       lpeversion="1.3"
       threshold="24.3902"
       steps="1"
       smooth_angles="360"
       helper_size="0"
       simplify_individual_paths="false"
       simplify_just_coalesce="false" /><inkscape:path-effect
       effect="simplify"
       id="path-effect216"
       is_visible="true"
       lpeversion="1.3"
       threshold="24.3902"
       steps="1"
       smooth_angles="360"
       helper_size="0"
       simplify_individual_paths="false"
       simplify_just_coalesce="false" /><inkscape:path-effect
       effect="simplify"
       id="path-effect210"
       is_visible="true"
       lpeversion="1.3"
       threshold="24.3902"
       steps="1"
       smooth_angles="360"
       helper_size="0"
       simplify_individual_paths="false"
       simplify_just_coalesce="false" /><inkscape:path-effect
       effect="simplify"
       id="path-effect208"
       is_visible="true"
       lpeversion="1.3"
       threshold="24.3902"
       steps="1"
       smooth_angles="360"
       helper_size="0"
       simplify_individual_paths="false"
       simplify_just_coalesce="false" /><inkscape:path-effect
       effect="simplify"
       id="path-effect207"
       is_visible="true"
       lpeversion="1.3"
       threshold="24.3902"
       steps="1"
       smooth_angles="360"
       helper_size="0"
       simplify_individual_paths="false"
       simplify_just_coalesce="false" /><inkscape:path-effect
       effect="simplify"
       id="path-effect203"
       is_visible="true"
       lpeversion="1.3"
       threshold="24.3902"
       steps="1"
       smooth_angles="360"
       helper_size="0"
       simplify_individual_paths="false"
       simplify_just_coalesce="false" /><inkscape:path-effect
       effect="simplify"
       id="path-effect200"
       is_visible="true"
       lpeversion="1.3"
       threshold="24.3902"
       steps="1"
       smooth_angles="360"
       helper_size="0"
       simplify_individual_paths="false"
       simplify_just_coalesce="false" /><inkscape:path-effect
       effect="simplify"
       id="path-effect199"
       is_visible="true"
       lpeversion="1.3"
       threshold="24.3902"
       steps="1"
       smooth_angles="360"
       helper_size="0"
       simplify_individual_paths="false"
       simplify_just_coalesce="false" /><inkscape:path-effect
       effect="mirror_symmetry"
       start_point="320.4031,689.11275"
       end_point="320.4031,619.12927"
       center_point="320.4031,654.12101"
       id="path-effect197"
       is_visible="true"
       lpeversion="1.2"
       lpesatellites=""
       mode="free"
       discard_orig_path="false"
       fuse_paths="true"
       oposite_fuse="false"
       split_items="false"
       split_open="false"
       link_styles="false" /><inkscape:path-effect
       effect="simplify"
       id="path-effect196"
       is_visible="true"
       lpeversion="1.3"
       threshold="24.3902"
       steps="1"
       smooth_angles="360"
       helper_size="0"
       simplify_individual_paths="false"
       simplify_just_coalesce="false" /><inkscape:path-effect
       effect="simplify"
       id="path-effect195"
       is_visible="true"
       lpeversion="1.3"
       threshold="12.176084"
       steps="1.5589354"
       smooth_angles="34"
       helper_size="0"
       simplify_individual_paths="false"
       simplify_just_coalesce="false" /><inkscape:path-effect
       effect="simplify"
       id="path-effect194"
       is_visible="true"
       lpeversion="1.3"
       threshold="11.4754"
       steps="1"
       smooth_angles="360"
       helper_size="0"
       simplify_individual_paths="false"
       simplify_just_coalesce="false" /><inkscape:path-effect
       effect="simplify"
       id="path-effect189"
       is_visible="true"
       lpeversion="1.3"
       threshold="11.4754"
       steps="1"
       smooth_angles="360"
       helper_size="0"
       simplify_individual_paths="false"
       simplify_just_coalesce="false" /><inkscape:path-effect
       effect="simplify"
       id="path-effect188"
       is_visible="true"
       lpeversion="1.3"
       threshold="11.4754"
       steps="1"
       smooth_angles="360"
       helper_size="0"
       simplify_individual_paths="false"
       simplify_just_coalesce="false" /><inkscape:path-effect
       effect="simplify"
       id="path-effect187"
       is_visible="true"
       lpeversion="1.3"
       threshold="11.4754"
       steps="1"
       smooth_angles="360"
       helper_size="0"
       simplify_individual_paths="false"
       simplify_just_coalesce="false" /><inkscape:path-effect
       effect="simplify"
       id="path-effect186"
       is_visible="true"
       lpeversion="1.3"
       threshold="24.3902"
       steps="1"
       smooth_angles="360"
       helper_size="0"
       simplify_individual_paths="false"
       simplify_just_coalesce="false" /><inkscape:path-effect
       effect="simplify"
       id="path-effect183"
       is_visible="true"
       lpeversion="1.3"
       threshold="24.3902"
       steps="1"
       smooth_angles="360"
       helper_size="0"
       simplify_individual_paths="false"
       simplify_just_coalesce="false" /><inkscape:path-effect
       effect="simplify"
       id="path-effect182"
       is_visible="true"
       lpeversion="1.3"
       threshold="24.3902"
       steps="1"
       smooth_angles="360"
       helper_size="0"
       simplify_individual_paths="false"
       simplify_just_coalesce="false" /><clipPath
       id="clip0_1_5810"><rect
         width="33"
         height="32"
         fill="#ffffff"
         transform="translate(113.26,16)"
         id="rect161"
         x="0"
         y="0" /></clipPath><clipPath
       id="clip1_1_5810"><rect
         width="33"
         height="32"
         fill="#ffffff"
         transform="translate(113.26,16)"
         id="rect162"
         x="0"
         y="0" /></clipPath><clipPath
       id="clip2_1_5810"><rect
         width="33"
         height="32"
         fill="#ffffff"
         transform="translate(113.26,16)"
         id="rect163"
         x="0"
         y="0" /></clipPath><clipPath
       id="clip3_1_5810"><rect
         width="8.559"
         height="15.014"
         fill="#ffffff"
         transform="translate(73.6003,83.693)"
         id="rect164"
         x="0"
         y="0" /></clipPath><clipPath
       id="clip4_1_5810"><rect
         width="8.559"
         height="15.014"
         fill="#ffffff"
         transform="rotate(180,185.14,49.3535)"
         id="rect165"
         x="0"
         y="0" /></clipPath><clipPath
       id="clip5_1_5810"><rect
         width="352.13"
         height="704"
         fill="#ffffff"
         transform="translate(45.8799,112)"
         id="rect166"
         x="0"
         y="0" /></clipPath><clipPath
       id="clip6_1_5810"><rect
         width="323.63"
         height="17.5"
         fill="#ffffff"
         transform="translate(62.45,115.2)"
         id="rect167"
         x="0"
         y="0" /></clipPath><clipPath
       id="clip7_1_5810"><rect
         width="323.63"
         height="17.5"
         fill="#ffffff"
         transform="translate(62.45,320.52)"
         id="rect168"
         x="0"
         y="0" /></clipPath><clipPath
       id="clip8_1_5810"><rect
         width="323.63"
         height="17.5"
         fill="#ffffff"
         transform="translate(62.45,338.02)"
         id="rect169"
         x="0"
         y="0" /></clipPath><clipPath
       id="clip9_1_5810"><rect
         width="32"
         height="32"
         fill="#ffffff"
         transform="translate(35.75,848)"
         id="rect170"
         x="0"
         y="0" /></clipPath><clipPath
       id="clip10_1_5810"><rect
         width="32"
         height="32"
         fill="#ffffff"
         transform="translate(35.75,848)"
         id="rect171"
         x="0"
         y="0" /></clipPath><clipPath
       id="clip11_1_5810"><rect
         width="32"
         height="32"
         fill="#ffffff"
         transform="translate(139.25,848)"
         id="rect172"
         x="0"
         y="0" /></clipPath><clipPath
       id="clip12_1_5810"><rect
         width="32"
         height="32"
         fill="#ffffff"
         transform="translate(139.25,848)"
         id="rect173"
         x="0"
         y="0" /></clipPath><clipPath
       id="clip13_1_5810"><rect
         width="32"
         height="32"
         fill="#ffffff"
         transform="translate(139.25,848)"
         id="rect174"
         x="0"
         y="0" /></clipPath><clipPath
       id="clip14_1_5810"><rect
         width="32"
         height="32"
         fill="#ffffff"
         transform="translate(242.75,848)"
         id="rect175"
         x="0"
         y="0" /></clipPath><clipPath
       id="clip15_1_5810"><rect
         width="32"
         height="32"
         fill="#ffffff"
         transform="translate(242.75,848)"
         id="rect176"
         x="0"
         y="0" /></clipPath><clipPath
       id="clip16_1_5810"><rect
         width="32"
         height="32"
         fill="#ffffff"
         transform="translate(242.75,848)"
         id="rect177"
         x="0"
         y="0" /></clipPath><clipPath
       id="clip17_1_5810"><rect
         width="32"
         height="32"
         fill="#ffffff"
         transform="translate(346.25,848)"
         id="rect178"
         x="0"
         y="0" /></clipPath><clipPath
       id="clip18_1_5810"><rect
         width="32"
         height="32"
         fill="#ffffff"
         transform="translate(346.25,848)"
         id="rect179"
         x="0"
         y="0" /></clipPath><clipPath
       id="clip19_1_5810"><rect
         width="32"
         height="32"
         fill="#ffffff"
         transform="translate(346.25,848)"
         id="rect180"
         x="0"
         y="0" /></clipPath><clipPath
       id="clip20_1_5810"><rect
         width="44.799999"
         height="44.799999"
         fill="#ffffff"
         transform="translate(5,7)"
         id="rect181"
         x="0"
         y="0" /></clipPath><clipPath
       id="clip21_1_5810"><rect
         width="34"
         height="33"
         fill="#ffffff"
         transform="translate(10,11.9)"
         id="rect182"
         x="0"
         y="0" /></clipPath><inkscape:path-effect
       effect="simplify"
       id="path-effect224-3"
       is_visible="true"
       lpeversion="1.3"
       threshold="24.3902"
       steps="1"
       smooth_angles="360"
       helper_size="0"
       simplify_individual_paths="false"
       simplify_just_coalesce="false" /></defs><g
     inkscape:groupmode="layer"
     id="layer3"
     inkscape:label="TREE"
     style="display:inline"
     transform="translate(-253.71206,-609.48904)"><path
       style="opacity:1;fill:#4a2d14;fill-opacity:1;stroke:none;stroke-width:8.29228;stroke-linecap:round;stroke-linejoin:round;stroke-dasharray:none;stroke-opacity:1"
       d="m 311.36872,770.23377 c 2.40746,11.29124 2.50589,22.85464 4.90561,34.21003 0.46784,2.21383 1.32014,6.29478 4.36989,5.27631 3.41451,-1.14029 6.28877,-3.53145 8.80099,-6.04653 5.10839,-5.11418 7.40384,-12.59455 6.65604,-19.73407 -0.56528,-5.39701 -2.08526,-10.69916 -4.28634,-15.62898 -1.51087,-3.38396 -3.11458,-7.38615 -6.67076,-8.9627 -3.41123,-1.51229 -7.01759,0.80369 -9.30757,3.24834 -2.7677,2.95461 -4.66981,6.77509 -4.81948,10.94261 -0.0414,1.15266 -0.0343,2.30626 -0.0335,3.45944"
       id="path207"
       inkscape:path-effect="#path-effect207"
       inkscape:original-d="m 311.36872,770.23377 c 2.38087,11.09131 1.62509,22.49528 4.73203,33.52801 0.45289,1.60819 0.93455,5.09133 2.67257,5.8718 1.77295,0.79615 4.50452,-1.02985 5.8325,-1.92779 10.6942,-7.23111 13.70203,-18.01298 10.28154,-30.17698 -1.41305,-5.02515 -4.02373,-13.80304 -8.26925,-17.26168 -6.17571,-5.03107 -14.01541,4.62455 -15.24939,9.96664 -0.4241,1.83603 -0.38516,4.72252 -0.38516,6.76445"
       transform="matrix(0.98869495,0.14994101,-0.17752261,1.1705651,139.95272,-167.16709)" /><path
       d="m 362.45898,747.51172 c -0.56995,0.25369 -1.13694,0.51356 -1.72265,0.73828 -0.85781,0.32911 -1.72825,0.6293 -2.60352,0.90625 -0.87526,0.27695 -1.7556,0.53091 -2.6289,0.76758 -0.87331,0.23667 -1.73988,0.45578 -2.5918,0.66406 -0.40573,0.0992 -0.78159,0.16838 -1.13086,0.2168 -0.34927,0.0484 -0.67191,0.0761 -0.97461,0.0957 -0.60539,0.0392 -1.12902,0.0437 -1.60742,0.0996 -0.2392,0.028 -0.46718,0.0696 -0.68945,0.13477 -0.22228,0.0651 -0.43711,0.15308 -0.65235,0.27734 -0.21523,0.12426 -0.43036,0.28486 -0.64844,0.49023 -0.21808,0.20538 -0.43911,0.4552 -0.66992,0.76368 -0.26262,0.35099 -0.54494,0.66986 -0.84375,0.95703 -0.2988,0.28717 -0.61426,0.54404 -0.94531,0.77148 -0.33105,0.22745 -0.67776,0.42584 -1.03711,0.59766 -0.35935,0.17182 -0.73152,0.3172 -1.11523,0.4375 -0.38372,0.12029 -0.77946,0.21423 -1.1836,0.28711 -0.40414,0.0729 -0.81766,0.12474 -1.23828,0.15429 -0.42062,0.0295 -0.84809,0.037 -1.28125,0.0274 -0.43316,-0.01 -0.87073,-0.0372 -1.3125,-0.082 -0.44176,-0.0448 -0.88756,-0.10582 -1.33398,-0.18164 -0.44643,-0.0758 -0.89466,-0.16679 -1.3418,-0.26954 -0.89429,-0.20549 -1.78663,-0.46141 -2.66016,-0.75 -0.87352,-0.28858 -1.72759,-0.61034 -2.54882,-0.94921 -0.82124,-0.33888 -1.60828,-0.69441 -2.34571,-1.05079 -0.65105,-0.31463 -1.23557,-0.56329 -1.76562,-0.7539 -0.53005,-0.19062 -1.00673,-0.32209 -1.44141,-0.40235 -0.43467,-0.0802 -0.82843,-0.1102 -1.19336,-0.0937 -0.36493,0.0165 -0.70066,0.0782 -1.02148,0.17774 -0.32082,0.0995 -0.62539,0.23733 -0.92774,0.40625 -0.30234,0.16892 -0.60261,0.36908 -0.91211,0.59375 -0.61899,0.44933 -1.27672,0.99748 -2.07812,1.58789 -0.39218,0.28892 -0.79582,0.55618 -1.20899,0.80469 -0.41316,0.24851 -0.83754,0.47745 -1.26953,0.6875 -0.43198,0.21004 -0.87167,0.40069 -1.32031,0.57422 -0.44864,0.17352 -0.90601,0.3298 -1.36914,0.46875 -0.46313,0.13895 -0.93275,0.26086 -1.4082,0.36718 -0.47545,0.10633 -0.95581,0.1978 -1.44141,0.27344 -0.4856,0.0756 -0.97516,0.13669 -1.46875,0.18359 -0.49359,0.0469 -0.99083,0.0795 -1.49023,0.0996 -0.99882,0.0402 -2.00849,0.0279 -3.01758,-0.0273 -1.00909,-0.0553 -2.01752,-0.15389 -3.01953,-0.28906 -1.00202,-0.13517 -1.997,-0.30635 -2.97461,-0.50586 -0.97761,-0.19952 -1.93914,-0.42749 -2.875,-0.67578 -0.2712,-0.072 -0.53041,-0.15684 -0.7793,-0.25391 -0.24889,-0.0971 -0.48763,-0.20706 -0.7168,-0.32617 -0.45832,-0.23822 -0.87848,-0.51636 -1.27343,-0.82422 -0.39496,-0.30786 -0.76492,-0.64522 -1.11719,-0.99805 -0.35228,-0.35282 -0.68729,-0.72064 -1.01758,-1.09375 -0.66058,-0.74622 -1.29735,-1.50823 -1.99414,-2.1875 -0.34839,-0.33963 -0.71308,-0.65943 -1.10156,-0.94531 -0.38849,-0.28588 -0.80073,-0.53865 -1.25,-0.74609 -0.254,-0.11728 -0.51158,-0.20982 -0.77149,-0.2793 -0.2599,-0.0695 -0.52377,-0.11674 -0.78906,-0.14453 -0.26529,-0.0278 -0.53258,-0.0351 -0.80273,-0.0273 -0.27016,0.008 -0.54191,0.0311 -0.81641,0.0684 -0.54901,0.0746 -1.10663,0.20352 -1.66992,0.35938 -0.56329,0.15585 -1.13361,0.33904 -1.70703,0.52734 -0.57343,0.18831 -1.14911,0.38082 -1.72852,0.55274 -0.57941,0.17191 -1.16095,0.323 -1.74219,0.42968 -0.27505,0.0505 -0.55139,0.0894 -0.82617,0.11719 -0.36324,0.34969 -0.71954,0.72524 -1.08594,1.06836 -0.76241,0.71398 -1.56101,1.38986 -2.34375,2.08008 0.005,0.0127 0.009,0.0244 0.0137,0.0371 -0.008,-0.009 -0.0153,-0.0188 -0.0234,-0.0273 -0.59066,0.5207 -1.16081,1.05995 -1.76758,1.57031 -1.4145,1.18974 -2.87689,2.35371 -4.41406,3.51172 -0.25183,0.18971 -0.52011,0.36949 -0.80078,0.53906 -0.28068,0.16957 -0.57362,0.32858 -0.87696,0.48242 -0.60666,0.30767 -1.25383,0.59014 -1.91406,0.86133 -0.66023,0.27119 -1.33369,0.53276 -1.99805,0.80273 -0.66435,0.26998 -1.31846,0.54754 -1.9375,0.85157 -0.30951,0.15201 -0.61146,0.30942 -0.90039,0.47656 -0.28892,0.16714 -0.56598,0.34457 -0.82812,0.53125 -0.26215,0.18668 -0.5091,0.38313 -0.73828,0.59375 -0.22919,0.21062 -0.44081,0.43485 -0.63086,0.67383 -0.19005,0.23897 -0.35917,0.49389 -0.50391,0.76562 -0.14473,0.27174 -0.26418,0.56024 -0.35742,0.86914 -0.0932,0.30891 -0.15975,0.6378 -0.19531,0.98828 -0.0356,0.35049 -0.04,0.72267 -0.0117,1.11914 0.0259,0.36262 0.0697,0.71324 0.13086,1.05274 0.0612,0.3395 0.13876,0.66734 0.23242,0.98437 0.0937,0.31704 0.20278,0.62273 0.32617,0.91797 0.1234,0.29525 0.26176,0.58136 0.41211,0.85547 0.15035,0.27411 0.31374,0.53737 0.48828,0.79102 0.17454,0.25364 0.36069,0.49663 0.55664,0.73047 0.39191,0.46768 0.82424,0.89662 1.28516,1.28906 0.46092,0.39244 0.94928,0.74781 1.45703,1.07031 0.50775,0.32251 1.03401,0.61127 1.56641,0.86914 0.53239,0.25788 1.0706,0.48504 1.60547,0.68359 0.53486,0.19856 1.06688,0.36914 1.58203,0.51368 0.81153,0.22769 1.62867,0.43638 2.45117,0.62304 0.8225,0.18666 1.64969,0.35128 2.48047,0.49219 0.83077,0.14092 1.66559,0.25721 2.50195,0.34766 0.83636,0.0904 1.67442,0.15614 2.51367,0.1914 0.83926,0.0353 1.68007,0.0403 2.51953,0.0156 0.83946,-0.0246 1.6767,-0.0806 2.51368,-0.16992 0.83697,-0.0893 1.6721,-0.21053 2.5039,-0.36914 0.8318,-0.15862 1.66044,-0.35326 2.48438,-0.58594 0.17844,-0.0504 0.3575,-0.11979 0.53711,-0.20313 0.1796,-0.0833 0.36094,-0.18168 0.54101,-0.29297 0.36016,-0.22256 0.72026,-0.49647 1.07813,-0.80078 0.35786,-0.30431 0.71248,-0.63835 1.0625,-0.98437 0.35001,-0.34602 0.69464,-0.7031 1.03125,-1.05078 0.33661,-0.34769 0.66478,-0.68679 0.98242,-0.9961 0.31764,-0.30931 0.62486,-0.58941 0.91797,-0.82031 0.29311,-0.2309 0.57291,-0.41294 0.83593,-0.52539 0.13152,-0.0562 0.25987,-0.0942 0.38282,-0.11328 0.12294,-0.0191 0.23983,-0.0191 0.35351,0.004 0.042,0.51212 0.0635,1.0311 0.0723,1.55273 0.009,0.52163 0.006,1.04744 0,1.57422 -0.012,1.05356 -0.0361,2.11217 0.004,3.16015 0.02,0.524 0.0564,1.04449 0.11719,1.56055 0.0608,0.51606 0.14556,1.02749 0.26563,1.53125 0.12007,0.50377 0.2748,1.00118 0.47265,1.48828 0.19785,0.48711 0.44024,0.9636 0.73438,1.42969 0.35146,0.55692 0.72343,1.10847 1.11523,1.64648 0.39181,0.53802 0.80338,1.0626 1.23438,1.56446 0.43099,0.50186 0.88057,0.98124 1.34961,1.42969 0.46903,0.44844 0.95696,0.86637 1.46289,1.24414 0.50593,0.37776 1.0306,0.71602 1.57226,1.00586 0.54167,0.28983 1.10148,0.53215 1.67774,0.71679 0.28813,0.0923 0.58039,0.16964 0.87695,0.23242 0.29656,0.0628 0.59554,0.10953 0.90039,0.14063 0.30485,0.0311 0.61474,0.0457 0.92774,0.043 0.31299,-0.003 0.63018,-0.0218 0.95117,-0.0605 0.4862,-0.0587 0.97214,-0.13397 1.45508,-0.22851 0.48293,-0.0945 0.96361,-0.20886 1.43945,-0.34375 0.47584,-0.13489 0.9472,-0.29095 1.41211,-0.47071 0.46491,-0.17975 0.92289,-0.38219 1.37305,-0.61133 0.45015,-0.22913 0.89069,-0.48454 1.32226,-0.76757 0.43157,-0.28303 0.85451,-0.59411 1.26367,-0.93555 0.40916,-0.34144 0.80458,-0.71282 1.1875,-1.11719 0.38292,-0.40436 0.75262,-0.84265 1.10547,-1.31445 0.21952,-0.29352 0.43411,-0.62987 0.64453,-0.9961 0.21042,-0.36622 0.4173,-0.76137 0.61914,-1.17382 0.40369,-0.82491 0.78961,-1.71537 1.16211,-2.56641 0.37251,-0.85104 0.73068,-1.66267 1.07617,-2.32812 0.17275,-0.33273 0.343,-0.63033 0.50977,-0.87696 0.16677,-0.24663 0.33087,-0.4421 0.49219,-0.57617 0.0774,0.50691 0.17721,0.99998 0.29883,1.48047 0.12167,-0.48049 0.22157,-0.97356 0.29882,-1.48047 0.16133,0.13407 0.32535,0.32954 0.49219,0.57617 0.16685,0.24663 0.3369,0.54423 0.50977,0.87696 0.34573,0.66545 0.70334,1.47708 1.07617,2.32812 0.37283,0.85104 0.76013,1.7415 1.16406,2.56641 0.20197,0.41245 0.40865,0.8076 0.61914,1.17382 0.2105,0.36623 0.42501,0.70258 0.64453,0.9961 0.35285,0.4718 0.72255,0.91009 1.10547,1.31445 0.38292,0.40437 0.7803,0.77575 1.18946,1.11719 0.40916,0.34144 0.83014,0.65252 1.26171,0.93555 0.43158,0.28303 0.87407,0.53844 1.32422,0.76757 0.45016,0.22914 0.90814,0.43158 1.37305,0.61133 0.46491,0.17976 0.93627,0.33582 1.41211,0.47071 0.47584,0.13489 0.95652,0.24921 1.43945,0.34375 0.48294,0.0945 0.96692,0.16981 1.45313,0.22851 0.32099,0.0388 0.6382,0.0578 0.95117,0.0605 0.31297,0.003 0.62292,-0.0119 0.92773,-0.043 0.30482,-0.0311 0.60584,-0.0778 0.90235,-0.14063 0.29651,-0.0628 0.58888,-0.1401 0.87695,-0.23242 0.57614,-0.18464 1.13427,-0.42696 1.67578,-0.71679 0.54152,-0.28984 1.0665,-0.6281 1.57227,-1.00586 0.50576,-0.37777 0.99205,-0.7957 1.46093,-1.24414 0.46889,-0.44845 0.91874,-0.92783 1.34961,-1.42969 0.43088,-0.50186 0.84265,-1.02644 1.23438,-1.56446 0.39173,-0.53801 0.76378,-1.08956 1.11523,-1.64648 0.29414,-0.46609 0.53646,-0.94258 0.73438,-1.42969 0.19792,-0.4871 0.35246,-0.98451 0.47265,-1.48828 0.1202,-0.50376 0.20469,-1.01519 0.26563,-1.53125 0.0609,-0.51606 0.097,-1.03655 0.11719,-1.56055 0.0404,-1.04798 0.0176,-2.10659 0.006,-3.16015 -0.006,-0.52678 -0.009,-1.05259 0,-1.57422 0.009,-0.52163 0.0303,-1.04061 0.0723,-1.55273 0.11369,-0.023 0.23253,-0.023 0.35547,-0.004 0.12295,0.0191 0.24935,0.0571 0.38086,0.11328 0.26302,0.11245 0.54283,0.29449 0.83594,0.52539 0.29311,0.2309 0.60033,0.511 0.91797,0.82031 0.31764,0.30931 0.64581,0.64841 0.98242,0.9961 0.33661,0.34768 0.68123,0.70476 1.03125,1.05078 0.35002,0.34602 0.70463,0.68006 1.0625,0.98437 0.35786,0.30431 0.71992,0.57822 1.08008,0.80078 0.18007,0.11129 0.35945,0.20963 0.53906,0.29297 0.17961,0.0833 0.35867,0.15274 0.53711,0.20313 0.82393,0.23268 1.65257,0.42732 2.48437,0.58594 0.8318,0.15861 1.66693,0.27987 2.50391,0.36914 0.83698,0.0893 1.67616,0.14527 2.51562,0.16992 0.83947,0.0246 1.67833,0.0196 2.51758,-0.0156 0.83926,-0.0353 1.67927,-0.10096 2.51563,-0.1914 0.83636,-0.0905 1.66922,-0.20674 2.5,-0.34766 0.83077,-0.14091 1.65797,-0.30553 2.48047,-0.49219 0.82249,-0.18666 1.64159,-0.39535 2.45312,-0.62304 0.51515,-0.14454 1.04529,-0.31512 1.58008,-0.51368 0.53479,-0.19855 1.07319,-0.42571 1.60547,-0.68359 0.53228,-0.25787 1.05881,-0.54663 1.5664,-0.86914 0.5076,-0.3225 0.99628,-0.67787 1.45704,-1.07031 0.46075,-0.39244 0.8934,-0.82138 1.28515,-1.28906 0.19588,-0.23384 0.38022,-0.47683 0.55469,-0.73047 0.17447,-0.25365 0.33799,-0.51691 0.48828,-0.79102 0.15029,-0.27411 0.28877,-0.56022 0.41211,-0.85547 0.12334,-0.29524 0.23255,-0.60093 0.32617,-0.91797 0.0936,-0.31703 0.17129,-0.64487 0.23242,-0.98437 0.0611,-0.3395 0.10499,-0.69012 0.13086,-1.05274 0.0283,-0.39647 0.0269,-0.76782 -0.004,-1.11523 -0.0308,-0.34741 -0.0914,-0.67145 -0.17578,-0.97461 -0.0844,-0.30316 -0.1938,-0.58588 -0.32618,-0.84961 -0.13237,-0.26373 -0.28609,-0.50721 -0.46093,-0.73633 -0.17485,-0.22912 -0.37027,-0.44325 -0.58203,-0.64258 -0.21177,-0.19932 -0.44046,-0.38423 -0.6836,-0.55859 -0.24313,-0.17436 -0.50057,-0.33798 -0.76953,-0.49219 -0.26896,-0.1542 -0.5506,-0.29862 -0.83984,-0.4375 -0.57849,-0.27775 -1.19203,-0.53005 -1.81836,-0.77539 -0.62634,-0.24533 -1.26472,-0.48485 -1.89453,-0.73633 -0.62982,-0.25147 -1.25093,-0.51632 -1.83985,-0.8125 -0.29446,-0.14808 -0.57955,-0.30421 -0.85547,-0.4707 -0.27592,-0.16649 -0.54113,-0.34153 -0.79297,-0.53125 -1.53717,-1.15801 -3.04249,-2.35092 -4.51757,-3.58008 -1.47509,-1.22915 -2.92001,-2.49631 -4.3418,-3.80468 -1.42179,-1.30838 -2.81998,-2.65707 -4.19727,-4.05274 -0.0106,-0.0107 -0.0207,-0.0225 -0.0312,-0.0332 z"
       style="display:inline;fill:#26a269;stroke-width:12.2024;stroke-linecap:round;stroke-linejoin:round"
       id="path206" /><path
       d="m 320.16016,684.01562 c -0.70081,1.09101 -1.3637,2.21228 -2,3.35352 -0.63631,1.14125 -1.24526,2.30311 -1.83594,3.48047 -0.59068,1.17736 -1.1646,2.369 -1.72852,3.56836 -0.56392,1.19935 -1.11779,2.40605 -1.67383,3.61328 -0.55603,1.20723 -1.11461,2.41622 -1.68164,3.61719 -0.56702,1.20097 -1.14334,2.39362 -1.74023,3.57422 -0.59689,1.18059 -1.21376,2.34804 -1.85938,3.49414 -0.64561,1.14609 -1.31998,2.27166 -2.0332,3.36914 -0.90172,1.38753 -1.81332,2.76521 -2.73633,4.13281 -0.35818,0.53071 -0.72649,1.0525 -1.08789,1.58008 0.57619,-0.29709 1.14973,-0.59939 1.73633,-0.87891 0.89939,-0.42856 1.81092,-0.83665 2.73242,-1.22461 0.92151,-0.38796 1.85221,-0.7553 2.79297,-1.10351 0.94077,-0.34822 1.89049,-0.67702 2.84766,-0.98633 0.95716,-0.30931 1.92187,-0.59983 2.89258,-0.8711 0.9707,-0.27126 1.9483,-0.52375 2.92968,-0.75781 0.98139,-0.23405 1.96783,-0.44878 2.95703,-0.64648 0.98921,-0.1977 1.98045,-0.37883 2.97461,-0.54102 0.99417,-0.16219 1.99007,-0.30606 2.98633,-0.43359 0.99627,-0.12753 1.99278,-0.23831 2.98828,-0.33203 0.99551,-0.0937 1.99054,-0.16971 2.98243,-0.23047 0.2395,-0.0147 0.47753,-0.008 0.71679,-0.0176 -0.20889,-0.35576 -0.43581,-0.69851 -0.63867,-1.05859 -0.64569,-1.1461 -1.26236,-2.31355 -1.85937,-3.49414 -0.59701,-1.1806 -1.17501,-2.37325 -1.74219,-3.57422 -0.56718,-1.20097 -1.12349,-2.40996 -1.67969,-3.61719 -0.5562,-1.20723 -1.1117,-2.41393 -1.67578,-3.61328 -0.56408,-1.19936 -1.13576,-2.391 -1.72656,-3.56836 -0.59081,-1.17736 -1.19956,-2.33922 -1.83594,-3.48047 -0.63638,-1.14124 -1.30115,-2.26251 -2.00195,-3.35352 z"
       style="display:inline;fill:#26a269;stroke-width:12.2024;stroke-linecap:round;stroke-linejoin:round"
       id="path204" /><path
       d="m 333.32031,709.77539 c -0.23926,0.01 -0.47729,0.003 -0.71679,0.0176 -0.99189,0.0608 -1.98692,0.13675 -2.98243,0.23047 -0.9955,0.0937 -1.99201,0.2045 -2.98828,0.33203 -0.99626,0.12753 -1.99216,0.2714 -2.98633,0.43359 -0.99416,0.16219 -1.9854,0.34332 -2.97461,0.54102 -0.9892,0.1977 -1.97564,0.41243 -2.95703,0.64648 -0.98138,0.23406 -1.95898,0.48655 -2.92968,0.75781 -0.97071,0.27127 -1.93542,0.56179 -2.89258,0.8711 -0.95717,0.30931 -1.90689,0.63811 -2.84766,0.98633 -0.94076,0.34821 -1.87146,0.71555 -2.79297,1.10351 -0.9215,0.38796 -1.83303,0.79605 -2.73242,1.22461 -0.5866,0.27952 -1.16014,0.58182 -1.73633,0.87891 -0.56989,0.83196 -1.13694,1.66824 -1.71484,2.49219 -0.94437,1.34643 -1.89945,2.68183 -2.86524,4.00585 -0.96578,1.32403 -1.94046,2.63516 -2.92773,3.93555 -0.98727,1.30039 -1.98532,2.58972 -2.99414,3.86524 -1.00882,1.27551 -2.03011,2.5377 -3.06055,3.78711 -1.03044,1.24941 -2.07092,2.48496 -3.12304,3.70703 -1.05213,1.22206 -2.11559,2.43151 -3.18946,3.625 -1.34158,1.49103 -2.6579,2.90546 -3.97461,4.26172 -0.95695,0.98569 -1.92243,1.91163 -2.88867,2.84179 0.27478,-0.0278 0.55112,-0.0667 0.82617,-0.11719 0.58124,-0.10668 1.16278,-0.25777 1.74219,-0.42968 0.57941,-0.17192 1.15509,-0.36443 1.72852,-0.55274 0.57342,-0.1883 1.14374,-0.37149 1.70703,-0.52734 0.56329,-0.15586 1.12091,-0.28482 1.66992,-0.35938 0.2745,-0.0373 0.54625,-0.0606 0.81641,-0.0684 0.27015,-0.008 0.53744,-4.4e-4 0.80273,0.0273 0.26529,0.0278 0.52916,0.0751 0.78906,0.14453 0.25991,0.0695 0.51749,0.16202 0.77149,0.2793 0.44927,0.20744 0.86151,0.46021 1.25,0.74609 0.38848,0.28588 0.75317,0.60568 1.10156,0.94531 0.69679,0.67927 1.33356,1.44128 1.99414,2.1875 0.33029,0.37311 0.6653,0.74093 1.01758,1.09375 0.35227,0.35283 0.72223,0.69019 1.11719,0.99805 0.39495,0.30786 0.81511,0.586 1.27343,0.82422 0.22917,0.11911 0.46791,0.2291 0.7168,0.32617 0.24889,0.0971 0.5081,0.18196 0.7793,0.25391 0.93586,0.24829 1.89739,0.47626 2.875,0.67578 0.97761,0.19951 1.97259,0.37069 2.97461,0.50586 1.00201,0.13517 2.01044,0.23381 3.01953,0.28906 1.00909,0.0553 2.01876,0.0676 3.01758,0.0273 0.4994,-0.0201 0.99664,-0.0527 1.49023,-0.0996 0.49359,-0.0469 0.98315,-0.10795 1.46875,-0.18359 0.4856,-0.0756 0.96596,-0.16711 1.44141,-0.27344 0.47545,-0.10632 0.94507,-0.22823 1.4082,-0.36718 0.46313,-0.13895 0.9205,-0.29523 1.36914,-0.46875 0.44864,-0.17353 0.88833,-0.36418 1.32031,-0.57422 0.43199,-0.21005 0.85637,-0.43899 1.26953,-0.6875 0.41317,-0.24851 0.81681,-0.51577 1.20899,-0.80469 0.8014,-0.59041 1.45913,-1.13856 2.07812,-1.58789 0.3095,-0.22467 0.60977,-0.42483 0.91211,-0.59375 0.30235,-0.16892 0.60692,-0.30674 0.92774,-0.40625 0.32082,-0.0995 0.65655,-0.16128 1.02148,-0.17774 0.36493,-0.0164 0.75869,0.0135 1.19336,0.0937 0.43468,0.0803 0.91136,0.21173 1.44141,0.40235 0.53005,0.19061 1.11457,0.43927 1.76562,0.7539 0.73743,0.35638 1.52447,0.71191 2.34571,1.05079 0.82123,0.33887 1.6753,0.66063 2.54882,0.94921 0.87353,0.28859 1.76587,0.54451 2.66016,0.75 0.44714,0.10275 0.89537,0.19371 1.3418,0.26954 0.44642,0.0758 0.89222,0.13684 1.33398,0.18164 0.44177,0.0448 0.87934,0.0724 1.3125,0.082 0.43316,0.01 0.86063,0.002 1.28125,-0.0274 0.42062,-0.0295 0.83414,-0.0814 1.23828,-0.15429 0.40414,-0.0729 0.79988,-0.16682 1.1836,-0.28711 0.38371,-0.1203 0.75588,-0.26568 1.11523,-0.4375 0.35935,-0.17182 0.70606,-0.37021 1.03711,-0.59766 0.33105,-0.22744 0.64651,-0.48431 0.94531,-0.77148 0.29881,-0.28717 0.58113,-0.60604 0.84375,-0.95703 0.23081,-0.30848 0.45184,-0.5583 0.66992,-0.76368 0.21808,-0.20537 0.43321,-0.36597 0.64844,-0.49023 0.21524,-0.12426 0.43007,-0.21222 0.65235,-0.27734 0.22227,-0.0651 0.45025,-0.1068 0.68945,-0.13477 0.4784,-0.0559 1.00203,-0.0604 1.60742,-0.0996 0.3027,-0.0196 0.62534,-0.0473 0.97461,-0.0957 0.34927,-0.0484 0.72513,-0.11761 1.13086,-0.2168 0.85192,-0.20828 1.71849,-0.42739 2.5918,-0.66406 0.8733,-0.23667 1.75364,-0.49063 2.6289,-0.76758 0.87527,-0.27695 1.74571,-0.57714 2.60352,-0.90625 0.58571,-0.22472 1.1527,-0.48459 1.72265,-0.73828 -1.36641,-1.38566 -2.71363,-2.81532 -4.04492,-4.29492 -1.07386,-1.19349 -2.13733,-2.40294 -3.18945,-3.625 -1.05212,-1.22207 -2.09261,-2.45762 -3.12305,-3.70703 -1.03044,-1.24941 -2.04977,-2.5116 -3.05859,-3.78711 -1.00882,-1.27552 -2.00687,-2.56485 -2.99414,-3.86524 -0.98727,-1.30039 -1.9639,-2.61152 -2.92969,-3.93555 -0.96579,-1.32402 -1.92087,-2.65942 -2.86523,-4.00585 -0.94437,-1.34644 -1.87777,-2.70467 -2.80079,-4.07227 -0.92301,-1.3676 -1.83656,-2.74528 -2.73828,-4.13281 -0.48914,-0.75267 -0.93854,-1.53397 -1.39453,-2.31055 z"
       style="opacity:1;fill:#218d5c;stroke-width:8.29228;stroke-linecap:round;stroke-linejoin:round"
       id="path205" /><path
       d="m 351.98047,693.99414 c -0.0695,0.0575 -0.1419,0.11193 -0.21094,0.16992 -0.73099,0.61405 -1.44127,1.24989 -2.1875,1.84571 -0.37311,0.2979 -0.7559,0.58644 -1.1543,0.85546 -0.39839,0.26903 -0.81201,0.52021 -1.25,0.74414 -0.89625,0.45825 -1.80448,0.89135 -2.7207,1.29493 -0.91622,0.40358 -1.84145,0.77623 -2.77148,1.10937 -0.93003,0.33314 -1.86505,0.62807 -2.80274,0.875 -0.93768,0.24693 -1.87721,0.44685 -2.8164,0.5918 -0.4696,0.0725 -0.93939,0.12981 -1.40821,0.17383 -0.46881,0.044 -0.93703,0.0743 -1.40429,0.0879 -0.46727,0.0136 -0.93349,0.011 -1.39844,-0.008 -0.46495,-0.0188 -0.92876,-0.0542 -1.39063,-0.10742 -0.46186,-0.0532 -0.92285,-0.12337 -1.38086,-0.21289 -0.458,-0.0895 -0.9138,-0.19834 -1.36718,-0.32617 -0.45339,-0.12783 -0.90358,-0.27524 -1.35157,-0.44336 -0.44799,-0.16812 -0.89411,-0.35603 -1.33593,-0.56641 -0.16989,-0.0809 -0.33858,-0.17884 -0.50586,-0.29101 -0.16728,-0.11217 -0.33164,-0.23986 -0.4961,-0.37695 -0.32891,-0.27418 -0.65239,-0.59204 -0.96875,-0.92774 -0.63271,-0.6714 -1.2382,-1.41316 -1.81054,-2.02539 -0.28618,-0.30611 -0.56544,-0.57992 -0.83399,-0.79492 -0.13427,-0.1075 -0.26498,-0.20021 -0.39453,-0.27539 -0.12955,-0.0752 -0.25625,-0.13341 -0.38086,-0.16992 -0.12461,-0.0365 -0.24772,-0.0515 -0.36719,-0.043 -0.11946,0.009 -0.2355,0.0416 -0.34961,0.10156 -0.1141,0.0599 -0.22545,0.146 -0.33398,0.26367 -0.10853,0.11768 -0.21561,0.26548 -0.31836,0.44727 -0.24107,0.42652 -0.50736,0.82923 -0.79687,1.20898 -0.28952,0.37975 -0.602,0.73694 -0.93555,1.07227 -0.33355,0.33533 -0.68736,0.6501 -1.06055,0.94336 -0.37319,0.29326 -0.7654,0.56482 -1.17383,0.81836 -0.40842,0.25354 -0.83418,0.48891 -1.27343,0.70507 -0.43925,0.21617 -0.89175,0.41261 -1.35743,0.59375 -0.46567,0.18115 -0.94393,0.34566 -1.43164,0.49415 -0.4877,0.14848 -0.9849,0.28222 -1.49023,0.40039 -0.50533,0.11816 -1.01856,0.2223 -1.53711,0.3125 -0.51855,0.0902 -1.04295,0.16588 -1.57031,0.23046 -1.05473,0.12917 -2.12197,0.2092 -3.18555,0.25 -1.06358,0.0408 -2.12294,0.0424 -3.16016,0.0137 -1.03721,-0.0288 -2.05171,-0.0865 -3.02734,-0.16602 -0.54858,-0.0447 -1.15827,-0.1049 -1.79883,-0.1875 -0.64055,-0.0826 -1.31261,-0.18885 -1.99023,-0.32422 -0.67762,-0.13536 -1.35975,-0.30091 -2.01953,-0.5039 -0.32989,-0.1015 -0.65557,-0.2128 -0.97071,-0.33399 -0.31513,-0.12119 -0.62054,-0.25179 -0.91406,-0.39453 -0.29351,-0.14274 -0.57481,-0.29674 -0.83984,-0.46289 -0.26503,-0.16615 -0.51446,-0.34374 -0.74414,-0.53516 -0.22968,-0.19141 -0.43948,-0.3967 -0.62696,-0.61523 -0.13941,-0.16252 -0.25247,-0.34112 -0.36523,-0.51953 -0.74127,0.89108 -1.48506,1.80196 -2.2207,2.64258 -1.16079,1.32641 -2.32169,2.59407 -3.50391,3.82226 -1.18222,1.2282 -2.38581,2.41651 -3.63281,3.58008 -1.24701,1.16357 -2.53743,2.30301 -3.89258,3.43555 -0.22201,0.18554 -0.45764,0.35955 -0.70508,0.52539 -0.24744,0.16584 -0.50602,0.32415 -0.77344,0.47461 -0.53482,0.3009 -1.10545,0.57462 -1.6875,0.83984 -0.58204,0.26522 -1.17603,0.52112 -1.76171,0.78516 -0.58569,0.26403 -1.16325,0.53664 -1.70899,0.83398 -0.27287,0.14867 -0.5363,0.30333 -0.79101,0.4668 -0.25471,0.16346 -0.49937,0.33501 -0.73047,0.51758 -0.23111,0.18257 -0.4503,0.37604 -0.65235,0.58203 -0.20205,0.20599 -0.38714,0.42448 -0.55468,0.6582 -0.16755,0.23372 -0.31772,0.48229 -0.44532,0.74805 -0.12759,0.26576 -0.23225,0.54945 -0.31445,0.85156 -0.0822,0.30211 -0.14052,0.62402 -0.17188,0.9668 -0.0314,0.34277 -0.0367,0.706 -0.0117,1.09375 0.0228,0.35464 0.0613,0.69727 0.11523,1.02929 0.0539,0.33203 0.12446,0.65283 0.20703,0.96289 0.0826,0.31007 0.17833,0.60969 0.28711,0.89844 0.10878,0.28875 0.22878,0.56786 0.36133,0.83594 0.13255,0.26808 0.27777,0.52537 0.43164,0.77344 0.15387,0.24806 0.31749,0.48614 0.49023,0.71484 0.3455,0.45739 0.72648,0.87791 1.13282,1.26172 0.40634,0.38381 0.83753,0.73146 1.28515,1.04687 0.44763,0.31541 0.91151,0.59741 1.38086,0.84961 0.46936,0.25221 0.94449,0.47379 1.41602,0.66797 0.47153,0.19419 0.93843,0.3606 1.39258,0.50196 0.71543,0.22268 1.437,0.42682 2.16211,0.60937 0.7251,0.18256 1.4551,0.34461 2.1875,0.48242 0.7324,0.13782 1.46775,0.25139 2.20507,0.33985 0.73733,0.0884 1.47692,0.15106 2.2168,0.18554 0.73988,0.0345 1.47869,0.0417 2.21875,0.0176 0.74006,-0.0241 1.48088,-0.0787 2.21875,-0.16601 0.73787,-0.0873 1.47373,-0.20816 2.20703,-0.36329 0.73331,-0.15512 1.46309,-0.3447 2.18945,-0.57226 0.15732,-0.0493 0.31628,-0.11576 0.47461,-0.19727 0.15834,-0.0815 0.31586,-0.17827 0.47461,-0.28711 0.31751,-0.21767 0.63569,-0.48558 0.95118,-0.7832 0.31549,-0.29762 0.62892,-0.62449 0.9375,-0.96289 0.30857,-0.3384 0.6134,-0.68731 0.91015,-1.02734 0.29675,-0.34004 0.58521,-0.67211 0.86524,-0.97461 0.28002,-0.30251 0.55019,-0.57692 0.80859,-0.80274 0.2584,-0.22582 0.50445,-0.40174 0.73633,-0.51172 0.11594,-0.055 0.2295,-0.0946 0.33789,-0.11328 0.10839,-0.0187 0.21228,-0.0166 0.3125,0.006 0.037,0.50086 0.0548,1.00743 0.0625,1.51758 0.008,0.51015 0.005,1.02387 0,1.53906 -0.0106,1.03038 -0.0314,2.06687 0.004,3.0918 0.0177,0.51247 0.0499,1.02068 0.10352,1.52539 0.0536,0.50471 0.12853,1.00536 0.23438,1.49805 0.10585,0.49268 0.24354,0.97868 0.41796,1.45507 0.17443,0.4764 0.38718,0.94261 0.64649,1.39844 0.30984,0.54467 0.63701,1.08515 0.98242,1.61133 0.34541,0.52618 0.70793,1.03848 1.08789,1.5293 0.37996,0.49082 0.77791,0.95986 1.19141,1.39843 0.41349,0.43858 0.84304,0.84734 1.28906,1.2168 0.44602,0.36946 0.90724,0.69896 1.38477,0.98242 0.23876,0.14173 0.48206,0.27161 0.72851,0.38868 0.24645,0.11706 0.49599,0.2222 0.75,0.3125 0.25401,0.0903 0.51199,0.1671 0.77344,0.22851 0.26144,0.0614 0.52617,0.10631 0.79492,0.13672 0.26875,0.0304 0.54243,0.0457 0.81836,0.043 0.27593,-0.003 0.55491,-0.0226 0.83789,-0.0605 0.42863,-0.0574 0.85745,-0.13215 1.2832,-0.22461 0.42575,-0.0925 0.84809,-0.20206 1.26758,-0.33398 0.41949,-0.13192 0.83624,-0.28514 1.2461,-0.46094 0.40986,-0.1758 0.81408,-0.37551 1.21093,-0.59961 0.39686,-0.22409 0.78555,-0.4732 1.16602,-0.75 0.38047,-0.2768 0.75257,-0.58013 1.11328,-0.91406 0.36071,-0.33393 0.7093,-0.69828 1.04687,-1.09375 0.33758,-0.39547 0.66354,-0.82178 0.97461,-1.2832 0.19353,-0.28707 0.38286,-0.61645 0.56836,-0.97461 0.18551,-0.35817 0.36698,-0.74506 0.54493,-1.14844 0.35588,-0.80676 0.69699,-1.6794 1.02539,-2.51172 0.32839,-0.83232 0.64464,-1.62458 0.94921,-2.27539 0.15229,-0.32541 0.3022,-0.61622 0.44922,-0.85742 0.14703,-0.24121 0.29138,-0.43333 0.4336,-0.56446 0.0682,0.49576 0.15645,0.9793 0.26367,1.44922 0.10726,-0.46992 0.19556,-0.95346 0.26367,-1.44922 0.14222,0.13113 0.28651,0.32325 0.43359,0.56446 0.14709,0.2412 0.29683,0.53201 0.44922,0.85742 0.3048,0.65081 0.62054,1.44307 0.94922,2.27539 0.32869,0.83232 0.67124,1.70496 1.02735,2.51172 0.17805,0.40338 0.35935,0.79027 0.54492,1.14844 0.18557,0.35816 0.37483,0.68754 0.56836,0.97461 0.31107,0.46142 0.63508,0.88773 0.97265,1.2832 0.33758,0.39547 0.68812,0.75982 1.04883,1.09375 0.36071,0.33393 0.73281,0.63726 1.11328,0.91406 0.38047,0.2768 0.76917,0.52591 1.16602,0.75 0.39685,0.2241 0.80108,0.42381 1.21094,0.59961 0.40986,0.1758 0.8266,0.32902 1.24609,0.46094 0.41949,0.13192 0.84183,0.24152 1.26758,0.33398 0.42575,0.0925 0.85457,0.1672 1.2832,0.22461 0.28298,0.0379 0.56198,0.0579 0.83789,0.0605 0.27592,0.003 0.54769,-0.0126 0.81641,-0.043 0.26872,-0.0304 0.53352,-0.0753 0.79492,-0.13672 0.2614,-0.0614 0.51948,-0.13822 0.77344,-0.22851 0.25395,-0.0903 0.50556,-0.19544 0.75195,-0.3125 0.24639,-0.11707 0.48787,-0.24695 0.72656,-0.38868 0.4774,-0.28346 0.93889,-0.61296 1.38477,-0.98242 0.44587,-0.36946 0.8757,-0.77822 1.28906,-1.2168 0.41336,-0.43857 0.81156,-0.90761 1.19141,-1.39843 0.37985,-0.49082 0.74254,-1.00312 1.08789,-1.5293 0.34534,-0.52618 0.67258,-1.06666 0.98242,-1.61133 0.25931,-0.45583 0.472,-0.92204 0.64648,-1.39844 0.17449,-0.47639 0.31006,-0.96239 0.41602,-1.45507 0.10596,-0.49269 0.1826,-0.99334 0.23633,-1.49805 0.0537,-0.50471 0.0857,-1.01292 0.10351,-1.52539 0.0356,-1.02493 0.0143,-2.06142 0.004,-3.0918 -0.005,-0.51519 -0.008,-1.02891 0,-1.53906 0.008,-0.51015 0.0274,-1.01672 0.0645,-1.51758 0.10023,-0.0225 0.20412,-0.0245 0.3125,-0.006 0.10839,0.0187 0.22,0.0583 0.33594,0.11328 0.23188,0.10998 0.47793,0.2859 0.73633,0.51172 0.2584,0.22582 0.53052,0.50023 0.81055,0.80274 0.28002,0.3025 0.56848,0.63457 0.86523,0.97461 0.29675,0.34003 0.60159,0.68894 0.91016,1.02734 0.30857,0.3384 0.62201,0.66527 0.9375,0.96289 0.31549,0.29762 0.63171,0.56553 0.94921,0.7832 0.15876,0.10884 0.31823,0.20561 0.47657,0.28711 0.15834,0.0815 0.3173,0.14799 0.47461,0.19727 0.72637,0.22756 1.45615,0.41714 2.18945,0.57226 0.7333,0.15513 1.46916,0.27598 2.20703,0.36329 0.73787,0.0873 1.47674,0.14191 2.2168,0.16601 0.74006,0.0241 1.48082,0.0169 2.2207,-0.0176 0.73988,-0.0345 1.47947,-0.0971 2.2168,-0.18554 0.73732,-0.0885 1.47268,-0.20203 2.20508,-0.33985 0.7324,-0.13781 1.46239,-0.29986 2.1875,-0.48242 0.7251,-0.18255 1.44472,-0.38669 2.16015,-0.60937 0.45415,-0.14136 0.92307,-0.30777 1.39453,-0.50196 0.47147,-0.19418 0.94677,-0.41576 1.41602,-0.66797 0.46925,-0.2522 0.93142,-0.5342 1.37891,-0.84961 0.44749,-0.31541 0.87896,-0.66306 1.28515,-1.04687 0.4062,-0.38381 0.78745,-0.80433 1.13281,-1.26172 0.17268,-0.2287 0.33643,-0.46678 0.49024,-0.71484 0.15381,-0.24807 0.29719,-0.50536 0.42969,-0.77344 0.13249,-0.26808 0.25454,-0.54719 0.36328,-0.83594 0.10873,-0.28875 0.20457,-0.58837 0.28711,-0.89844 0.0825,-0.31006 0.15118,-0.63086 0.20507,-0.96289 0.0539,-0.33202 0.0944,-0.67465 0.11719,-1.02929 0.0249,-0.38775 0.0213,-0.75008 -0.006,-1.08985 -0.0272,-0.33976 -0.078,-0.65663 -0.15234,-0.95312 -0.0744,-0.29649 -0.17236,-0.57215 -0.28906,-0.83008 -0.11671,-0.25793 -0.25211,-0.49858 -0.40625,-0.72266 -0.15414,-0.22408 -0.32699,-0.432 -0.51368,-0.62695 -0.18668,-0.19494 -0.38721,-0.37635 -0.60156,-0.54687 -0.21434,-0.17053 -0.44257,-0.32966 -0.67969,-0.48047 -0.23711,-0.15082 -0.48328,-0.29387 -0.73828,-0.42969 -0.50998,-0.27164 -1.05134,-0.51787 -1.60351,-0.75781 -0.55217,-0.23994 -1.11664,-0.47281 -1.67188,-0.71875 -0.55523,-0.24595 -1.1019,-0.50526 -1.62109,-0.79493 -0.25959,-0.14483 -0.51261,-0.29615 -0.75586,-0.45898 -0.24325,-0.16283 -0.47525,-0.33594 -0.69727,-0.52148 -1.35515,-1.13254 -2.682,-2.29788 -3.98242,-3.5 -1.30041,-1.20212 -2.57469,-2.44111 -3.82812,-3.72071 -1.25343,-1.27959 -2.48502,-2.59987 -3.69922,-3.96484 -1.2142,-1.36497 -2.41103,-2.77614 -3.59375,-4.23438 -0.92577,-1.14142 -1.84257,-2.29668 -2.75,-3.46484 z"
       style="display:inline;opacity:1;fill:#2ec27e;stroke-width:11.3305;stroke-linecap:round;stroke-linejoin:round"
       id="path202" /><path
       d="m 321.00586,639.5625 c -0.61782,1.06701 -1.20271,2.1612 -1.76367,3.27734 -0.54783,1.09003 -1.07275,2.20231 -1.58203,3.32618 0.78141,-0.16062 1.56593,-0.30701 2.35351,-0.43165 0.83008,-0.13135 1.66293,-0.24173 2.49805,-0.33203 0.47248,-0.0511 0.9463,-0.0795 1.41992,-0.11718 -0.38082,-0.82044 -0.75937,-1.64408 -1.16211,-2.44532 -0.56102,-1.11614 -1.14585,-2.21033 -1.76367,-3.27734 z"
       style="display:inline;opacity:1;fill:#2ec27e;stroke-width:11.3305;stroke-linecap:round;stroke-linejoin:round"
       id="path200" /><path
       d="m 323.93164,645.28516 c -0.47362,0.0376 -0.94744,0.0661 -1.41992,0.11718 -0.83512,0.0903 -1.66797,0.20068 -2.49805,0.33203 -0.78758,0.12464 -1.5721,0.27103 -2.35351,0.43165 -0.0122,0.0269 -0.0249,0.0531 -0.0371,0.0801 -0.52074,1.15147 -1.02629,2.31727 -1.52344,3.49024 -0.49715,1.17297 -0.98637,2.35253 -1.47656,3.5332 -0.4902,1.18067 -0.98059,2.3606 -1.48047,3.53516 -0.49989,1.17455 -1.00895,2.34342 -1.53516,3.49804 -0.52621,1.15463 -1.0695,2.29513 -1.63867,3.41602 -0.56917,1.12089 -1.1642,2.22159 -1.79297,3.29492 -0.79494,1.35701 -1.59839,2.70545 -2.41211,4.04297 -0.81371,1.33752 -1.63816,2.66561 -2.4707,3.98242 -0.83254,1.31682 -1.67397,2.62307 -2.52539,3.91797 -0.85143,1.2949 -1.71167,2.57783 -2.58203,3.84961 -0.87037,1.27178 -1.75126,2.53184 -2.64063,3.7793 -0.88936,1.24746 -1.78689,2.4812 -2.69531,3.70312 -0.90842,1.22193 -1.82637,2.43177 -2.75391,3.62696 -0.92753,1.19518 -1.86579,2.37573 -2.8125,3.54296 -0.43317,0.53409 -0.85481,1.01237 -1.2832,1.52735 0.11276,0.17841 0.22582,0.35701 0.36523,0.51953 0.18748,0.21853 0.39728,0.42382 0.62696,0.61523 0.22968,0.19142 0.47911,0.36901 0.74414,0.53516 0.26503,0.16615 0.54633,0.32015 0.83984,0.46289 0.29352,0.14274 0.59893,0.27334 0.91406,0.39453 0.31514,0.12119 0.64082,0.23249 0.97071,0.33399 0.65978,0.20299 1.34191,0.36854 2.01953,0.5039 0.67762,0.13537 1.34968,0.24162 1.99023,0.32422 0.64056,0.0826 1.25025,0.1428 1.79883,0.1875 0.97563,0.0795 1.99013,0.13727 3.02734,0.16602 1.03722,0.0287 2.09658,0.0271 3.16016,-0.0137 1.06358,-0.0408 2.13082,-0.12083 3.18555,-0.25 0.52736,-0.0646 1.05176,-0.14027 1.57031,-0.23046 0.51855,-0.0902 1.03178,-0.19434 1.53711,-0.3125 0.50533,-0.11817 1.00253,-0.25191 1.49023,-0.40039 0.48771,-0.14849 0.96597,-0.313 1.43164,-0.49415 0.46568,-0.18114 0.91818,-0.37758 1.35743,-0.59375 0.43925,-0.21616 0.86501,-0.45153 1.27343,-0.70507 0.40843,-0.25354 0.80064,-0.5251 1.17383,-0.81836 0.37319,-0.29326 0.727,-0.60803 1.06055,-0.94336 0.33355,-0.33533 0.64603,-0.69252 0.93555,-1.07227 0.28951,-0.37975 0.5558,-0.78246 0.79687,-1.20898 0.10275,-0.18179 0.20983,-0.32959 0.31836,-0.44727 0.10853,-0.11767 0.21988,-0.20375 0.33398,-0.26367 0.11411,-0.0599 0.23015,-0.093 0.34961,-0.10156 0.11947,-0.009 0.24258,0.006 0.36719,0.043 0.12461,0.0365 0.25131,0.0947 0.38086,0.16992 0.12955,0.0752 0.26026,0.16789 0.39453,0.27539 0.26855,0.215 0.54781,0.48881 0.83399,0.79492 0.57234,0.61223 1.17783,1.35399 1.81054,2.02539 0.31636,0.3357 0.63984,0.65356 0.96875,0.92774 0.16446,0.13709 0.32882,0.26478 0.4961,0.37695 0.16728,0.11217 0.33597,0.21012 0.50586,0.29101 0.44182,0.21038 0.88794,0.39829 1.33593,0.56641 0.44799,0.16812 0.89818,0.31553 1.35157,0.44336 0.45338,0.12783 0.90918,0.23665 1.36718,0.32617 0.45801,0.0895 0.919,0.15972 1.38086,0.21289 0.46187,0.0532 0.92568,0.0886 1.39063,0.10742 0.46495,0.0188 0.93117,0.0214 1.39844,0.008 0.46726,-0.0136 0.93548,-0.0439 1.40429,-0.0879 0.46882,-0.044 0.93861,-0.10136 1.40821,-0.17383 0.93919,-0.14495 1.87872,-0.34487 2.8164,-0.5918 0.93769,-0.24693 1.87271,-0.54186 2.80274,-0.875 0.93003,-0.33314 1.85526,-0.70579 2.77148,-1.10937 0.91622,-0.40358 1.82445,-0.83668 2.7207,-1.29493 0.43799,-0.22393 0.85161,-0.47511 1.25,-0.74414 0.3984,-0.26902 0.78119,-0.55756 1.1543,-0.85546 0.74623,-0.59582 1.45651,-1.23166 2.1875,-1.84571 0.069,-0.058 0.14148,-0.11239 0.21094,-0.16992 -0.0205,-0.0264 -0.042,-0.0517 -0.0625,-0.0781 -0.92754,-1.19519 -1.84549,-2.40503 -2.75391,-3.62696 -0.90842,-1.22192 -1.80594,-2.45566 -2.69531,-3.70312 -0.88937,-1.24746 -1.77026,-2.50752 -2.64063,-3.7793 -0.87036,-1.27178 -1.7306,-2.55471 -2.58203,-3.84961 -0.85142,-1.2949 -1.6948,-2.60115 -2.52734,-3.91797 -0.83254,-1.31681 -1.65504,-2.6449 -2.46875,-3.98242 -0.81371,-1.33752 -1.61716,-2.68596 -2.41211,-4.04297 -0.62876,-1.07333 -1.22374,-2.17403 -1.79297,-3.29492 -0.56923,-1.12089 -1.11235,-2.26139 -1.63867,-3.41602 -0.52632,-1.15462 -1.03709,-2.32349 -1.53711,-3.49804 -0.50002,-1.17456 -0.99013,-2.35449 -1.48047,-3.53516 -0.49034,-1.18067 -0.97928,-2.36023 -1.47656,-3.5332 -0.49728,-1.17297 -1.00259,-2.33877 -1.52344,-3.49024 -0.14695,-0.32487 -0.30736,-0.63848 -0.45703,-0.96093 z"
       style="opacity:1;fill:#26a269;stroke-width:8.29228;stroke-linecap:round;stroke-linejoin:round"
       id="path201" /><path
       style="display:inline;opacity:1;fill:#33d17a;fill-opacity:1;stroke:none;stroke-width:8.29228;stroke-linecap:round;stroke-linejoin:round;stroke-dasharray:none;stroke-opacity:1"
       d="m 320.40234,621.12891 c -4.17003,5.41904 -6.58031,11.97655 -10.82422,17.42773 -5.36556,6.89192 -11.23706,13.40003 -17.62695,19.32813 -3.99144,3.703 -9.85242,4.21195 -14.42578,7.08789 -2.99698,1.88462 -6.86994,4.43251 -6.5332,8.37109 0.30797,3.60225 4.10656,5.34069 7.17187,6.05859 4.82889,1.13094 9.95084,1.49362 14.85352,0.33789 2.12357,-0.50059 4.39121,-3.81853 5.74414,-3.58984 0.24984,2.54371 -0.51195,5.31969 1.23828,7.63477 2.0913,2.76622 5.15652,5.32838 8.97656,4.94336 2.8931,-0.29158 5.75393,-1.2503 7.85352,-3.59375 1.30622,-1.45794 2.3897,-4.62313 3.34961,-5.28907 0.0575,0.31473 0.13219,0.6216 0.22265,0.91992 0.0905,-0.29832 0.16519,-0.60519 0.22266,-0.91992 0.95991,0.66594 2.04534,3.83113 3.35156,5.28907 2.09959,2.34345 4.96042,3.30217 7.85352,3.59375 3.82004,0.38502 6.88331,-2.17714 8.97461,-4.94336 1.75023,-2.31508 0.99039,-5.09106 1.24023,-7.63477 1.35293,-0.22869 3.62057,3.08925 5.74414,3.58984 4.90268,1.15573 10.02463,0.79305 14.85352,-0.33789 3.06532,-0.7179 6.86195,-2.45634 7.16992,-6.05859 0.33674,-3.93858 -3.53623,-6.48647 -6.5332,-8.37109 -4.57336,-2.87594 -10.43239,-3.38489 -14.42383,-7.08789 -6.38988,-5.9281 -12.26139,-12.43621 -17.62695,-19.32813 -4.24391,-5.45118 -6.65614,-12.00869 -10.82618,-17.42773 z"
       id="path194"
       sodipodi:nodetypes="ccccccccccccccccccc" /><path
       d="m 304.69062,796.53213 c -0.17321,0 -0.34314,0.008 -0.51172,0.0254 -0.16858,0.017 -0.33492,0.043 -0.49804,0.0762 -0.16312,0.0332 -0.32364,0.0745 -0.48047,0.12305 -0.15684,0.0486 -0.30926,0.10485 -0.45899,0.16797 -0.14972,0.0631 -0.29571,0.13215 -0.4375,0.20898 -0.14179,0.0768 -0.28103,0.16028 -0.41406,0.25 -0.13303,0.0897 -0.26133,0.18728 -0.38477,0.28907 -0.12343,0.10179 -0.24049,0.20924 -0.35351,0.32226 -0.11303,0.11303 -0.22048,0.23008 -0.32227,0.35352 -0.10178,0.12344 -0.19934,0.25174 -0.28906,0.38476 -0.0897,0.13303 -0.17317,0.27228 -0.25,0.41407 -0.0768,0.14179 -0.14587,0.28777 -0.20898,0.4375 -0.0631,0.14972 -0.1194,0.30215 -0.16797,0.45898 -0.0486,0.15684 -0.0898,0.31735 -0.12305,0.48047 -0.0332,0.16312 -0.0591,0.32947 -0.0762,0.49805 -0.017,0.16858 -0.0254,0.3385 -0.0254,0.51172 v 7.10937 c 0,0.17321 0.008,0.34509 0.0254,0.51367 0.017,0.16858 0.043,0.33298 0.0762,0.4961 0.0332,0.16312 0.0745,0.32363 0.12305,0.48046 0.0486,0.15684 0.10485,0.31122 0.16797,0.46094 0.0631,0.14973 0.13215,0.29571 0.20898,0.4375 0.0768,0.14179 0.16028,0.27909 0.25,0.41211 0.0897,0.13303 0.18728,0.26133 0.28906,0.38477 0.10179,0.12344 0.20924,0.24244 0.32227,0.35547 0.11302,0.11302 0.23008,0.22047 0.35351,0.32226 0.12344,0.10179 0.25174,0.19739 0.38477,0.28711 0.13303,0.0897 0.27227,0.17317 0.41406,0.25 0.14179,0.0768 0.28778,0.14782 0.4375,0.21094 0.14973,0.0631 0.30215,0.11939 0.45899,0.16797 0.0472,0.0146 0.0967,0.0238 0.14453,0.0371 v 18.32031 c 0,0.0729 0.007,0.14676 0.0195,0.21875 0.0128,0.072 0.0314,0.14192 0.0566,0.21289 0.0253,0.071 0.0563,0.14302 0.0937,0.21289 0.0374,0.0699 0.0815,0.13836 0.13086,0.20703 0.0986,0.13735 0.22096,0.27224 0.36523,0.4043 0.14427,0.13206 0.31059,0.26065 0.49805,0.38672 0.18746,0.12607 0.39681,0.24975 0.625,0.36914 0.22819,0.11939 0.47572,0.23564 0.74219,0.34765 0.26647,0.11202 0.55121,0.22028 0.85351,0.32422 0.30231,0.10394 0.62135,0.20366 0.95703,0.29883 0.33569,0.0952 0.68809,0.18578 1.05469,0.27149 0.36661,0.0857 0.7475,0.16663 1.14258,0.24218 0.39508,0.0756 0.80351,0.14429 1.22461,0.20899 0.4211,0.0647 0.85611,0.12458 1.30078,0.17773 0.44467,0.0531 0.89945,0.0997 1.36524,0.14063 0.46579,0.0409 0.94132,0.0756 1.42578,0.10351 0.48445,0.028 0.97784,0.0501 1.47851,0.0645 0.50067,0.0143 1.00901,0.0215 1.52344,0.0215 h 6.61328 c 0.51443,0 1.02277,-0.007 1.52344,-0.0215 0.50067,-0.0143 0.99406,-0.0365 1.47851,-0.0645 0.48446,-0.028 0.96,-0.0626 1.42579,-0.10351 0.46579,-0.0409 0.92251,-0.0875 1.36718,-0.14063 0.44468,-0.0532 0.87773,-0.11304 1.29883,-0.17773 0.4211,-0.0647 0.82953,-0.13344 1.22461,-0.20899 0.39508,-0.0756 0.77597,-0.15648 1.14258,-0.24218 0.36661,-0.0857 0.71901,-0.17632 1.05469,-0.27149 0.33568,-0.0952 0.65473,-0.19489 0.95703,-0.29883 0.3023,-0.10394 0.58899,-0.2122 0.85547,-0.32422 0.26647,-0.11201 0.51399,-0.22826 0.74218,-0.34765 0.22819,-0.11939 0.43559,-0.24307 0.62305,-0.36914 0.18746,-0.12607 0.35378,-0.25466 0.49805,-0.38672 0.14427,-0.13206 0.2666,-0.26695 0.36523,-0.4043 0.0493,-0.0687 0.0934,-0.13716 0.13086,-0.20703 0.0375,-0.0699 0.0685,-0.14192 0.0937,-0.21289 0.0253,-0.071 0.0439,-0.1409 0.0566,-0.21289 0.0128,-0.072 0.0195,-0.14583 0.0195,-0.21875 v -18.33789 c 0.0263,-0.008 0.054,-0.0114 0.0801,-0.0195 0.15684,-0.0486 0.30926,-0.10485 0.45899,-0.16797 0.14972,-0.0631 0.29571,-0.13411 0.4375,-0.21094 0.14178,-0.0768 0.27908,-0.16028 0.4121,-0.25 0.13303,-0.0897 0.26328,-0.18532 0.38672,-0.28711 0.12344,-0.10179 0.24049,-0.20924 0.35352,-0.32226 0.11303,-0.11303 0.22048,-0.23203 0.32226,-0.35547 0.10179,-0.12344 0.19739,-0.25174 0.28711,-0.38477 0.0897,-0.13302 0.17512,-0.27032 0.25196,-0.41211 0.0768,-0.14179 0.14586,-0.28777 0.20898,-0.4375 0.0631,-0.14972 0.11939,-0.3041 0.16797,-0.46094 0.0486,-0.15683 0.0898,-0.31734 0.12305,-0.48046 0.0332,-0.16312 0.0591,-0.32752 0.0762,-0.4961 0.017,-0.16858 0.0254,-0.34046 0.0254,-0.51367 v -7.10937 c 0,-0.17322 -0.008,-0.34314 -0.0254,-0.51172 -0.017,-0.16858 -0.043,-0.33493 -0.0762,-0.49805 -0.0332,-0.16312 -0.0745,-0.32363 -0.12305,-0.48047 -0.0486,-0.15683 -0.10485,-0.30926 -0.16797,-0.45898 -0.0631,-0.14973 -0.13215,-0.29571 -0.20898,-0.4375 -0.0768,-0.14179 -0.16223,-0.28104 -0.25196,-0.41407 -0.0897,-0.13302 -0.18532,-0.26132 -0.28711,-0.38476 -0.10178,-0.12344 -0.20923,-0.24049 -0.32226,-0.35352 -0.11303,-0.11302 -0.23008,-0.22047 -0.35352,-0.32226 -0.12344,-0.10179 -0.25369,-0.19934 -0.38672,-0.28907 -0.13302,-0.0897 -0.27032,-0.17316 -0.4121,-0.25 -0.14179,-0.0768 -0.28778,-0.14586 -0.4375,-0.20898 -0.14973,-0.0631 -0.30215,-0.11939 -0.45899,-0.16797 -0.15683,-0.0486 -0.31735,-0.0898 -0.48047,-0.12305 -0.16312,-0.0332 -0.32947,-0.0592 -0.49804,-0.0762 -0.16858,-0.017 -0.34046,-0.0254 -0.51368,-0.0254 z"
       style="display:inline;opacity:1;fill:#55351a;fill-opacity:1;stroke-width:8.29228;stroke-linecap:round;stroke-linejoin:round"
       id="path209" /><path
       style="display:inline;opacity:1;fill:none;fill-opacity:1;stroke:#4a2d14;stroke-width:4.392;stroke-linecap:round;stroke-linejoin:round;stroke-dasharray:none;stroke-opacity:1"
       d="m 308.03947,814.44352 c 2.73773,-0.055 5.45833,-0.63707 8.21129,-0.19381 1.42834,0.22998 2.85232,-0.132 4.27222,-0.29892 2.81498,-0.33094 5.63898,-0.54991 8.51204,-0.0958 1.35507,0.21419 3.04719,0.80108 4.26414,-0.1013"
       id="path210"
       sodipodi:nodetypes="csssc"
       inkscape:original-d="m 308.03947,814.44352 c 1.8622,0.0102 4.92901,-0.59466 6.72108,-0.37836 3.57674,0.43169 1.50001,0.28629 5.08091,-0.0437 2.39998,-0.22113 5.06331,-0.80216 7.4765,-0.51805 1.26882,0.14938 4.82732,1.37909 5.9812,0.2503"
       inkscape:path-effect="#path-effect210" /></g><g
     inkscape:groupmode="layer"
     id="layer4"
     inkscape:label="STAR"
     transform="translate(-253.71206,-609.48904)"><path
       sodipodi:type="star"
       style="opacity:1;fill:#f5c211;fill-opacity:1;stroke:#f5c211;stroke-width:4.392;stroke-linecap:round;stroke-linejoin:round;stroke-dasharray:none;stroke-opacity:1"
       id="path211"
       inkscape:flatsided="false"
       sodipodi:sides="5"
       sodipodi:cx="308.60345"
       sodipodi:cy="611.12341"
       sodipodi:r1="18.012995"
       sodipodi:r2="10.642931"
       sodipodi:arg1="-0.024428418"
       sodipodi:arg2="0.54249095"
       inkscape:rounded="0"
       inkscape:randomized="0"
       d="m 326.61108,610.68343 -8.89275,5.93462 -3.13176,11.49566 -8.39217,-6.6236 -11.9008,0.57387 3.7061,-10.02823 -4.22333,-11.141 10.68266,0.42582 9.29063,-7.45938 2.89616,10.2914 z"
       inkscape:transform-center-x="1.9297382"
       inkscape:transform-center-y="-1.5574581"
       transform="matrix(0.64484886,0,0,0.67349697,121.01087,211.00422)" /></g><g
     inkscape:groupmode="layer"
     id="layer5"
     inkscape:label="DECO"
     transform="translate(-253.71206,-609.48904)"><ellipse
       style="opacity:1;fill:#f5c211;fill-opacity:1;stroke:#f5c211;stroke-width:4.392;stroke-linecap:round;stroke-linejoin:round;stroke-dasharray:none;stroke-opacity:1"
       id="path212"
       cx="290.233"
       cy="668.60822"
       rx="4.9024076"
       ry="5.2969289" /><ellipse
       style="opacity:1;fill:#f5c211;fill-opacity:1;stroke:#f5c211;stroke-width:4.392;stroke-linecap:round;stroke-linejoin:round;stroke-dasharray:none;stroke-opacity:1"
       id="path213"
       cx="339.17169"
       cy="650.64087"
       rx="5.5724468"
       ry="5.3595023" /><ellipse
       style="opacity:1;fill:#f5c211;fill-opacity:1;stroke:#f5c211;stroke-width:4.392;stroke-linecap:round;stroke-linejoin:round;stroke-dasharray:none;stroke-opacity:1"
       id="path214"
       cx="337.00378"
       cy="727.9353"
       rx="5.3861809"
       ry="5.3886065" /><ellipse
       style="opacity:1;fill:#f5c211;fill-opacity:1;stroke:#f5c211;stroke-width:4.392;stroke-linecap:round;stroke-linejoin:round;stroke-dasharray:none;stroke-opacity:1"
       id="path215"
       cx="264.09372"
       cy="763.91364"
       rx="5.7043848"
       ry="5.234355" /></g><g
     inkscape:groupmode="layer"
     id="layer6"
     inkscape:label="GUIRLANDES"
     transform="translate(-253.71206,-609.48904)"><path
       style="opacity:1;fill:none;fill-opacity:1;stroke:#e01b24;stroke-width:4.392;stroke-linecap:round;stroke-linejoin:round;stroke-dasharray:none;stroke-opacity:1"
       d="m 301.35978,647.94146 c 0.0216,2.1564 -1.88415,0.80992 -1.08829,4.92063 0.44647,2.30607 3.11262,2.83898 5.63504,2.52642 1.88155,-0.23314 3.12594,-6.40394 1.22109,-4.01653 -1.81418,2.27377 -0.29023,5.47935 0.90309,7.831 1.78949,3.52654 5.49851,0.90954 6.08864,-2.22744 0.58452,-3.10715 -2.73616,-2.37651 -2.8182,0.35109 -0.086,2.85963 1.64931,7.12754 4.75291,6.79957 3.14421,-0.33226 6.41047,-8.83431 4.30991,-7.02018 -1.50032,1.29574 0.41733,5.02268 1.24316,6.95047 1.51207,3.52967 4.86825,1.73219 4.72259,-2.311 -0.0426,-1.18137 -0.88396,-3.84662 -1.30764,-1.09555 -0.56111,3.64333 1.09971,8.25808 4.50736,9.54307 3.22508,1.21615 2.01088,-7.87389 2.05707,-5.9637 0.0788,3.25819 2.91742,8.32387 6.22691,7.14888 3.23937,-1.1501 -1.61333,-10.04662 -0.90027,-7.65284 0.98564,3.30886 3.70816,7.09421 7.31532,7.41206 4.25022,0.37451 -1.06372,-6.12634 -0.61864,-5.0923 1.10073,2.55727 3.33787,6.5397 6.14815,5.83294 3.41222,-0.85814 -0.1529,-9.14768 -0.79394,-6.64875 -0.51844,2.02099 5.82302,7.35768 7.21547,4.1449 0.97075,-2.23981 0.0389,-8.72424 -2.2859,-7.52858 -3.86778,1.98924 0.47866,4.46448 2.72474,5.70972 1.54133,0.85453 3.4927,-2.31101 3.05809,-3.59212"
       id="path216"
       inkscape:path-effect="#path-effect216"
       inkscape:original-d="m 301.35978,647.94146 c -0.69176,1.2676 2.90958,4.72311 0.57949,4.65083 -2.7656,-0.0858 -1.52649,0.83389 -0.94685,1.66183 3.07348,4.39007 9.40189,-1.33927 7.1764,-3.05883 -0.63492,-0.49057 -1.56901,0.5795 -1.71778,1.1467 -0.55886,2.13062 0.0251,4.5027 1.20555,6.32139 4.01305,6.1828 7.34514,-1.50754 6.32268,-3.09084 -0.95725,-1.48233 -1.70565,-0.8888 -2.40593,0.66357 -1.1819,2.62 1.42356,7.87218 4.48072,7.89009 2.4871,0.0146 3.93092,-3.18835 4.30998,-5.24163 0.11572,-0.6268 0.27687,-2.12094 -0.31561,-1.88594 -1.08268,0.42943 0.8632,10.05869 5.04986,8.81269 1.88405,-0.56071 1.55511,-2.58342 1.23143,-4.06583 -0.1746,-0.79964 -0.4285,-3.0165 -0.8382,-2.30794 -1.73925,3.008 0.58905,8.02549 2.94403,10.03215 4.22846,3.60302 4.78816,-4.37325 3.33726,-5.39006 -0.39885,-0.27952 -0.15757,1.61377 0.26388,2.60189 0.8788,2.06041 4.04664,6.27835 6.83491,4.19389 1.58167,-1.18242 -0.25516,-6.55944 -1.86783,-7.17123 -0.34163,-0.1296 0.12951,1.29292 1.10207,2.73578 1.33812,1.98517 4.90152,6.17192 7.80764,4.16769 1.3875,-0.95689 -2.15353,-5.12485 -2.1938,-5.08447 -0.90913,0.9116 3.41734,6.04211 5.63454,6.33304 2.2673,0.29749 2.69934,-2.38756 1.91957,-3.99016 -0.99928,-2.05375 -2.56521,-2.80647 -2.57667,-2.75906 -0.40885,1.69033 4.23888,5.7927 6.69004,4.87201 2.70472,-1.01594 0.41742,-7.24801 -0.6778,-8.1142 -0.93481,-0.73932 -2.70554,1.8434 -2.61807,2.14206 0.55672,1.90078 3.54298,3.23915 5.20509,3.79225 0.56643,0.18849 3.17362,-2.87702 2.38006,-3.83591"
       sodipodi:nodetypes="cssssssssssssssssssssssscssssc" /><path
       style="opacity:1;fill:none;fill-opacity:1;stroke:#e01b24;stroke-width:4.392;stroke-linecap:round;stroke-linejoin:round;stroke-dasharray:none;stroke-opacity:1"
       d="m 275.35502,710.3074 c -2.46843,1.02372 -3.95344,9.43165 -0.17314,8.33977 1.98976,-0.57472 3.7617,-6.93532 3.25119,-6.02121 -2.07992,3.72425 1.9733,9.9679 5.20883,4.79134 1.03815,-1.66094 -0.53556,-10.14525 -1.13635,-7.19139 -0.68027,3.34465 1.35539,9.42102 5.37197,8.5143 3.14688,-0.71039 0.95952,-10.53223 0.56331,-7.13244 -0.35774,3.06965 4.01915,9.12177 6.66213,5.03953 1.17234,-1.81074 -2.13069,-7.63197 -1.64666,-6.76414 1.76202,3.15915 3.32488,8.6467 7.37674,8.22343 4.16336,-0.43491 -1.02982,-9.69758 -0.22876,-8.43048 1.81483,2.87068 3.65511,7.61604 7.5283,7.26118 3.73017,-0.34176 -0.6155,-8.02767 -0.37664,-7.21565 0.92708,3.15173 5.64509,8.20849 7.99873,5.35533 1.65265,-2.00341 -2.78904,-7.6331 -2.26923,-6.65968 1.60714,3.00963 5.02335,6.83338 8.65278,5.31803 2.63432,-1.09987 -1.62067,-7.27559 -1.06805,-6.0912 1.31959,2.82814 10.10925,7.30719 8.95557,1.73099 -0.31038,-1.50019 -3.31916,-5.42283 -1.22211,-2.13833 1.81871,2.84854 8.65948,5.25326 8.16141,-0.55773 -0.20608,-2.40444 -4.59123,-4.30234 -1.9414,-0.93026 1.55532,1.97926 10.23094,4.63695 8.24938,0.34676 -0.61116,-1.32322 -4.33122,-6.23765 -2.49751,-2.129 1.30925,2.93354 10.27942,4.8266 7.42543,-0.28538 -0.82358,-1.47517 -5.02025,-4.31952 -1.75435,-1.55483 1.55614,1.31732 10.02988,4.35427 7.11493,0.71211 -1.14524,-1.43095 -3.34866,-4.36086 -0.33908,-1.79494 2.81569,2.40062 6.38755,1.42078 2.7028,-3.1926"
       id="path217"
       inkscape:path-effect="#path-effect217"
       inkscape:original-d="m 275.35502,710.3074 c -1.28155,0.54375 -0.96793,0.17025 -1.57808,1.85684 -0.86922,2.40271 -2.03293,10.27113 3.02164,5.12812 0.33536,-0.34122 2.45418,-4.7204 2.09032,-5.0932 -0.40129,-0.41114 -0.59176,1.01957 -0.66746,1.58908 -0.20708,1.55799 -0.18005,5.80159 2.32315,5.78297 4.08829,-0.0304 4.2252,-6.33357 3.53905,-8.92329 -0.21248,-0.80194 -1.15437,-1.72494 -1.57809,-0.42201 -1.26413,3.88722 3.98129,13.38422 7.46098,5.98669 0.57096,-1.21382 0.725,-3.38372 0.0155,-4.58097 -0.13911,-0.23474 -1.10203,-1.381 -1.44356,-0.45111 -0.7636,2.07908 2.45501,7.54902 5.0033,6.94713 3.14779,-0.7435 1.6728,-7.32662 -0.12935,-8.72829 -0.30584,-0.23788 0.0555,0.68787 1.10207,2.5204 1.30397,2.28324 2.81294,5.1555 5.50519,6.0158 4.75559,1.51964 2.68606,-7.03645 0.63123,-8.57404 -0.35423,-0.26506 -0.034,0.50733 0.79163,1.7899 1.29523,2.01204 3.75149,6.14565 6.69004,5.78587 2.72868,-0.33408 1.49713,-3.37616 1.02446,-4.93603 -0.22661,-0.74786 -0.55025,-1.75931 -1.02446,-2.4331 -0.10257,-0.14575 -0.44722,-0.48919 -0.43462,-0.31141 0.0903,1.273 0.70822,2.26903 1.53669,3.24509 0.79871,0.94101 1.78743,1.80057 2.90264,2.35161 0.74313,0.36719 1.84653,0.68346 2.7112,0.55588 3.0951,-0.45665 0.44477,-4.62396 -0.35701,-5.93721 -0.48708,-0.7978 -0.877,-1.39793 -0.97272,-1.35916 -0.31802,0.1288 0.56074,1.50094 1.40734,2.4913 1.56007,1.82498 3.63467,3.62174 6.2399,3.37607 3.14526,-0.2966 1.64543,-3.64074 0.86924,-5.38715 -0.44567,-1.00277 -1.03858,-1.69641 -1.03998,-1.69386 -0.81871,1.49122 7.13366,7.51007 8.89935,4.41508 0.96948,-1.69934 -0.75837,-3.57159 -1.80056,-4.75559 -0.19454,-0.22101 -0.79294,-0.87014 -0.60537,-0.6432 1.64495,1.99023 7.46252,6.55577 9.80482,3.08502 0.86985,-1.28891 -2.08491,-5.6054 -3.05269,-5.25618 -1.49843,0.54071 1.67149,2.68921 1.81609,2.78525 1.78513,1.18567 4.43124,2.49336 6.6383,1.79572 2.85669,-0.90299 -1.31788,-4.39205 -2.18344,-5.20962 -0.2671,-0.25229 -1.07766,-0.96205 -0.89511,-0.6432 1.50491,2.62866 6.29126,5.75518 9.24084,3.73987 1.38655,-0.94737 -2.25259,-4.26218 -2.65428,-4.62172 -0.32559,-0.29141 -0.66974,-0.56268 -1.02447,-0.81782 -0.0689,-0.0495 -0.27413,-0.16699 -0.238,-0.0902 0.66281,1.40847 7.73445,5.60242 8.86831,3.94068 0.90144,-1.32111 -1.99517,-3.59513 -2.23001,-4.86328 -0.0555,-0.29942 0.47007,0.38728 0.70884,0.57626 0.98947,0.78313 3.16913,2.46884 4.57386,1.89176 1.91277,-0.78579 -0.74053,-3.90275 -0.9365,-4.37724" /><path
       style="opacity:1;fill:none;fill-opacity:1;stroke:#e01b24;stroke-width:4.392;stroke-linecap:round;stroke-linejoin:round;stroke-dasharray:none;stroke-opacity:1"
       d="m 278.70781,742.0948 c -1.6561,1.77838 -5.98389,10.0575 -3.00103,8.57143 2.40394,-1.19764 5.87249,-10.23681 2.32738,-3.91191 -2.06145,3.67788 -3.29861,9.70926 3.353,5.53582 1.85694,-1.1651 5.87204,-9.7215 2.58481,-4.62751 -1.41742,2.19648 -3.33373,11.36373 1.78025,7.67855 1.36016,-0.98015 4.56335,-10.29576 1.40037,-5.50426 -2.00444,3.03648 -0.56215,12.2177 3.67976,6.22218 1.37099,-1.93777 1.26914,-6.55209 -0.38174,-1.80729 -1.13264,3.25533 0.69896,11.3254 4.58796,5.16817 1.34057,-2.12244 1.10144,-7.75323 0.76541,-2.60467 -0.15227,2.33318 2.75235,12.28549 4.24124,6.16274 0.5521,-2.27039 1.33247,-9.51607 1.26815,-3.1175 -0.0293,2.91152 3.50691,9.91724 4.3851,3.46248 0.39312,-2.88944 0.64686,-8.73847 0.71117,-2.72682 0.0316,2.95341 3.79441,11.74016 5.91117,5.13173 0.67089,-2.09449 0.58505,-10.93109 0.98584,-4.5089 0.19608,3.14188 6.04727,12.23785 5.77781,4.55036 -0.0773,-2.20635 -1.21408,-8.24896 0.64838,-2.91763 0.73703,2.10976 7.98578,9.88073 5.9398,4.41217 -0.62669,-1.67504 -1.81342,-9.27551 -0.41662,-3.62363 0.92264,3.73327 7.52629,10.99115 5.93934,2.86823 -0.36709,-1.87898 -2.99208,-6.90581 -0.0337,-2.82881 1.45794,2.00922 6.88828,9.89359 7.49459,6.05675 0.32976,-2.08682 -4.65411,-9.85944 -0.40549,-5.39167 1.71716,1.80574 8.21413,9.41817 7.64724,5.24745 -0.30289,-2.22844 -3.66206,-8.82823 -2.56757,-7.71662 2.41776,2.45559 10.40567,10.94692 10.21608,6.38565 -0.11861,-2.85345 -4.81016,-10.8676 -1.1389,-4.63155 1.3928,2.36583 10.90643,7.54544 8.11713,2.06369 -1.00123,-1.96769 -3.74447,-6.46139 -0.77247,-2.24175 1.66024,2.35721 11.28759,7.34016 8.751,1.41838 -0.88947,-2.07652 -4.02822,-8.26659 -1.09159,-2.9729 1.71148,3.08519 11.17357,8.29255 8.34229,1.22185 -1.0363,-2.58802 -5.04054,-9.26677 -1.71246,-3.32871 1.27093,2.26765 9.31309,5.90938 6.7459,0.77015 -0.92773,-1.85723 -7.59245,-8.07376 -3.6557,-3.18811 2.26052,2.80538 9.54089,4.06372 5.51317,-1.32158 -1.7347,-2.3194 -6.17812,-1.35258 -1.37739,-0.0377 1.04891,0.28728 4.92452,2.94896 4.54308,0.45915"
       id="path218"
       inkscape:path-effect="#path-effect218"
       inkscape:original-d="m 278.70781,742.0948 c -1.56565,2.09926 -4.85026,5.6354 -4.07715,8.71373 0.23198,0.9237 1.83914,-0.78414 2.39558,-1.55706 0.93981,-1.30543 1.29126,-2.94669 1.9144,-4.42963 0.13935,-0.33163 0.63251,-1.26143 0.37253,-1.01282 -0.87439,0.83613 -1.43438,3.6135 -1.71261,4.65664 -0.20529,0.76966 -0.41625,1.54113 -0.5381,2.32832 -1.77221,11.44913 9.15319,-4.49513 8.75448,-4.86328 -1.79433,-1.6568 -4.88165,10.61525 -2.18344,10.74811 2.11532,0.10417 3.65827,-4.12621 4.25824,-5.60252 0.63382,-1.55964 1.19139,-2.99769 0.63123,-2.94241 -2.30382,0.22735 -2.80873,10.27594 -0.22249,10.37266 1.80513,0.0675 2.86741,-3.17314 3.25965,-4.38597 0.21496,-0.66467 0.85187,-2.38694 0.22249,-2.08385 -2.36867,1.14067 -1.32845,7.15858 -0.48636,8.77486 0.0292,0.056 0.79171,1.74481 1.52634,1.38244 2.06184,-1.01704 2.7626,-4.29073 3.25447,-6.269 0.21593,-0.86842 0.1969,-1.84008 0.1604,-1.79572 -1.28064,1.55633 0.47393,8.38728 1.26247,10.06126 0.17405,0.3695 0.72528,1.18589 1.32455,0.98953 1.9265,-0.63122 1.55746,-8.28426 1.74883,-8.31501 0.36571,-0.0588 0.18211,0.71808 0.27422,1.07685 0.41416,1.61308 1.7177,7.87681 3.17169,8.34702 2.3073,0.74617 1.80984,-7.81557 1.62983,-8.97276 -0.17251,-1.10901 0.43339,2.20642 0.76058,3.28002 0.49535,1.62534 1.66055,7.2117 3.89089,7.79987 2.49778,0.65871 2.18078,-5.53856 2.12653,-6.70556 -0.10504,-2.2595 -0.49102,-3.16744 -0.24836,-3.1054 0.3886,0.0994 0.88169,2.00737 1.12795,2.63392 0.76397,1.94377 2.31355,7.14077 4.42898,7.94539 2.258,0.85885 1.02326,-7.26379 0.94685,-7.94539 -0.0321,-0.28608 -0.35244,-0.98359 -0.0931,-0.85857 0.82305,0.39683 0.74874,1.66723 1.14346,2.4913 1.03447,2.1597 2.23579,4.27992 3.85466,6.06237 1.55216,1.70898 2.39828,-0.0329 2.08514,-1.6502 -0.0643,-0.33205 -1.86817,-5.35602 -1.80056,-5.75095 0.0836,-0.4885 0.60623,0.78727 0.85889,1.21363 1.41434,2.38671 2.67767,5.22794 4.68768,7.17705 0.4157,0.40311 1.07905,1.1972 1.52635,0.82947 1.56499,-1.28661 -0.55933,-7.02686 -1.01412,-8.85635 -0.0237,-0.0954 -0.15104,-0.32983 -0.0621,-0.28813 0.41152,0.1929 0.48054,0.77156 0.7192,1.15834 1.51685,2.45824 3.11374,5.19549 5.34996,7.08973 0.24144,0.20452 1.98201,1.58778 2.49906,0.68104 1.01298,-1.77643 -1.65567,-6.21902 -1.8937,-8.28591 -0.0312,-0.27089 0.21116,0.22642 1.70744,2.11295 0.8758,1.10422 5.46872,7.19704 7.12466,6.78705 0.66103,-0.16366 0.61206,-1.12506 0.52258,-1.5396 -0.48131,-2.2296 -3.0014,-5.98849 -2.96991,-7.90174 0.008,-0.48045 0.71825,0.64136 1.03999,0.99827 0.41397,0.45922 0.81555,0.92969 1.23659,1.38244 1.74477,1.87616 4.51345,5.31052 7.4765,5.16887 2.56593,-0.12266 -1.33961,-5.8516 -1.84196,-6.66773 -0.2231,-0.36245 -0.44187,-0.72757 -0.66745,-1.08849 -0.0625,-0.1 -0.28233,-0.37488 -0.19662,-0.29395 2.64921,2.50137 4.95271,5.57089 8.5527,6.85982 7.39124,2.64632 -3.28307,-9.16959 -0.14487,-5.89356 1.60076,1.67106 8.21734,7.48061 10.72579,5.14558 0.82396,-0.76699 -2.94631,-6.45811 -3.61665,-7.43025 -0.52132,-0.756 0.87188,0.96505 1.91957,2.02564 1.03144,1.04414 6.96101,7.36933 8.76483,4.26665 1.15388,-1.98475 -2.80335,-6.67398 -3.61148,-7.82898 -0.25717,-0.36755 -1.10492,-1.40906 -0.86924,-1.02737 0.85824,1.38992 8.28418,8.46832 9.7272,5.28529 0.66004,-1.45592 -2.80378,-4.28755 -3.53387,-4.96806 -0.79546,-0.74143 -1.67713,-1.43934 -2.57668,-2.05474 -0.0586,-0.0401 -0.21274,-0.15058 -0.19661,-0.0815 0.27341,1.17121 8.0814,6.16583 8.74931,4.0309 0.53842,-1.72101 -1.46424,-4.21028 -2.94403,-4.77014 -0.62393,-0.23606 -2.33824,-0.84319 -1.98166,-0.2794 0.57486,0.9089 6.48869,3.76864 6.91252,2.84637 0.065,-0.14137 -0.0414,-0.677 -0.0414,-0.84402" /></g><g
     inkscape:groupmode="layer"
     id="layer7"
     inkscape:label="GIFT1"
     transform="translate(-253.71206,-609.48904)"><rect
       style="opacity:1;fill:#e01b24;fill-opacity:1;stroke:#e01b24;stroke-width:4.392;stroke-linecap:round;stroke-linejoin:round;stroke-dasharray:none;stroke-opacity:1"
       id="rect218"
       width="28.467596"
       height="29.613325"
       x="263.0491"
       y="803.79926"
       ry="2.4835417" /><rect
       style="opacity:1;fill:#f5c211;fill-opacity:1;stroke:#f5c211;stroke-width:3.50709;stroke-linecap:round;stroke-linejoin:round;stroke-dasharray:none;stroke-opacity:1"
       id="rect219"
       width="3.5650551"
       height="33.271835"
       x="275.26752"
       y="801.6864"
       ry="1.2335126"
       rx="0.066599585" /><path
       style="opacity:1;fill:none;fill-opacity:1;stroke:#f5c211;stroke-width:4.392;stroke-linecap:round;stroke-linejoin:round;stroke-dasharray:none;stroke-opacity:1"
       d="m 275.11498,802.07628 c -0.80891,2.19727 -3.56247,0.88593 -5.13635,0.44091 -2.89312,-0.81804 -5.07706,-3.06589 -7.15106,-5.16818 -1.27418,-1.29156 -1.17523,-3.22044 0.55124,-4.39809 2.11704,-1.44407 4.95979,-1.05855 6.9853,0.39206 2.64009,1.89076 4.01909,5.06457 6.39036,7.23579 0.69994,0.64089 0.13544,1.77091 0.21834,1.86859 1.5087,1.77776 3.54309,0.74228 5.29868,0.0635 2.62137,-1.01344 5.39561,-2.29389 7.00063,-4.70858 1.8758,-2.82207 -1.18631,-7.10333 -4.39566,-6.22782 -2.62775,0.71684 -3.85042,3.46364 -4.71565,5.7614 -0.80757,2.14469 -2.6962,3.5916 -3.78643,5.54903 -0.39215,0.70407 -0.7192,1.48941 -1.35253,2.01734"
       id="path220"
       inkscape:path-effect="#path-effect220"
       inkscape:original-d="m 275.11498,802.07628 c -0.19661,0.31335 -0.28701,0.72759 -0.58984,0.94006 -0.65388,0.45877 -1.60411,0.0495 -2.39558,-0.0582 -1.64249,-0.2235 -3.31742,-0.67715 -4.7446,-1.54542 -1.49879,-0.91183 -7.7817,-5.66105 -4.72908,-7.96868 5.1763,-3.91301 9.60679,0.99616 12.58845,4.96515 0.33964,0.4521 3.19241,4.03928 1.48495,3.88247 0.6571,0.39872 1.24385,0.94806 1.97131,1.19617 0.77368,0.26386 1.59378,-0.36731 2.38006,-0.59082 2.83892,-0.80697 8.74389,-3.43158 8.76484,-6.99369 0.0174,-2.95652 -3.26895,-5.53464 -6.01742,-3.90867 -2.28413,1.35129 -3.19428,4.75559 -4.47037,6.88892 -0.76898,1.28556 -1.76435,2.21248 -2.62842,3.40809 -0.45465,0.6291 -0.9701,2.04154 -1.70743,2.61062" /><path
       style="opacity:1;fill:none;fill-opacity:1;stroke:#f5c211;stroke-width:4.392;stroke-linecap:round;stroke-linejoin:round;stroke-dasharray:none;stroke-opacity:1"
       d="m 260.93292,812.68469 c 3.5874,-0.68086 7.21835,0.0359 10.83389,0.0444 5.42531,0.0128 10.85434,0.0488 16.26638,0.49194 1.70719,0.13977 3.47497,0.0914 5.1161,0.62812 0,0 0.12173,0.11087 0.12173,0.11087 0,0 -0.021,0.12164 -0.021,0.12164"
       id="path221"
       inkscape:path-effect="#path-effect221"
       inkscape:original-d="m 260.93292,812.68469 c 2.8738,-0.58909 5.76699,-0.0428 8.65101,0.0145 5.8075,0.11543 11.73429,-0.10222 17.51414,0.4744 0.30389,0.0303 6.67842,0.22977 6.15194,0.90804" /></g><g
     inkscape:groupmode="layer"
     id="g223"
     inkscape:label="GIFT2"
     transform="translate(-171.41887,-609.21255)"><rect
       style="opacity:1;fill:#f5c211;fill-opacity:1;stroke:#f5c211;stroke-width:4.44768;stroke-linecap:round;stroke-linejoin:round;stroke-dasharray:none;stroke-opacity:1"
       id="rect221"
       width="22.318459"
       height="38.736252"
       x="265.95551"
       y="794.43127"
       ry="3.2486422" /><rect
       style="opacity:1;fill:none;fill-opacity:1;stroke:#e01b24;stroke-width:3.52576;stroke-linecap:round;stroke-linejoin:round;stroke-dasharray:none;stroke-opacity:1"
       id="rect222"
       width="2.8207767"
       height="42.499878"
       x="275.53732"
       y="792.20184"
       ry="1.575631"
       rx="0.052695554" /><path
       style="opacity:1;fill:none;fill-opacity:1;stroke:#e01b24;stroke-width:4.392;stroke-linecap:round;stroke-linejoin:round;stroke-dasharray:none;stroke-opacity:1"
       d="m 275.11498,802.07628 c -0.80891,2.19727 -3.5638,0.8906 -5.13635,0.44091 -3.00542,-0.85942 -5.23822,-3.26266 -7.36763,-5.47284 -1.55765,-1.61673 -0.35343,-3.53045 1.48047,-4.47627 2.51421,-1.29669 5.45397,-0.1252 7.40954,1.65087 2.13497,1.93901 3.20617,4.89169 5.44307,6.70471 0.77594,0.62891 -0.0797,1.39592 0.0287,1.5237 1.5087,1.77776 3.5492,0.75786 5.29868,0.0635 2.78654,-1.10587 6.06609,-2.41244 7.30781,-5.31746 1.32758,-3.1059 -2.45415,-7.0421 -5.4921,-5.33903 -3.05506,1.71264 -3.33871,5.6787 -5.50583,8.14844 -1.12698,1.28436 -1.98566,2.73761 -2.92836,4.16847 -0.17744,0.26932 -0.37545,0.5301 -0.63116,0.73095"
       id="path222"
       inkscape:path-effect="#path-effect224"
       inkscape:original-d="m 275.11498,802.07628 c -0.19661,0.31335 -0.28701,0.72759 -0.58984,0.94006 -0.65388,0.45877 -1.60411,0.0495 -2.39558,-0.0582 -1.64249,-0.2235 -3.31742,-0.67715 -4.7446,-1.54542 -1.49879,-0.91183 -7.7817,-5.66105 -4.72908,-7.96868 5.1763,-3.91301 9.60679,0.99616 12.58845,4.96515 0.33964,0.4521 3.19241,4.03928 1.48495,3.88247 0.6571,0.39872 1.24385,0.94806 1.97131,1.19617 0.77368,0.26386 1.59378,-0.36731 2.38006,-0.59082 2.83892,-0.80697 8.74389,-3.43158 8.76484,-6.99369 0.0174,-2.95652 -3.26895,-5.53464 -6.01742,-3.90867 -2.28413,1.35129 -3.19428,4.75559 -4.47037,6.88892 -0.76898,1.28556 -1.76435,2.21248 -2.62842,3.40809 -0.45465,0.6291 -0.9701,2.04154 -1.70743,2.61062"
       transform="matrix(0.76700325,0,0,1.0357771,64.468648,-40.261981)" /><path
       style="opacity:1;fill:none;fill-opacity:1;stroke:#e01b24;stroke-width:4.392;stroke-linecap:round;stroke-linejoin:round;stroke-dasharray:none;stroke-opacity:1"
       d="m 260.93292,812.68469 c 3.67841,-0.6853 7.39957,0.0463 11.10739,0.0466 5.41083,4.4e-4 10.83886,-0.0894 16.22124,0.50161 1.66203,0.18249 3.48063,0.0136 5.00947,0.72712 0,0 -0.021,0.12164 -0.021,0.12164"
       id="path223"
       inkscape:path-effect="#path-effect226"
       inkscape:original-d="m 260.93292,812.68469 c 2.8738,-0.58909 5.76699,-0.0428 8.65101,0.0145 5.8075,0.11543 11.73429,-0.10222 17.51414,0.4744 0.30389,0.0303 6.67842,0.22977 6.15194,0.90804"
       transform="matrix(-0.81682782,0.06096565,-0.12543277,-1.1163519,605.53894,1693.8949)" /></g><g
     inkscape:groupmode="layer"
     id="layer8"
     inkscape:label="GIFT3"
     transform="translate(-253.71206,-609.48904)"><ellipse
       style="opacity:1;fill:#33d17a;fill-opacity:1;stroke:#33d17a;stroke-width:4.392;stroke-linecap:round;stroke-linejoin:round;stroke-dasharray:none;stroke-opacity:1"
       id="path226"
       cx="220.2225"
       cy="823.59833"
       rx="11.786475"
       ry="11.402949"
       transform="translate(82.29319,0.27648804)" /><path
       style="fill:none;fill-opacity:1;stroke:#e01b24;stroke-width:4.392;stroke-linecap:round;stroke-linejoin:round;stroke-dasharray:none;stroke-opacity:1"
       d="m 275.11498,802.07628 c -0.80891,2.19727 -3.57011,0.91212 -5.13635,0.44091 -3.19768,-0.96203 -6.00435,-3.27148 -7.73492,-6.08293 -1.59954,-2.59858 1.96861,-4.48363 4.14357,-4.42336 4.20303,0.11649 6.60915,4.18936 9.26653,6.9379 0.87624,0.90631 0.79474,2.88081 1.319,3.49856 1.5087,1.77776 3.5516,0.76389 5.29868,0.0635 2.86075,-1.14677 6.39188,-2.50541 7.42034,-5.63119 1.11321,-3.38338 -3.36899,-7.01906 -6.27636,-4.60846 -2.76758,2.29471 -3.03646,6.35466 -5.67758,8.75561 -1.20333,1.0939 -1.57166,2.76064 -2.71604,3.87541"
       id="path222-4"
       inkscape:path-effect="#path-effect224-3"
       inkscape:original-d="m 275.11498,802.07628 c -0.19661,0.31335 -0.28701,0.72759 -0.58984,0.94006 -0.65388,0.45877 -1.60411,0.0495 -2.39558,-0.0582 -1.64249,-0.2235 -3.31742,-0.67715 -4.7446,-1.54542 -1.49879,-0.91183 -7.7817,-5.66105 -4.72908,-7.96868 5.1763,-3.91301 9.60679,0.99616 12.58845,4.96515 0.33964,0.4521 3.19241,4.03928 1.48495,3.88247 0.6571,0.39872 1.24385,0.94806 1.97131,1.19617 0.77368,0.26386 1.59378,-0.36731 2.38006,-0.59082 2.83892,-0.80697 8.74389,-3.43158 8.76484,-6.99369 0.0174,-2.95652 -3.26895,-5.53464 -6.01742,-3.90867 -2.28413,1.35129 -3.19428,4.75559 -4.47037,6.88892 -0.76898,1.28556 -1.76435,2.21248 -2.62842,3.40809 -0.45465,0.6291 -0.9701,2.04154 -1.70743,2.61062"
       transform="matrix(0.58097625,0.19478833,-0.35151718,0.58710118,428.19376,285.70699)" /><path
       style="opacity:1;fill:#33d17a;fill-opacity:1;stroke:#e01b24;stroke-width:4.392;stroke-linecap:round;stroke-linejoin:round;stroke-dasharray:none;stroke-opacity:1"
       d="m 296.78803,835.97333 c 1.45937,-7.07766 1.50879,-15.11811 5.98592,-20.84846 1.10394,-1.41295 2.66717,-2.38621 3.98347,-3.59026 0,0 -0.0908,0.0352 -0.0908,0.0352"
       id="path227"
       inkscape:path-effect="#path-effect227"
       inkscape:original-d="m 296.78803,835.97333 c 1.33097,-6.52621 2.64022,-12.98469 5.21544,-19.1679 0.20106,-0.48277 0.56628,-1.40427 0.89511,-1.87721 0.54386,-0.78221 4.57056,-3.87183 3.76802,-3.35844"
       transform="matrix(1.0198279,0,0,0.91000085,-6.5291355,73.640977)"
       sodipodi:nodetypes="cssc" /></g></svg>
