<svg width="135" height="228" viewBox="0 0 135 228" fill="none" xmlns="http://www.w3.org/2000/svg">
<g clip-path="url(#clip0_6_2)">
<path d="M57.3554 171.64C57.7312 185.218 55.7757 198.768 56.1325 212.42C56.202 215.082 56.3203 219.987 59.5163 219.252C63.0947 218.429 66.3609 216.061 69.2912 213.494C75.2497 208.273 78.8472 199.861 79.3753 191.392C79.7745 184.989 79.2129 178.555 77.9119 172.454C77.0188 168.267 76.1437 163.341 72.9076 160.963C69.8034 158.681 65.8267 160.851 63.1286 163.369C59.8677 166.413 57.3088 170.6 56.421 175.456C56.1755 176.799 55.9777 178.15 55.7738 179.5" fill="#4A2D14"/>
<path d="M108.747 138.023C108.177 138.276 107.61 138.536 107.024 138.761C106.166 139.09 105.296 139.39 104.421 139.667C103.546 139.944 102.665 140.198 101.792 140.435C100.919 140.671 100.052 140.891 99.2001 141.099C98.7943 141.198 98.4185 141.267 98.0692 141.316C97.7199 141.364 97.3973 141.392 97.0946 141.411C96.4892 141.451 95.9656 141.455 95.4872 141.511C95.248 141.539 95.02 141.581 94.7977 141.646C94.5754 141.711 94.3606 141.799 94.1454 141.923C93.9301 142.047 93.715 142.208 93.4969 142.413C93.2789 142.619 93.0578 142.869 92.827 143.177C92.5644 143.528 92.2821 143.847 91.9833 144.134C91.6845 144.421 91.369 144.678 91.0379 144.906C90.7069 145.133 90.3602 145.331 90.0008 145.503C89.6415 145.675 89.2693 145.82 88.8856 145.941C88.5019 146.061 88.1062 146.155 87.702 146.228C87.2979 146.301 86.8843 146.353 86.4637 146.382C86.0431 146.412 85.6156 146.419 85.1825 146.409C84.7493 146.399 84.3117 146.372 83.87 146.327C83.4282 146.283 82.9824 146.222 82.536 146.146C82.0896 146.07 81.6413 145.979 81.1942 145.876C80.2999 145.671 79.4076 145.415 78.534 145.126C77.6605 144.838 76.8064 144.516 75.9852 144.177C75.164 143.838 74.3769 143.483 73.6395 143.126C72.9885 142.812 72.4039 142.563 71.8739 142.372C71.3438 142.182 70.8672 142.05 70.4325 141.97C69.9978 141.89 69.6041 141.86 69.2391 141.876C68.8742 141.893 68.5385 141.955 68.2176 142.054C67.8968 142.154 67.5923 142.291 67.2899 142.46C66.9876 142.629 66.6873 142.829 66.3778 143.054C65.7588 143.503 65.1011 144.052 64.2997 144.642C63.9075 144.931 63.5038 145.198 63.0907 145.447C62.6775 145.695 62.2531 145.924 61.8211 146.134C61.3892 146.344 60.9495 146.535 60.5008 146.708C60.0522 146.882 59.5948 147.038 59.1317 147.177C58.6686 147.316 58.1989 147.438 57.7235 147.544C57.248 147.651 56.7677 147.742 56.2821 147.818C55.7965 147.893 55.3069 147.954 54.8133 148.001C54.3197 148.048 53.8225 148.081 53.3231 148.101C52.3243 148.141 51.3146 148.129 50.3055 148.074C49.2964 148.018 48.288 147.92 47.286 147.785C46.284 147.649 45.289 147.478 44.3114 147.279C43.3338 147.079 42.3722 146.851 41.4364 146.603C41.1652 146.531 40.906 146.446 40.6571 146.349C40.4082 146.252 40.1695 146.142 39.9403 146.023C39.482 145.785 39.0618 145.506 38.6669 145.199C38.2719 144.891 37.9019 144.553 37.5497 144.201C37.1974 143.848 36.8624 143.48 36.5321 143.107C35.8715 142.361 35.2347 141.599 34.5379 140.919C34.1896 140.58 33.8249 140.26 33.4364 139.974C33.0479 139.688 32.6357 139.435 32.1864 139.228C31.9324 139.111 31.6748 139.018 31.4149 138.949C31.155 138.879 30.8911 138.832 30.6258 138.804C30.3605 138.776 30.0933 138.769 29.8231 138.777C29.5529 138.785 29.2812 138.808 29.0067 138.845C28.4577 138.92 27.9001 139.049 27.3368 139.205C26.7735 139.36 26.2032 139.544 25.6297 139.732C25.0563 139.92 24.4806 140.113 23.9012 140.285C23.3218 140.457 22.7403 140.608 22.159 140.714C21.884 140.765 21.6076 140.804 21.3329 140.832C20.9696 141.181 20.6133 141.557 20.2469 141.9C19.4845 142.614 18.6859 143.29 17.9032 143.98C17.9082 143.993 17.9122 144.004 17.9169 144.017C17.9089 144.008 17.9016 143.998 17.8935 143.99C17.3028 144.51 16.7327 145.05 16.1259 145.56C14.7114 146.75 13.249 147.914 11.7118 149.072C11.46 149.261 11.1917 149.441 10.9111 149.611C10.6304 149.78 10.3374 149.939 10.0341 150.093C9.42744 150.401 8.78027 150.683 8.12004 150.955C7.45981 151.226 6.78635 151.487 6.12199 151.757C5.45764 152.027 4.80353 152.305 4.18449 152.609C3.87498 152.761 3.57303 152.918 3.2841 153.085C2.99518 153.253 2.71812 153.43 2.45598 153.617C2.19383 153.803 1.94687 154 1.71769 154.21C1.4885 154.421 1.27689 154.645 1.08684 154.884C0.896785 155.123 0.727669 155.378 0.582929 155.65C0.438199 155.922 0.318747 156.21 0.225507 156.519C0.132307 156.828 0.0657545 157.157 0.0301945 157.507C-0.0054055 157.858 -0.009809 158.23 0.018491 158.626C0.044391 158.989 0.0881904 159.34 0.14935 159.679C0.21055 160.019 0.288112 160.347 0.381772 160.664C0.475472 160.981 0.584554 161.286 0.707944 161.582C0.831344 161.877 0.969704 162.163 1.12005 162.437C1.2704 162.711 1.43379 162.974 1.60833 163.228C1.78287 163.482 1.96903 163.725 2.16498 163.958C2.55689 164.426 2.98923 164.855 3.45015 165.248C3.91107 165.64 4.39943 165.995 4.90718 166.318C5.41493 166.64 5.94118 166.929 6.47358 167.187C7.00597 167.445 7.54418 167.672 8.07905 167.871C8.61391 168.069 9.14593 168.24 9.66108 168.384C10.4726 168.612 11.2898 168.821 12.1123 169.007C12.9348 169.194 13.7619 169.359 14.5927 169.5C15.4235 169.64 16.2583 169.757 17.0947 169.847C17.931 169.938 18.7691 170.003 19.6084 170.039C20.4476 170.074 21.2884 170.079 22.1279 170.054C22.9673 170.03 23.8046 169.974 24.6416 169.884C25.4785 169.795 26.3137 169.674 27.1455 169.515C27.9773 169.357 28.8059 169.162 29.6298 168.929C29.8083 168.879 29.9873 168.809 30.1669 168.726C30.3465 168.643 30.5279 168.544 30.708 168.433C31.0681 168.211 31.4282 167.937 31.7861 167.632C32.1439 167.328 32.4986 166.994 32.8486 166.648C33.1986 166.302 33.5432 165.945 33.8798 165.597C34.2164 165.249 34.5446 164.91 34.8623 164.601C35.1799 164.292 35.4871 164.012 35.7802 163.781C36.0733 163.55 36.3531 163.368 36.6161 163.255C36.7477 163.199 36.876 163.161 36.999 163.142C37.1219 163.123 37.2388 163.123 37.3525 163.146C37.3945 163.658 37.416 164.177 37.4248 164.699C37.4338 165.22 37.4308 165.746 37.4248 166.273C37.4128 167.327 37.3887 168.385 37.4288 169.433C37.4488 169.957 37.4852 170.478 37.546 170.994C37.6068 171.51 37.6915 172.021 37.8116 172.525C37.9317 173.029 38.0864 173.526 38.2843 174.013C38.4821 174.5 38.7245 174.977 39.0186 175.443C39.3701 176 39.7421 176.551 40.1339 177.089C40.5257 177.627 40.9372 178.152 41.3682 178.654C41.7992 179.156 42.2488 179.635 42.7178 180.084C43.1869 180.532 43.6748 180.95 44.1807 181.328C44.6867 181.705 45.2113 182.044 45.753 182.334C46.2947 182.623 46.8545 182.866 47.4307 183.05C47.7189 183.143 48.0111 183.22 48.3077 183.283C48.6042 183.346 48.9032 183.392 49.2081 183.423C49.5129 183.455 49.8228 183.469 50.1358 183.466C50.4488 183.463 50.766 183.445 51.087 183.406C51.5732 183.347 52.0591 183.272 52.5421 183.177C53.025 183.083 53.5057 182.969 53.9815 182.834C54.4574 182.699 54.9287 182.543 55.3936 182.363C55.8585 182.183 56.3165 181.981 56.7667 181.752C57.2168 181.523 57.6574 181.267 58.0889 180.984C58.5205 180.701 58.9435 180.39 59.3526 180.049C59.7618 179.707 60.1572 179.336 60.5401 178.931C60.923 178.527 61.2927 178.089 61.6456 177.617C61.8651 177.323 62.0797 176.987 62.2901 176.621C62.5005 176.255 62.7074 175.859 62.9093 175.447C63.3129 174.622 63.6989 173.732 64.0714 172.881C64.4439 172.03 64.802 171.218 65.1475 170.552C65.3203 170.22 65.4905 169.922 65.6573 169.675C65.8241 169.429 65.9882 169.233 66.1495 169.099C66.2269 169.606 66.3267 170.099 66.4483 170.58C66.57 170.099 66.6699 169.606 66.7471 169.099C66.9085 169.233 67.0725 169.429 67.2393 169.675C67.4062 169.922 67.5762 170.22 67.7491 170.552C68.0948 171.218 68.4524 172.03 68.8253 172.881C69.1981 173.732 69.5854 174.622 69.9893 175.447C70.1913 175.859 70.398 176.255 70.6085 176.621C70.819 176.987 71.0335 177.323 71.253 177.617C71.6059 178.089 71.9756 178.527 72.3585 178.931C72.7414 179.336 73.1388 179.707 73.5479 180.049C73.9571 180.39 74.3781 180.701 74.8096 180.984C75.2412 181.267 75.6837 181.523 76.1339 181.752C76.584 181.981 77.042 182.183 77.5069 182.363C77.9718 182.543 78.4432 182.699 78.919 182.834C79.3949 182.969 79.8755 183.083 80.3585 183.177C80.8414 183.272 81.3254 183.347 81.8116 183.406C82.1326 183.445 82.4498 183.464 82.7628 183.466C83.0757 183.469 83.3857 183.455 83.6905 183.423C83.9953 183.392 84.2963 183.346 84.5928 183.283C84.8894 183.22 85.1817 183.143 85.4698 183.05C86.0459 182.866 86.6041 182.623 87.1456 182.334C87.6871 182.044 88.2121 181.705 88.7178 181.328C89.2236 180.95 89.7099 180.532 90.1788 180.084C90.6477 179.635 91.0975 179.156 91.5284 178.654C91.9593 178.152 92.371 177.627 92.7628 177.089C93.1545 176.551 93.5266 176 93.878 175.443C94.1721 174.977 94.4145 174.5 94.6124 174.013C94.8103 173.526 94.9648 173.029 95.085 172.525C95.2052 172.021 95.2897 171.51 95.3507 170.994C95.4116 170.478 95.4477 169.957 95.4678 169.433C95.5082 168.385 95.4855 167.327 95.4739 166.273C95.4679 165.746 95.4649 165.22 95.4739 164.699C95.4829 164.177 95.5042 163.658 95.5462 163.146C95.6598 163.123 95.7787 163.123 95.9016 163.142C96.0246 163.161 96.151 163.199 96.2825 163.255C96.5455 163.368 96.8253 163.55 97.1184 163.781C97.4115 164.012 97.7188 164.292 98.0364 164.601C98.354 164.91 98.6822 165.249 99.0188 165.597C99.3554 165.945 99.7 166.302 100.05 166.648C100.4 166.994 100.755 167.328 101.113 167.632C101.47 167.937 101.832 168.211 102.193 168.433C102.373 168.544 102.552 168.643 102.732 168.726C102.911 168.809 103.09 168.879 103.269 168.929C104.093 169.162 104.921 169.357 105.753 169.515C106.585 169.674 107.42 169.795 108.257 169.884C109.094 169.974 109.933 170.03 110.773 170.054C111.612 170.079 112.451 170.074 113.29 170.039C114.13 170.003 114.97 169.938 115.806 169.847C116.642 169.757 117.475 169.64 118.306 169.5C119.137 169.359 119.964 169.194 120.786 169.007C121.609 168.821 122.428 168.612 123.24 168.384C123.755 168.24 124.285 168.069 124.82 167.871C125.354 167.672 125.893 167.445 126.425 167.187C126.957 166.929 127.484 166.64 127.991 166.318C128.499 165.995 128.988 165.64 129.449 165.248C129.909 164.855 130.342 164.426 130.734 163.958C130.93 163.725 131.114 163.482 131.288 163.228C131.463 162.974 131.626 162.711 131.777 162.437C131.927 162.163 132.065 161.877 132.189 161.582C132.312 161.286 132.421 160.981 132.515 160.664C132.609 160.347 132.686 160.019 132.747 159.679C132.808 159.34 132.852 158.989 132.878 158.626C132.906 158.23 132.905 157.859 132.874 157.511C132.843 157.164 132.783 156.84 132.698 156.537C132.614 156.233 132.505 155.951 132.372 155.687C132.24 155.423 132.086 155.18 131.911 154.951C131.736 154.722 131.541 154.507 131.329 154.308C131.117 154.109 130.889 153.924 130.646 153.75C130.403 153.575 130.145 153.412 129.876 153.257C129.607 153.103 129.326 152.959 129.036 152.82C128.458 152.542 127.844 152.29 127.218 152.044C126.592 151.799 125.953 151.56 125.323 151.308C124.694 151.057 124.072 150.792 123.484 150.496C123.189 150.348 122.904 150.191 122.628 150.025C122.352 149.858 122.087 149.683 121.835 149.494C120.298 148.336 118.793 147.143 117.318 145.914C115.842 144.684 114.398 143.417 112.976 142.109C111.554 140.801 110.156 139.452 108.778 138.056C108.768 138.045 108.757 138.033 108.747 138.023Z" fill="#26A269"/>
<path d="M66.448 74.5266C65.7472 75.6176 65.0843 76.7389 64.448 77.8801C63.8117 79.0214 63.2027 80.1832 62.6121 81.3606C62.0214 82.538 61.4475 83.7296 60.8835 84.929C60.3196 86.1283 59.7658 87.335 59.2097 88.5422C58.6537 89.7495 58.0951 90.9585 57.5281 92.1594C56.9611 93.3604 56.3847 94.553 55.7878 95.7336C55.191 96.9142 54.5741 98.0817 53.9285 99.2278C53.2829 100.374 52.6085 101.499 51.8953 102.597C50.9935 103.984 50.0819 105.362 49.1589 106.73C48.8008 107.26 48.4324 107.782 48.071 108.31C48.6472 108.013 49.2208 107.71 49.8074 107.431C50.7068 107.002 51.6183 106.594 52.5398 106.206C53.4613 105.818 54.392 105.451 55.3328 105.103C56.2735 104.755 57.2232 104.426 58.1804 104.116C59.1376 103.807 60.1023 103.517 61.073 103.245C62.0437 102.974 63.0213 102.722 64.0027 102.488C64.9841 102.253 65.9705 102.039 66.9597 101.841C67.9489 101.643 68.9402 101.462 69.9343 101.3C70.9285 101.138 71.9244 100.994 72.9207 100.866C73.9169 100.739 74.9134 100.628 75.9089 100.534C76.9044 100.441 77.8995 100.365 78.8914 100.304C79.1309 100.289 79.3689 100.296 79.6082 100.286C79.3993 99.9306 79.1723 99.5879 78.9695 99.2278C78.3238 98.0817 77.7071 96.9142 77.1101 95.7336C76.5131 94.553 75.9351 93.3604 75.3679 92.1594C74.8007 90.9585 74.2444 89.7495 73.6882 88.5422C73.132 87.335 72.5765 86.1283 72.0125 84.929C71.4484 83.7296 70.8767 82.538 70.2859 81.3606C69.6951 80.1832 69.0863 79.0214 68.45 77.8801C67.8136 76.7389 67.1488 75.6176 66.448 74.5266Z" fill="#26A269"/>
<path d="M79.6082 100.286C79.3689 100.296 79.1309 100.289 78.8914 100.304C77.8995 100.365 76.9044 100.441 75.9089 100.534C74.9134 100.628 73.9169 100.739 72.9207 100.866C71.9244 100.994 70.9285 101.138 69.9343 101.3C68.9402 101.462 67.9489 101.643 66.9597 101.841C65.9705 102.039 64.9841 102.253 64.0027 102.488C63.0213 102.722 62.0437 102.974 61.073 103.245C60.1023 103.517 59.1376 103.807 58.1804 104.116C57.2232 104.426 56.2735 104.755 55.3328 105.103C54.392 105.451 53.4613 105.818 52.5398 106.206C51.6183 106.594 50.7068 107.002 49.8074 107.431C49.2208 107.71 48.6472 108.013 48.071 108.31C47.5012 109.142 46.9341 109.978 46.3562 110.802C45.4118 112.148 44.4568 113.484 43.491 114.808C42.5252 116.132 41.5505 117.443 40.5632 118.743C39.576 120.044 38.5779 121.333 37.5691 122.609C36.5603 123.884 35.539 125.146 34.5085 126.396C33.4781 127.645 32.4376 128.881 31.3855 130.103C30.3334 131.325 29.2699 132.534 28.196 133.728C26.8545 135.219 25.5381 136.633 24.2214 137.99C23.2645 138.975 22.299 139.901 21.3328 140.831C21.6075 140.803 21.8839 140.765 22.1589 140.714C22.7402 140.607 23.3217 140.456 23.9011 140.284C24.4805 140.113 25.0562 139.92 25.6296 139.732C26.2031 139.543 26.7734 139.36 27.3367 139.204C27.9 139.048 28.4576 138.92 29.0066 138.845C29.2811 138.808 29.5528 138.784 29.823 138.777C30.0931 138.769 30.3604 138.776 30.6257 138.804C30.891 138.832 31.1549 138.879 31.4148 138.948C31.6747 139.018 31.9323 139.11 32.1863 139.228C32.6355 139.435 33.0478 139.688 33.4363 139.974C33.8248 140.26 34.1895 140.579 34.5378 140.919C35.2346 141.598 35.8714 142.36 36.532 143.107C36.8623 143.48 37.1973 143.848 37.5496 144.2C37.9018 144.553 38.2718 144.891 38.6667 145.198C39.0617 145.506 39.4819 145.784 39.9402 146.023C40.1694 146.142 40.4081 146.252 40.657 146.349C40.9059 146.446 41.1651 146.531 41.4363 146.603C42.3721 146.851 43.3337 147.079 44.3113 147.279C45.2889 147.478 46.2839 147.649 47.2859 147.784C48.2879 147.92 49.2963 148.018 50.3054 148.073C51.3145 148.129 52.3242 148.141 53.323 148.101C53.8224 148.081 54.3196 148.048 54.8132 148.001C55.3068 147.954 55.7964 147.893 56.282 147.818C56.7676 147.742 57.2479 147.65 57.7234 147.544C58.1988 147.438 58.6685 147.316 59.1316 147.177C59.5947 147.038 60.0521 146.882 60.5007 146.708C60.9494 146.535 61.3891 146.344 61.821 146.134C62.253 145.924 62.6774 145.695 63.0906 145.446C63.5037 145.198 63.9074 144.931 64.2996 144.642C65.101 144.051 65.7587 143.503 66.3777 143.054C66.6872 142.829 66.9875 142.629 67.2898 142.46C67.5921 142.291 67.8967 142.153 68.2175 142.054C68.5383 141.954 68.8741 141.893 69.239 141.876C69.6039 141.86 69.9977 141.89 70.4324 141.97C70.8671 142.05 71.3437 142.182 71.8738 142.372C72.4038 142.563 72.9884 142.811 73.6394 143.126C74.3768 143.482 75.1639 143.838 75.9851 144.177C76.8063 144.516 77.6604 144.837 78.5339 145.126C79.4075 145.415 80.2998 145.671 81.1941 145.876C81.6412 145.979 82.0895 146.07 82.5359 146.146C82.9823 146.221 83.4281 146.282 83.8699 146.327C84.3116 146.372 84.7492 146.4 85.1824 146.409C85.6155 146.419 86.043 146.411 86.4636 146.382C86.8842 146.352 87.2978 146.3 87.7019 146.228C88.106 146.155 88.5018 146.061 88.8855 145.94C89.2692 145.82 89.6414 145.675 90.0007 145.503C90.3601 145.331 90.7068 145.133 91.0378 144.905C91.3689 144.678 91.6844 144.421 91.9832 144.134C92.282 143.847 92.5643 143.528 92.8269 143.177C93.0577 142.868 93.2787 142.618 93.4968 142.413C93.7149 142.208 93.93 142.047 94.1453 141.923C94.3605 141.799 94.5753 141.711 94.7976 141.646C95.0199 141.58 95.2479 141.539 95.4871 141.511C95.9655 141.455 96.4891 141.45 97.0945 141.411C97.3972 141.392 97.7198 141.364 98.0691 141.315C98.4184 141.267 98.7942 141.198 99.2 141.099C100.052 140.89 100.918 140.671 101.792 140.435C102.665 140.198 103.545 139.944 104.421 139.667C105.296 139.39 106.166 139.09 107.024 138.761C107.61 138.536 108.177 138.276 108.747 138.022C107.38 136.637 106.033 135.207 104.702 133.728C103.628 132.534 102.565 131.325 101.512 130.103C100.46 128.88 99.4198 127.645 98.3894 126.396C97.359 125.146 96.3396 123.884 95.3308 122.608C94.322 121.333 93.3239 120.044 92.3367 118.743C91.3494 117.443 90.3728 116.132 89.407 114.808C88.4412 113.484 87.4861 112.148 86.5417 110.802C85.5974 109.455 84.664 108.097 83.741 106.729C82.818 105.362 81.9044 103.984 81.0027 102.597C80.5135 101.844 80.0641 101.063 79.6082 100.286Z" fill="#218D5C"/>
<path d="M98.2685 84.5051C98.199 84.5626 98.1266 84.617 98.0575 84.675C97.3265 85.289 96.6162 85.9249 95.87 86.5207C95.4969 86.8186 95.1141 87.1071 94.7157 87.3762C94.3173 87.6452 93.9037 87.8964 93.4657 88.1203C92.5695 88.5786 91.6612 89.0116 90.745 89.4152C89.8288 89.8188 88.9036 90.1915 87.9735 90.5246C87.0435 90.8577 86.1085 91.1527 85.1708 91.3996C84.2331 91.6465 83.2936 91.8464 82.3544 91.9914C81.8848 92.0639 81.415 92.1212 80.9462 92.1652C80.4774 92.2092 80.0092 92.2395 79.5419 92.2531C79.0746 92.2667 78.6084 92.2641 78.1435 92.2451C77.6785 92.2263 77.2147 92.1909 76.7528 92.1377C76.291 92.0845 75.83 92.0143 75.372 91.9248C74.914 91.8353 74.4582 91.7265 74.0048 91.5986C73.5514 91.4708 73.1012 91.3234 72.6532 91.1553C72.2052 90.9872 71.7591 90.7992 71.3173 90.5889C71.1474 90.508 70.9787 90.41 70.8114 90.2979C70.6441 90.1857 70.4798 90.058 70.3153 89.9209C69.9864 89.6467 69.6629 89.3289 69.3466 88.9932C68.7139 88.3218 68.1084 87.58 67.536 86.9678C67.2499 86.6617 66.9706 86.3879 66.702 86.1729C66.5678 86.0654 66.4371 85.9726 66.3075 85.8975C66.178 85.8223 66.0513 85.764 65.9267 85.7275C65.802 85.691 65.6789 85.6761 65.5595 85.6846C65.44 85.6936 65.324 85.7262 65.2099 85.7861C65.0958 85.846 64.9844 85.9321 64.8759 86.0498C64.7673 86.1675 64.6603 86.3153 64.5575 86.4971C64.3164 86.9236 64.0502 87.3263 63.7606 87.7061C63.4711 88.0858 63.1586 88.443 62.8251 88.7783C62.4915 89.1137 62.1377 89.4284 61.7645 89.7217C61.3914 90.0149 60.9992 90.2865 60.5907 90.54C60.1823 90.7936 59.7565 91.029 59.3173 91.2451C58.878 91.4613 58.4255 91.6577 57.9599 91.8389C57.4942 92.02 57.0159 92.1845 56.5282 92.333C56.0405 92.4815 55.5433 92.6152 55.038 92.7334C54.5327 92.8516 54.0194 92.9557 53.5009 93.0459C52.9823 93.1361 52.4579 93.2118 51.9306 93.2764C50.8758 93.4055 49.8086 93.4856 48.745 93.5264C47.6814 93.5672 46.6221 93.5687 45.5849 93.54C44.5477 93.5112 43.5331 93.4535 42.5575 93.374C42.0089 93.3293 41.3992 93.2691 40.7587 93.1865C40.1181 93.1039 39.4461 92.9977 38.7685 92.8623C38.0908 92.7269 37.4087 92.5614 36.7489 92.3584C36.419 92.2569 36.0934 92.1456 35.7782 92.0244C35.4631 91.9032 35.1577 91.7726 34.8642 91.6299C34.5707 91.4871 34.2893 91.3331 34.0243 91.167C33.7593 91.0008 33.5099 90.8233 33.2802 90.6318C33.0505 90.4404 32.8407 90.2351 32.6532 90.0166C32.5138 89.8541 32.4007 89.6755 32.288 89.4971C31.5467 90.3882 30.8029 91.299 30.0673 92.1396C28.9065 93.4661 27.7456 94.7337 26.5634 95.9619C25.3812 97.1901 24.1776 98.3784 22.9306 99.542C21.6836 100.706 20.3931 101.845 19.038 102.978C18.816 103.163 18.5803 103.337 18.3329 103.503C18.0855 103.669 17.8269 103.827 17.5595 103.978C17.0247 104.278 16.454 104.552 15.872 104.817C15.2899 105.083 14.6959 105.338 14.1103 105.603C13.5246 105.867 12.947 106.139 12.4013 106.437C12.1284 106.585 11.865 106.74 11.6103 106.903C11.3555 107.067 11.1109 107.238 10.8798 107.421C10.6487 107.603 10.4295 107.797 10.2274 108.003C10.0254 108.209 9.84029 108.427 9.67275 108.661C9.5052 108.895 9.35504 109.143 9.22744 109.409C9.09985 109.675 8.99519 109.959 8.91299 110.261C8.83079 110.563 8.77247 110.885 8.74111 111.228C8.70971 111.57 8.70439 111.934 8.72939 112.321C8.75219 112.676 8.7907 113.019 8.84463 113.351C8.89853 113.683 8.96909 114.003 9.05166 114.313C9.13426 114.624 9.22999 114.923 9.33877 115.212C9.44755 115.501 9.56755 115.78 9.7001 116.048C9.83265 116.316 9.97787 116.573 10.1317 116.821C10.2856 117.069 10.4492 117.307 10.622 117.536C10.9675 117.994 11.3484 118.414 11.7548 118.798C12.1611 119.182 12.5923 119.529 13.0399 119.845C13.4876 120.16 13.9515 120.442 14.4208 120.694C14.8902 120.947 15.3653 121.168 15.8368 121.362C16.3083 121.556 16.7752 121.723 17.2294 121.864C17.9448 122.087 18.6664 122.291 19.3915 122.474C20.1166 122.656 20.8466 122.818 21.579 122.956C22.3114 123.094 23.0468 123.207 23.7841 123.296C24.5214 123.384 25.261 123.447 26.0009 123.481C26.7408 123.516 27.4796 123.523 28.2196 123.499C28.9597 123.475 29.7005 123.42 30.4384 123.333C31.1762 123.246 31.9121 123.125 32.6454 122.97C33.3787 122.815 34.1085 122.625 34.8349 122.397C34.9922 122.348 35.1511 122.282 35.3095 122.2C35.4678 122.119 35.6253 122.022 35.7841 121.913C36.1016 121.695 36.4198 121.428 36.7353 121.13C37.0507 120.832 37.3642 120.505 37.6728 120.167C37.9813 119.829 38.2862 119.48 38.5829 119.14C38.8797 118.8 39.1681 118.468 39.4481 118.165C39.7282 117.863 39.9983 117.588 40.2567 117.362C40.5151 117.136 40.7612 116.961 40.9931 116.851C41.109 116.796 41.2226 116.756 41.331 116.737C41.4393 116.719 41.5432 116.721 41.6435 116.743C41.6805 117.244 41.6983 117.751 41.706 118.261C41.714 118.771 41.711 119.285 41.706 119.8C41.6954 120.83 41.6746 121.867 41.71 122.892C41.7277 123.404 41.7599 123.912 41.8135 124.417C41.8671 124.922 41.942 125.423 42.0479 125.915C42.1537 126.408 42.2914 126.894 42.4658 127.37C42.6402 127.847 42.853 128.313 43.1123 128.769C43.4222 129.313 43.7493 129.854 44.0947 130.38C44.4402 130.906 44.8027 131.419 45.1826 131.909C45.5626 132.4 45.9605 132.869 46.374 133.308C46.7875 133.746 47.2171 134.155 47.6631 134.525C48.1091 134.894 48.5703 135.224 49.0479 135.507C49.2866 135.649 49.5299 135.779 49.7764 135.896C50.0228 136.013 50.2724 136.118 50.5264 136.208C50.7804 136.298 51.0384 136.375 51.2998 136.437C51.5613 136.498 51.826 136.543 52.0947 136.573C52.3635 136.604 52.6372 136.619 52.9131 136.616C53.189 136.613 53.468 136.594 53.751 136.556C54.1796 136.499 54.6084 136.424 55.0342 136.331C55.4599 136.239 55.8823 136.129 56.3018 135.997C56.7213 135.865 57.138 135.712 57.5479 135.536C57.9577 135.361 58.362 135.161 58.7588 134.937C59.1557 134.713 59.5444 134.464 59.9248 134.187C60.3053 133.91 60.6774 133.607 61.0381 133.273C61.3988 132.939 61.7474 132.574 62.085 132.179C62.4225 131.783 62.7485 131.357 63.0596 130.896C63.2531 130.609 63.4424 130.279 63.6279 129.921C63.8134 129.563 63.9949 129.176 64.1729 128.773C64.5288 127.966 64.8699 127.093 65.1983 126.261C65.5267 125.429 65.8429 124.636 66.1475 123.986C66.2997 123.66 66.4497 123.369 66.5967 123.128C66.7437 122.887 66.8881 122.695 67.0303 122.564C67.0985 123.059 67.1867 123.543 67.294 124.013C67.4012 123.543 67.4895 123.059 67.5576 122.564C67.6999 122.695 67.8441 122.887 67.9912 123.128C68.1383 123.369 68.288 123.66 68.4404 123.986C68.7452 124.636 69.061 125.429 69.3897 126.261C69.7184 127.093 70.0609 127.966 70.417 128.773C70.5951 129.176 70.7764 129.563 70.9619 129.921C71.1475 130.279 71.3368 130.609 71.5303 130.896C71.8414 131.357 72.1654 131.783 72.5029 132.179C72.8405 132.574 73.1911 132.939 73.5518 133.273C73.9125 133.607 74.2846 133.91 74.6651 134.187C75.0455 134.464 75.4342 134.713 75.8311 134.937C76.2279 135.161 76.6322 135.361 77.042 135.536C77.4519 135.712 77.8686 135.865 78.2881 135.997C78.7076 136.129 79.1299 136.239 79.5557 136.331C79.9814 136.424 80.4103 136.498 80.8389 136.556C81.1219 136.594 81.4009 136.614 81.6768 136.616C81.9527 136.619 82.2245 136.604 82.4932 136.573C82.7619 136.543 83.0267 136.498 83.2881 136.437C83.5495 136.375 83.8076 136.298 84.0615 136.208C84.3155 136.118 84.5671 136.013 84.8135 135.896C85.0599 135.779 85.3014 135.649 85.5401 135.507C86.0175 135.224 86.4789 134.894 86.9248 134.525C87.3707 134.155 87.8005 133.746 88.2139 133.308C88.6273 132.869 89.0254 132.4 89.4053 131.909C89.7851 131.419 90.1478 130.906 90.4932 130.38C90.8385 129.854 91.1658 129.313 91.4756 128.769C91.7349 128.313 91.9476 127.847 92.1221 127.37C92.2966 126.894 92.4321 126.408 92.5381 125.915C92.6441 125.423 92.7207 124.922 92.7744 124.417C92.8281 123.912 92.8601 123.404 92.8779 122.892C92.9135 121.867 92.8923 120.83 92.882 119.8C92.877 119.285 92.874 118.771 92.882 118.261C92.89 117.751 92.9093 117.244 92.9464 116.743C93.0467 116.721 93.1506 116.719 93.2589 116.737C93.3673 116.756 93.4789 116.796 93.5949 116.851C93.8268 116.961 94.0728 117.136 94.3312 117.362C94.5896 117.588 94.8617 117.863 95.1417 118.165C95.4218 118.468 95.7102 118.8 96.007 119.14C96.3037 119.48 96.6086 119.829 96.9171 120.167C97.2257 120.505 97.5391 120.832 97.8546 121.13C98.1701 121.428 98.4864 121.695 98.8039 121.913C98.9626 122.022 99.1221 122.119 99.2804 122.2C99.4388 122.282 99.5977 122.348 99.755 122.397C100.481 122.625 101.211 122.815 101.944 122.97C102.678 123.125 103.414 123.246 104.152 123.333C104.889 123.42 105.628 123.475 106.368 123.499C107.108 123.523 107.849 123.516 108.589 123.481C109.329 123.447 110.068 123.384 110.806 123.296C111.543 123.207 112.278 123.094 113.011 122.956C113.743 122.818 114.473 122.656 115.198 122.474C115.923 122.291 116.643 122.087 117.359 121.864C117.813 121.723 118.282 121.556 118.753 121.362C119.225 121.168 119.7 120.947 120.169 120.694C120.638 120.442 121.101 120.16 121.548 119.845C121.995 119.529 122.427 119.182 122.833 118.798C123.239 118.414 123.621 117.994 123.966 117.536C124.139 117.307 124.302 117.069 124.456 116.821C124.61 116.573 124.753 116.316 124.886 116.048C125.018 115.78 125.14 115.501 125.249 115.212C125.358 114.923 125.454 114.624 125.536 114.313C125.619 114.003 125.687 113.683 125.741 113.351C125.795 113.019 125.836 112.676 125.859 112.321C125.883 111.934 125.88 111.571 125.853 111.231C125.825 110.892 125.775 110.575 125.7 110.278C125.626 109.982 125.528 109.706 125.411 109.448C125.294 109.19 125.159 108.95 125.005 108.726C124.851 108.502 124.678 108.294 124.491 108.099C124.305 107.904 124.104 107.722 123.89 107.552C123.675 107.381 123.447 107.222 123.21 107.071C122.973 106.92 122.727 106.777 122.472 106.642C121.962 106.37 121.42 106.124 120.868 105.884C120.316 105.644 119.752 105.411 119.196 105.165C118.641 104.919 118.094 104.66 117.575 104.37C117.316 104.225 117.063 104.074 116.819 103.911C116.576 103.748 116.344 103.575 116.122 103.39C114.767 102.257 113.44 101.092 112.14 99.8896C110.839 98.6875 109.565 97.4485 108.312 96.1689C107.058 94.8894 105.827 93.5691 104.612 92.2041C103.398 90.8391 102.201 89.428 101.019 87.9697C100.093 86.8283 99.1759 85.6732 98.2685 84.5051Z" fill="#2EC27E"/>
<path d="M67.2937 30.0735C66.6759 31.1405 66.091 32.2347 65.53 33.3508C64.9822 34.4409 64.4573 35.5531 63.948 36.677C64.7294 36.5164 65.5139 36.37 66.3015 36.2454C67.1316 36.114 67.9644 36.0036 68.7996 35.9133C69.272 35.8622 69.7459 35.8338 70.2195 35.7961C69.8387 34.9757 69.4601 34.1521 69.0574 33.3508C68.4964 32.2347 67.9115 31.1405 67.2937 30.0735Z" fill="#2EC27E"/>
<path d="M70.2195 35.7961C69.7459 35.8337 69.272 35.8623 68.7996 35.9133C67.9644 36.0036 67.1316 36.114 66.3015 36.2454C65.5139 36.37 64.7294 36.5164 63.948 36.677C63.9358 36.7039 63.9231 36.7301 63.9109 36.7571C63.3901 37.9086 62.8846 39.0744 62.3875 40.2474C61.8903 41.4203 61.4011 42.5998 60.9109 43.7805C60.4207 44.9612 59.9303 46.1412 59.4304 47.3157C58.9305 48.4903 58.4215 49.6591 57.8953 50.8137C57.3691 51.9684 56.8258 53.1088 56.2566 54.2297C55.6874 55.3506 55.0924 56.4513 54.4636 57.5247C53.6687 58.8817 52.8652 60.2301 52.0515 61.5676C51.2378 62.9051 50.4134 64.2332 49.5808 65.55C48.7483 66.8669 47.9068 68.1731 47.0554 69.468C46.204 70.7629 45.3437 72.0458 44.4734 73.3176C43.603 74.5894 42.7221 75.8495 41.8328 77.097C40.9434 78.3444 40.0459 79.5781 39.1375 80.8C38.229 82.022 37.3111 83.2319 36.3835 84.4271C35.456 85.6222 34.5178 86.8027 33.571 87.97C33.1379 88.5041 32.7162 88.9824 32.2878 89.4974C32.4006 89.6758 32.5137 89.8544 32.6531 90.0169C32.8406 90.2354 33.0503 90.4407 33.28 90.6321C33.5097 90.8235 33.7591 91.0011 34.0242 91.1672C34.2892 91.3334 34.5705 91.4874 34.864 91.6301C35.1575 91.7729 35.4629 91.9035 35.7781 92.0247C36.0932 92.1458 36.4189 92.2572 36.7488 92.3587C37.4086 92.5617 38.0907 92.7272 38.7683 92.8625C39.4459 92.9979 40.118 93.1042 40.7585 93.1868C41.3991 93.2694 42.0088 93.3296 42.5574 93.3743C43.533 93.4538 44.5475 93.5116 45.5847 93.5403C46.6219 93.569 47.6813 93.5674 48.7449 93.5266C49.8085 93.4858 50.8757 93.4058 51.9304 93.2766C52.4578 93.212 52.9822 93.1363 53.5007 93.0461C54.0193 92.9559 54.5325 92.8518 55.0378 92.7336C55.5432 92.6155 56.0404 92.4817 56.5281 92.3333C57.0158 92.1848 57.494 92.0203 57.9597 91.8391C58.4254 91.658 58.8779 91.4615 59.3171 91.2454C59.7564 91.0292 60.1822 90.7938 60.5906 90.5403C60.999 90.2867 61.3912 90.0152 61.7644 89.7219C62.1376 89.4287 62.4914 89.1139 62.825 88.7786C63.1585 88.4432 63.471 88.086 63.7605 87.7063C64.05 87.3265 64.3163 86.9238 64.5574 86.4973C64.6601 86.3155 64.7672 86.1677 64.8757 86.05C64.9843 85.9324 65.0956 85.8463 65.2097 85.7864C65.3238 85.7265 65.4399 85.6934 65.5593 85.6848C65.6788 85.6758 65.8019 85.6908 65.9265 85.7278C66.0511 85.7643 66.1778 85.8225 66.3074 85.8978C66.4369 85.973 66.5676 86.0657 66.7019 86.1732C66.9705 86.3882 67.2497 86.662 67.5359 86.9681C68.1082 87.5803 68.7137 88.3221 69.3464 88.9935C69.6628 89.3292 69.9863 89.647 70.3152 89.9212C70.4796 90.0583 70.644 90.186 70.8113 90.2982C70.9786 90.4103 71.1472 90.5083 71.3171 90.5892C71.759 90.7996 72.2051 90.9875 72.6531 91.1556C73.1011 91.3237 73.5512 91.4711 74.0046 91.5989C74.458 91.7268 74.9138 91.8356 75.3718 91.9251C75.8298 92.0146 76.2908 92.0848 76.7527 92.138C77.2146 92.1912 77.6784 92.2266 78.1433 92.2454C78.6083 92.2642 79.0745 92.2668 79.5417 92.2534C80.009 92.2398 80.4772 92.2095 80.946 92.1655C81.4149 92.1215 81.8846 92.0641 82.3542 91.9916C83.2934 91.8467 84.233 91.6468 85.1707 91.3998C86.1083 91.1529 87.0434 90.858 87.9734 90.5248C88.9034 90.1917 89.8287 89.819 90.7449 89.4155C91.6611 89.0119 92.5693 88.5788 93.4656 88.1205C93.9036 87.8966 94.3172 87.6454 94.7156 87.3764C95.114 87.1074 95.4968 86.8189 95.8699 86.521C96.6161 85.9252 97.3264 85.2893 98.0574 84.6752C98.1264 84.6172 98.1989 84.5628 98.2683 84.5053C98.2478 84.4789 98.2263 84.4536 98.2058 84.4272C97.2783 83.2321 96.3603 82.0222 95.4519 80.8003C94.5435 79.5784 93.646 78.3446 92.7566 77.0972C91.8672 75.8497 90.9863 74.5897 90.116 73.3179C89.2456 72.0461 88.3854 70.7632 87.5339 69.4683C86.6825 68.1734 85.8391 66.8671 85.0066 65.5503C84.1741 64.2335 83.3516 62.9054 82.5378 61.5679C81.7241 60.2304 80.9207 58.8819 80.1257 57.5249C79.497 56.4516 78.902 55.3509 78.3328 54.23C77.7635 53.1091 77.2204 51.9686 76.6941 50.814C76.1678 49.6593 75.657 48.4905 75.157 47.3159C74.657 46.1414 74.1669 44.9614 73.6765 43.7808C73.1862 42.6001 72.6972 41.4205 72.2 40.2476C71.7027 39.0746 71.1974 37.9088 70.6765 36.7573C70.5296 36.4325 70.3692 36.1186 70.2195 35.7961Z" fill="#26A269"/>
<path d="M66.6902 11.6399C62.5202 17.0589 60.1099 23.6164 55.866 29.0676C50.5004 35.9595 44.6289 42.4677 38.239 48.3958C34.2476 52.0988 28.3866 52.6077 23.8133 55.4836C20.8163 57.3683 16.9433 59.9162 17.2801 63.8547C17.588 67.457 21.3866 69.1954 24.4519 69.9133C29.2808 71.0443 34.4028 71.407 39.3055 70.2512C41.429 69.7506 43.6967 66.4327 45.0496 66.6614C45.2994 69.2051 44.5376 71.9811 46.2879 74.2961C48.3792 77.0624 51.4444 79.6245 55.2644 79.2395C58.1575 78.9479 61.0184 77.9892 63.118 75.6458C64.4242 74.1878 65.5076 71.0226 66.4676 70.3567C66.5251 70.6714 66.5998 70.9783 66.6902 71.2766C66.7807 70.9783 66.8554 70.6714 66.9129 70.3567C67.8728 71.0226 68.9582 74.1878 70.2644 75.6458C72.364 77.9892 75.2249 78.9479 78.118 79.2395C81.938 79.6245 85.0013 77.0624 87.0926 74.2961C88.8428 71.9811 88.083 69.2051 88.3328 66.6614C89.6857 66.4327 91.9534 69.7506 94.0769 70.2512C98.9796 71.407 104.102 71.0443 108.93 69.9133C111.996 69.1954 115.792 67.457 116.1 63.8547C116.437 59.9162 112.564 57.3683 109.567 55.4836C104.994 52.6077 99.1348 52.0988 95.1433 48.3958C88.7535 42.4677 82.8819 35.9595 77.5164 29.0676C73.2725 23.6164 70.8603 17.0589 66.6902 11.6399Z" fill="#33D17A"/>
<path d="M50.9785 187.043C50.8053 187.043 50.6354 187.051 50.4668 187.068C50.2982 187.085 50.1319 187.111 49.9688 187.145C49.8057 187.178 49.6451 187.219 49.4883 187.268C49.3315 187.316 49.1791 187.372 49.0293 187.436C48.8796 187.499 48.7336 187.568 48.5918 187.645C48.45 187.721 48.3108 187.805 48.1778 187.895C48.0447 187.984 47.9164 188.082 47.793 188.184C47.6696 188.285 47.5525 188.393 47.4395 188.506C47.3265 188.619 47.219 188.736 47.1172 188.859C47.0154 188.983 46.9179 189.111 46.8282 189.244C46.7385 189.377 46.655 189.516 46.5782 189.658C46.5014 189.8 46.4323 189.946 46.3692 190.096C46.3061 190.245 46.2498 190.398 46.2012 190.555C46.1526 190.712 46.1114 190.872 46.0782 191.035C46.045 191.198 46.0191 191.365 46.002 191.533C45.985 191.702 45.9766 191.872 45.9766 192.045V199.154C45.9766 199.328 45.9846 199.499 46.002 199.668C46.019 199.837 46.045 200.001 46.0782 200.164C46.1114 200.327 46.1527 200.488 46.2012 200.645C46.2498 200.801 46.3061 200.956 46.3692 201.106C46.4323 201.255 46.5013 201.401 46.5782 201.543C46.655 201.685 46.7384 201.822 46.8282 201.955C46.9179 202.088 47.0154 202.216 47.1172 202.34C47.219 202.463 47.3265 202.582 47.4395 202.695C47.5525 202.808 47.6696 202.916 47.793 203.018C47.9164 203.119 48.0447 203.215 48.1778 203.305C48.3108 203.394 48.45 203.478 48.5918 203.555C48.7336 203.632 48.8796 203.703 49.0293 203.766C49.1791 203.829 49.3315 203.885 49.4883 203.934C49.5355 203.948 49.585 203.957 49.6328 203.971V222.291C49.6328 222.364 49.6398 222.438 49.6523 222.51C49.6651 222.582 49.6838 222.652 49.709 222.723C49.7343 222.794 49.7652 222.866 49.8026 222.936C49.84 223.006 49.8841 223.074 49.9335 223.143C50.0321 223.28 50.1545 223.415 50.2987 223.547C50.443 223.679 50.6093 223.808 50.7968 223.934C50.9842 224.06 51.1936 224.183 51.4218 224.303C51.65 224.422 51.8975 224.538 52.164 224.65C52.4304 224.762 52.7152 224.871 53.0175 224.975C53.3198 225.079 53.6388 225.178 53.9745 225.273C54.3102 225.369 54.6626 225.459 55.0292 225.545C55.3958 225.631 55.7767 225.712 56.1718 225.787C56.5669 225.863 56.9753 225.931 57.3964 225.996C57.8175 226.061 58.2525 226.121 58.6972 226.174C59.1418 226.227 59.5966 226.274 60.0624 226.315C60.5282 226.355 61.0037 226.39 61.4882 226.418C61.9726 226.446 62.466 226.468 62.9667 226.483C63.4674 226.497 63.9757 226.504 64.4901 226.504H71.1034C71.6179 226.504 72.1262 226.497 72.6269 226.483C73.1275 226.468 73.6209 226.446 74.1054 226.418C74.5898 226.39 75.0654 226.355 75.5312 226.315C75.9969 226.274 76.4537 226.227 76.8983 226.174C77.343 226.121 77.7761 226.061 78.1972 225.996C78.6183 225.931 79.0267 225.863 79.4218 225.787C79.8169 225.712 80.1978 225.631 80.5644 225.545C80.931 225.459 81.2834 225.369 81.619 225.273C81.9547 225.178 82.2738 225.079 82.5761 224.975C82.8784 224.871 83.1651 224.762 83.4315 224.65C83.698 224.538 83.9455 224.422 84.1737 224.303C84.4019 224.183 84.6093 224.06 84.7968 223.934C84.9842 223.808 85.1506 223.679 85.2948 223.547C85.4391 223.415 85.5614 223.28 85.6601 223.143C85.7094 223.074 85.7535 223.005 85.7909 222.936C85.8284 222.866 85.8594 222.794 85.8846 222.723C85.9099 222.652 85.9285 222.582 85.9412 222.51C85.954 222.438 85.9607 222.364 85.9607 222.291V203.953C85.987 203.945 86.0147 203.942 86.0408 203.934C86.1977 203.885 86.3501 203.829 86.4998 203.766C86.6495 203.703 86.7955 203.632 86.9373 203.555C87.0791 203.478 87.2164 203.394 87.3494 203.305C87.4825 203.215 87.6127 203.119 87.7361 203.018C87.8596 202.916 87.9766 202.808 88.0897 202.695C88.2027 202.582 88.3101 202.463 88.4119 202.34C88.5137 202.216 88.6093 202.088 88.699 201.955C88.7887 201.822 88.8741 201.685 88.951 201.543C89.0278 201.401 89.0969 201.255 89.16 201.106C89.2231 200.956 89.2794 200.801 89.3279 200.645C89.3765 200.488 89.4177 200.327 89.451 200.164C89.4842 200.001 89.5101 199.837 89.5272 199.668C89.5442 199.499 89.5526 199.328 89.5526 199.154V192.045C89.5526 191.872 89.5446 191.702 89.5272 191.533C89.5102 191.365 89.4842 191.198 89.451 191.035C89.4178 190.872 89.3765 190.712 89.3279 190.555C89.2793 190.398 89.2231 190.245 89.16 190.096C89.0969 189.946 89.0278 189.8 88.951 189.658C88.8742 189.516 88.7888 189.377 88.699 189.244C88.6093 189.111 88.5137 188.983 88.4119 188.859C88.3101 188.736 88.2027 188.619 88.0897 188.506C87.9766 188.393 87.8596 188.285 87.7361 188.184C87.6127 188.082 87.4825 187.984 87.3494 187.895C87.2164 187.805 87.0791 187.721 86.9373 187.645C86.7955 187.568 86.6495 187.499 86.4998 187.436C86.3501 187.373 86.1977 187.316 86.0408 187.268C85.884 187.219 85.7235 187.178 85.5604 187.145C85.3972 187.111 85.2309 187.085 85.0623 187.068C84.8937 187.051 84.7219 187.043 84.5486 187.043L50.9785 187.043Z" fill="#55351A"/>
<path d="M54.3274 204.955C57.0651 204.9 59.7857 204.317 62.5387 204.761C63.967 204.991 65.391 204.629 66.8109 204.462C69.6259 204.131 72.4499 203.912 75.323 204.366C76.678 204.58 78.3701 205.167 79.5871 204.265" stroke="#4A2D14" stroke-width="4.392" stroke-linecap="round" stroke-linejoin="round"/>
<path d="M77.9137 12.8087L72.1792 16.8057L70.1597 24.548L64.748 20.087L57.0738 20.4735L59.4636 13.7195L56.7402 6.21609L63.6289 6.50285L69.62 1.479L71.4876 8.41022L77.9137 12.8087Z" fill="#F5C211" stroke="#F5C211" stroke-width="2.8944" stroke-linecap="round" stroke-linejoin="round"/>
<path d="M36.5208 64.4161C39.2283 64.4161 41.4232 62.0446 41.4232 59.1192C41.4232 56.1938 39.2283 53.8223 36.5208 53.8223C33.8133 53.8223 31.6184 56.1938 31.6184 59.1192C31.6184 62.0446 33.8133 64.4161 36.5208 64.4161Z" fill="#F5C211" stroke="#F5C211" stroke-width="4.392" stroke-linecap="round" stroke-linejoin="round"/>
<path d="M85.4597 46.5114C88.5372 46.5114 91.0321 44.1118 91.0321 41.1519C91.0321 38.1919 88.5372 35.7924 85.4597 35.7924C82.3821 35.7924 79.8872 38.1919 79.8872 41.1519C79.8872 44.1118 82.3821 46.5114 85.4597 46.5114Z" fill="#F5C211" stroke="#F5C211" stroke-width="4.392" stroke-linecap="round" stroke-linejoin="round"/>
<path d="M83.2917 123.835C86.2664 123.835 88.6779 121.422 88.6779 118.446C88.6779 115.47 86.2664 113.058 83.2917 113.058C80.317 113.058 77.9055 115.47 77.9055 118.446C77.9055 121.422 80.317 123.835 83.2917 123.835Z" fill="#F5C211" stroke="#F5C211" stroke-width="4.392" stroke-linecap="round" stroke-linejoin="round"/>
<path d="M10.3816 159.659C13.5321 159.659 16.086 157.315 16.086 154.425C16.086 151.534 13.5321 149.19 10.3816 149.19C7.23118 149.19 4.67725 151.534 4.67725 154.425C4.67725 157.315 7.23118 159.659 10.3816 159.659Z" fill="#F5C211" stroke="#F5C211" stroke-width="4.392" stroke-linecap="round" stroke-linejoin="round"/>
<path d="M47.6477 38.4524C47.6693 40.6088 45.7636 39.2623 46.5594 43.373C47.0059 45.6791 49.6721 46.212 52.1945 45.8994C54.076 45.6663 55.3204 39.4955 53.4156 41.8829C51.6014 44.1567 53.1253 47.3623 54.3187 49.7139C56.1081 53.2405 59.8172 50.6234 60.4073 47.4865C60.9918 44.3793 57.6711 45.11 57.5891 47.8376C57.5031 50.6972 59.2384 54.9651 62.342 54.6371C65.4862 54.3049 68.7525 45.8028 66.6519 47.6169C65.1516 48.9127 67.0692 52.6397 67.8951 54.5674C69.4071 58.0971 72.7633 56.2996 72.6177 52.2564C72.5751 51.075 71.7337 48.4098 71.3101 51.1609C70.7489 54.8042 72.4098 59.4189 75.8174 60.7039C79.0425 61.9201 77.8283 52.83 77.8745 54.7402C77.9533 57.9984 80.7919 63.0641 84.1014 61.8891C87.3407 60.739 82.488 51.8425 83.2011 54.2363C84.1867 57.5451 86.9093 61.3305 90.5164 61.6483C94.7667 62.0228 89.4527 55.522 89.8978 56.556C90.9985 59.1133 93.2356 63.0957 96.0459 62.389C99.4581 61.5308 95.893 53.2413 95.252 55.7402C94.7336 57.7612 101.075 63.0979 102.467 59.8851C103.438 57.6453 102.506 51.1609 100.182 52.3566C96.3138 54.3458 100.66 56.821 102.906 58.0663C104.448 58.9208 106.399 55.7552 105.964 54.4741" stroke="#E01B24" stroke-width="4.392" stroke-linecap="round" stroke-linejoin="round"/>
<path d="M21.643 100.818C19.1746 101.842 17.6896 110.25 21.4699 109.158C23.4596 108.583 25.2316 102.223 24.7211 103.137C22.6412 106.861 26.6944 113.105 29.9299 107.928C30.9681 106.267 29.3943 97.783 28.7936 100.737C28.1133 104.081 30.149 110.158 34.1655 109.251C37.3124 108.541 35.125 98.7189 34.7288 102.119C34.3711 105.188 38.748 111.24 41.391 107.158C42.5633 105.347 39.2603 99.5263 39.7443 100.394C41.5063 103.553 43.0692 109.041 47.121 108.617C51.2844 108.183 46.0912 98.9199 46.8923 100.187C48.7071 103.058 50.5474 107.803 54.4206 107.448C58.1507 107.106 53.8051 99.4205 54.0439 100.233C54.971 103.384 59.689 108.441 62.0427 105.588C63.6953 103.584 59.2536 97.9548 59.7734 98.9282C61.3806 101.938 64.7968 105.762 68.4262 104.246C71.0605 103.146 66.8055 96.9706 67.3582 98.155C68.6777 100.983 77.4674 105.462 76.3137 99.886C76.0033 98.3859 72.9946 94.4632 75.0916 97.7477C76.9103 100.596 83.7511 103.001 83.253 97.19C83.0469 94.7856 78.6618 92.8876 81.3116 96.2597C82.867 98.239 91.5426 100.897 89.561 96.6064C88.9499 95.2832 85.2298 90.3688 87.0635 94.4775C88.3728 97.411 97.3429 99.3041 94.4889 94.1921C93.6653 92.7169 89.4687 89.8726 92.7346 92.6373C94.2907 93.9546 102.764 96.9915 99.8495 93.3494C98.7043 91.9184 96.5009 88.9885 99.5104 91.5544C102.326 93.9551 105.898 92.9752 102.213 88.3618" stroke="#E01B24" stroke-width="4.392" stroke-linecap="round" stroke-linejoin="round"/>
<path d="M24.9959 132.606C23.3398 134.384 19.012 142.663 21.9949 141.177C24.3988 139.98 27.8674 130.94 24.3223 137.265C22.2608 140.943 21.0237 146.975 27.6753 142.801C29.5322 141.636 33.5473 133.08 30.2601 138.174C28.8427 140.37 26.9264 149.537 32.0403 145.852C33.4005 144.872 36.6037 135.556 33.4407 140.348C31.4363 143.384 32.8785 152.566 37.1205 146.57C38.4914 144.632 38.3896 140.018 36.7387 144.763C35.6061 148.018 37.4377 156.088 41.3267 149.931C42.6673 147.808 42.4281 142.178 42.0921 147.326C41.9398 149.659 44.8445 159.612 46.3333 153.489C46.8854 151.219 47.6658 143.973 47.6015 150.371C47.5722 153.283 51.1084 160.289 51.9866 153.834C52.3797 150.945 52.6334 145.095 52.6978 151.107C52.7294 154.061 56.4922 162.847 58.6089 156.239C59.2798 154.144 59.194 145.308 59.5948 151.73C59.7908 154.872 65.642 163.968 65.3726 156.28C65.2953 154.074 64.1585 148.031 66.021 153.363C66.758 155.472 74.0067 163.243 71.9608 157.775C71.3341 156.1 70.1473 148.499 71.5441 154.151C72.4668 157.885 79.0704 165.142 77.4835 157.019C77.1164 155.14 74.4914 150.114 77.4498 154.191C78.9077 156.2 84.3381 164.084 84.9444 160.247C85.2741 158.161 80.2903 150.388 84.5389 154.856C86.256 156.661 92.753 164.274 92.1861 160.103C91.8832 157.875 88.5241 151.275 89.6186 152.387C92.0363 154.842 100.024 163.333 99.8346 158.772C99.716 155.919 95.0245 147.905 98.6957 154.141C100.089 156.507 109.602 161.686 106.813 156.204C105.812 154.237 103.068 149.743 106.04 153.963C107.701 156.32 117.328 161.303 114.791 155.381C113.902 153.304 110.763 147.114 113.7 152.408C115.411 155.493 124.873 160.701 122.042 153.63C121.006 151.042 117.002 144.363 120.33 150.301C121.601 152.569 129.643 156.211 127.076 151.071C126.148 149.214 119.483 142.998 123.42 147.883C125.68 150.689 132.961 151.947 128.933 146.562C127.198 144.242 122.755 145.209 127.556 146.524C128.605 146.811 132.48 149.473 132.099 146.983" stroke="#E01B24" stroke-width="4.392" stroke-linecap="round" stroke-linejoin="round"/>
<path d="M35.3212 194.31H11.8207C10.4491 194.31 9.33716 195.422 9.33716 196.794V221.44C9.33716 222.811 10.4491 223.923 11.8207 223.923H35.3212C36.6928 223.923 37.8047 222.811 37.8047 221.44V196.794C37.8047 195.422 36.6928 194.31 35.3212 194.31Z" fill="#E01B24" stroke="#E01B24" stroke-width="4.392" stroke-linecap="round" stroke-linejoin="round"/>
<path d="M25.0541 192.197H21.6223C21.5855 192.197 21.5557 192.75 21.5557 193.431V224.236C21.5557 224.917 21.5855 225.469 21.6223 225.469H25.0541C25.0909 225.469 25.1207 224.917 25.1207 224.236V193.431C25.1207 192.75 25.0909 192.197 25.0541 192.197Z" fill="#F5C211" stroke="#F5C211" stroke-width="3.50709" stroke-linecap="round" stroke-linejoin="round"/>
<path d="M21.403 192.587C20.5941 194.784 17.8405 193.473 16.2666 193.028C13.3735 192.21 11.1896 189.962 9.11556 187.86C7.84138 186.568 7.94033 184.639 9.6668 183.462C11.7838 182.018 14.6266 182.403 16.6521 183.854C19.2922 185.745 20.6712 188.918 23.0424 191.09C23.7424 191.731 23.1779 192.861 23.2608 192.958C24.7695 194.736 26.8039 193.701 28.5595 193.022C31.1808 192.008 33.9551 190.728 35.5601 188.313C37.4359 185.491 34.3738 181.21 31.1644 182.085C28.5367 182.802 27.314 185.549 26.4488 187.847C25.6412 189.991 23.7526 191.438 22.6624 193.396C22.2702 194.1 21.9432 194.885 21.3098 195.413" stroke="#F5C211" stroke-width="4.392" stroke-linecap="round" stroke-linejoin="round"/>
<path d="M7.22095 203.196C10.8083 202.515 14.4393 203.232 18.0548 203.24C23.4802 203.253 28.9092 203.289 34.3212 203.732C36.0284 203.872 37.7962 203.823 39.4373 204.36L39.5591 204.471L39.5381 204.593" stroke="#F5C211" stroke-width="4.392" stroke-linecap="round" stroke-linejoin="round"/>
</g>
<defs>
<clipPath id="clip0_6_2">
<rect width="134.326" height="227.985" fill="white"/>
</clipPath>
</defs>
</svg>
