<?xml version="1.0" encoding="UTF-8"?>
<!DOCTYPE svg PUBLIC "-//W3C//DTD SVG 1.1//EN" "http://www.w3.org/Graphics/SVG/1.1/DTD/svg11.dtd">
<svg version="1.2" width="210mm" height="210mm" viewBox="0 0 21000 21000" preserveAspectRatio="xMidYMid" fill-rule="evenodd" stroke-width="28.222" stroke-linejoin="round" xmlns="http://www.w3.org/2000/svg" xmlns:ooo="http://xml.openoffice.org/svg/export" xmlns:xlink="http://www.w3.org/1999/xlink" xmlns:presentation="http://sun.com/xmlns/staroffice/presentation" xmlns:smil="http://www.w3.org/2001/SMIL20/" xmlns:anim="urn:oasis:names:tc:opendocument:xmlns:animation:1.0" xml:space="preserve">
 <defs class="ClipPathGroup">
  <clipPath id="presentation_clip_path" clipPathUnits="userSpaceOnUse">
   <rect x="0" y="0" width="21000" height="21000"/>
  </clipPath>
  <clipPath id="presentation_clip_path_shrink" clipPathUnits="userSpaceOnUse">
   <rect x="21" y="21" width="20958" height="20958"/>
  </clipPath>
 </defs>
 <defs class="TextShapeIndex">
  <g ooo:slide="id1" ooo:id-list="id3 id4 id5 id6 id7 id8 id9 id10 id11 id12 id13 id14 id15 id16 id17 id18 id19 id20 id21 id22 id23 id24 id25 id26 id27 id28 id29 id30 id31 id32 id33 id34 id35 id36 id37 id38 id39 id40 id41 id42 id43 id44 id45 id46 id47 id48 id49 id50 id51 id52 id53 id54 id55 id56 id57 id58 id59 id60 id61"/>
 </defs>
 <defs class="EmbeddedBulletChars">
  <g id="bullet-char-template-57356" transform="scale(0.00048828125,-0.00048828125)">
   <path d="M 580,1141 L 1163,571 580,0 -4,571 580,1141 Z"/>
  </g>
  <g id="bullet-char-template-57354" transform="scale(0.00048828125,-0.00048828125)">
   <path d="M 8,1128 L 1137,1128 1137,0 8,0 8,1128 Z"/>
  </g>
  <g id="bullet-char-template-10146" transform="scale(0.00048828125,-0.00048828125)">
   <path d="M 174,0 L 602,739 174,1481 1456,739 174,0 Z M 1358,739 L 309,1346 659,739 1358,739 Z"/>
  </g>
  <g id="bullet-char-template-10132" transform="scale(0.00048828125,-0.00048828125)">
   <path d="M 2015,739 L 1276,0 717,0 1260,543 174,543 174,936 1260,936 717,1481 1274,1481 2015,739 Z"/>
  </g>
  <g id="bullet-char-template-10007" transform="scale(0.00048828125,-0.00048828125)">
   <path d="M 0,-2 C -7,14 -16,27 -25,37 L 356,567 C 262,823 215,952 215,954 215,979 228,992 255,992 264,992 276,990 289,987 310,991 331,999 354,1012 L 381,999 492,748 772,1049 836,1024 860,1049 C 881,1039 901,1025 922,1006 886,937 835,863 770,784 769,783 710,716 594,584 L 774,223 C 774,196 753,168 711,139 L 727,119 C 717,90 699,76 672,76 641,76 570,178 457,381 L 164,-76 C 142,-110 111,-127 72,-127 30,-127 9,-110 8,-76 1,-67 -2,-52 -2,-32 -2,-23 -1,-13 0,-2 Z"/>
  </g>
  <g id="bullet-char-template-10004" transform="scale(0.00048828125,-0.00048828125)">
   <path d="M 285,-33 C 182,-33 111,30 74,156 52,228 41,333 41,471 41,549 55,616 82,672 116,743 169,778 240,778 293,778 328,747 346,684 L 369,508 C 377,444 397,411 428,410 L 1163,1116 C 1174,1127 1196,1133 1229,1133 1271,1133 1292,1118 1292,1087 L 1292,965 C 1292,929 1282,901 1262,881 L 442,47 C 390,-6 338,-33 285,-33 Z"/>
  </g>
  <g id="bullet-char-template-9679" transform="scale(0.00048828125,-0.00048828125)">
   <path d="M 813,0 C 632,0 489,54 383,161 276,268 223,411 223,592 223,773 276,916 383,1023 489,1130 632,1184 813,1184 992,1184 1136,1130 1245,1023 1353,916 1407,772 1407,592 1407,412 1353,268 1245,161 1136,54 992,0 813,0 Z"/>
  </g>
  <g id="bullet-char-template-8226" transform="scale(0.00048828125,-0.00048828125)">
   <path d="M 346,457 C 273,457 209,483 155,535 101,586 74,649 74,723 74,796 101,859 155,911 209,963 273,989 346,989 419,989 480,963 531,910 582,859 608,796 608,723 608,648 583,586 532,535 482,483 420,457 346,457 Z"/>
  </g>
  <g id="bullet-char-template-8211" transform="scale(0.00048828125,-0.00048828125)">
   <path d="M -4,459 L 1135,459 1135,606 -4,606 -4,459 Z"/>
  </g>
  <g id="bullet-char-template-61548" transform="scale(0.00048828125,-0.00048828125)">
   <path d="M 173,740 C 173,903 231,1043 346,1159 462,1274 601,1332 765,1332 928,1332 1067,1274 1183,1159 1299,1043 1357,903 1357,740 1357,577 1299,437 1183,322 1067,206 928,148 765,148 601,148 462,206 346,322 231,437 173,577 173,740 Z"/>
  </g>
 </defs>
 <g>
  <g id="id2" class="Master_Slide">
   <g id="bg-id2" class="Background"/>
   <g id="bo-id2" class="BackgroundObjects"/>
  </g>
 </g>
 <g class="SlideGroup">
  <g>
   <g id="container-id1">
    <g id="id1" class="Slide" clip-path="url(#presentation_clip_path)">
     <g class="Page">
      <g class="com.sun.star.drawing.CustomShape">
       <g id="id3">
        <rect class="BoundingBox" stroke="none" fill="none" x="6487" y="3373" width="9465" height="14255"/>
        <path fill="rgb(255,255,255)" stroke="none" d="M 8065,3374 L 8065,3374 C 7788,3374 7516,3447 7276,3585 7037,3724 6838,3923 6699,4163 6561,4402 6488,4674 6488,4951 L 6488,16049 6488,16049 C 6488,16326 6561,16598 6699,16838 6838,17077 7037,17276 7277,17415 7516,17553 7788,17626 8065,17626 L 14373,17626 14373,17626 C 14650,17626 14922,17553 15161,17415 15401,17276 15600,17077 15739,16838 15877,16598 15950,16326 15950,16049 L 15950,4951 15950,4951 15950,4951 C 15950,4674 15877,4402 15739,4162 15600,3923 15401,3724 15161,3585 14922,3447 14650,3374 14373,3374 L 8065,3374 Z"/>
        <path fill="none" stroke="rgb(255,255,255)" d="M 8065,3374 L 8065,3374 C 7788,3374 7516,3447 7276,3585 7037,3724 6838,3923 6699,4163 6561,4402 6488,4674 6488,4951 L 6488,16049 6488,16049 C 6488,16326 6561,16598 6699,16838 6838,17077 7037,17276 7277,17415 7516,17553 7788,17626 8065,17626 L 14373,17626 14373,17626 C 14650,17626 14922,17553 15161,17415 15401,17276 15600,17077 15739,16838 15877,16598 15950,16326 15950,16049 L 15950,4951 15950,4951 15950,4951 C 15950,4674 15877,4402 15739,4162 15600,3923 15401,3724 15161,3585 14922,3447 14650,3374 14373,3374 L 8065,3374 Z"/>
       </g>
      </g>
      <g class="com.sun.star.drawing.CustomShape">
       <g id="id4">
        <rect class="BoundingBox" stroke="none" fill="none" x="6149" y="3374" width="2059" height="14253"/>
        <path fill="rgb(255,255,255)" stroke="none" d="M 7178,17625 L 6150,17625 6150,3375 8206,3375 8206,17625 7178,17625 Z"/>
        <path fill="none" stroke="rgb(255,255,255)" d="M 7178,17625 L 6150,17625 6150,3375 8206,3375 8206,17625 7178,17625 Z"/>
       </g>
      </g>
      <g class="com.sun.star.drawing.CustomShape">
       <g id="id5">
        <rect class="BoundingBox" stroke="none" fill="none" x="6587" y="3474" width="9215" height="14004"/>
        <path fill="rgb(220,106,207)" stroke="none" d="M 8123,3475 L 8123,3475 C 7854,3475 7589,3546 7356,3681 7122,3815 6928,4009 6794,4243 6659,4476 6588,4741 6588,5010 L 6588,15940 6588,15941 C 6588,16210 6659,16475 6794,16708 6928,16942 7122,17136 7356,17270 7589,17405 7854,17476 8123,17476 L 14264,17476 14265,17476 C 14534,17476 14799,17405 15032,17270 15266,17136 15460,16942 15594,16708 15729,16475 15800,16210 15800,15941 L 15800,5010 15800,5010 15800,5010 C 15800,4741 15729,4476 15594,4243 15460,4009 15266,3815 15032,3681 14799,3546 14534,3475 14265,3475 L 8123,3475 Z"/>
        <path fill="none" stroke="rgb(220,106,207)" d="M 8123,3475 L 8123,3475 C 7854,3475 7589,3546 7356,3681 7122,3815 6928,4009 6794,4243 6659,4476 6588,4741 6588,5010 L 6588,15940 6588,15941 C 6588,16210 6659,16475 6794,16708 6928,16942 7122,17136 7356,17270 7589,17405 7854,17476 8123,17476 L 14264,17476 14265,17476 C 14534,17476 14799,17405 15032,17270 15266,17136 15460,16942 15594,16708 15729,16475 15800,16210 15800,15941 L 15800,5010 15800,5010 15800,5010 C 15800,4741 15729,4476 15594,4243 15460,4009 15266,3815 15032,3681 14799,3546 14534,3475 14265,3475 L 8123,3475 Z"/>
       </g>
      </g>
      <g class="Group">
       <g class="com.sun.star.drawing.CustomShape">
        <g id="id6">
         <rect class="BoundingBox" stroke="none" fill="none" x="6888" y="4504" width="515" height="652"/>
         <path fill="rgb(255,255,255)" stroke="none" d="M 7401,4830 C 7401,4886 7389,4942 7367,4992 7344,5041 7312,5082 7273,5111 7234,5139 7190,5154 7145,5154 7100,5154 7056,5139 7017,5111 6978,5082 6946,5041 6923,4992 6901,4942 6889,4886 6889,4830 6889,4773 6901,4717 6923,4667 6946,4618 6978,4577 7017,4548 7056,4520 7100,4505 7145,4505 7190,4505 7234,4520 7273,4548 7312,4577 7344,4618 7367,4667 7389,4717 7401,4773 7401,4830 L 7401,4830 Z"/>
         <path fill="none" stroke="rgb(255,255,255)" d="M 7401,4830 C 7401,4886 7389,4942 7367,4992 7344,5041 7312,5082 7273,5111 7234,5139 7190,5154 7145,5154 7100,5154 7056,5139 7017,5111 6978,5082 6946,5041 6923,4992 6901,4942 6889,4886 6889,4830 6889,4773 6901,4717 6923,4667 6946,4618 6978,4577 7017,4548 7056,4520 7100,4505 7145,4505 7190,4505 7234,4520 7273,4548 7312,4577 7344,4618 7367,4667 7389,4717 7401,4773 7401,4830 Z"/>
        </g>
       </g>
       <g class="com.sun.star.drawing.CustomShape">
        <g id="id7">
         <rect class="BoundingBox" stroke="none" fill="none" x="5253" y="4504" width="1843" height="651"/>
         <path fill="rgb(255,255,255)" stroke="none" d="M 6174,5153 L 5254,5153 5254,4505 7094,4505 7094,5153 6174,5153 Z"/>
         <path fill="none" stroke="rgb(255,255,255)" d="M 6174,5153 L 5254,5153 5254,4505 7094,4505 7094,5153 6174,5153 Z"/>
        </g>
       </g>
       <g class="com.sun.star.drawing.CustomShape">
        <g id="id8">
         <rect class="BoundingBox" stroke="none" fill="none" x="5048" y="4505" width="515" height="652"/>
         <path fill="rgb(255,255,255)" stroke="none" d="M 5561,4831 C 5561,4887 5549,4943 5527,4993 5504,5042 5472,5083 5433,5112 5394,5140 5350,5155 5305,5155 5260,5155 5216,5140 5177,5112 5138,5083 5106,5042 5083,4993 5061,4943 5049,4887 5049,4831 5049,4774 5061,4718 5083,4668 5106,4619 5138,4578 5177,4549 5216,4521 5260,4506 5305,4506 5350,4506 5394,4521 5433,4549 5472,4578 5504,4619 5527,4668 5549,4718 5561,4774 5561,4831 L 5561,4831 Z"/>
         <path fill="none" stroke="rgb(255,255,255)" d="M 5561,4831 C 5561,4887 5549,4943 5527,4993 5504,5042 5472,5083 5433,5112 5394,5140 5350,5155 5305,5155 5260,5155 5216,5140 5177,5112 5138,5083 5106,5042 5083,4993 5061,4943 5049,4887 5049,4831 5049,4774 5061,4718 5083,4668 5106,4619 5138,4578 5177,4549 5216,4521 5260,4506 5305,4506 5350,4506 5394,4521 5433,4549 5472,4578 5504,4619 5527,4668 5549,4718 5561,4774 5561,4831 Z"/>
        </g>
       </g>
      </g>
      <g class="Group">
       <g class="com.sun.star.drawing.CustomShape">
        <g id="id9">
         <rect class="BoundingBox" stroke="none" fill="none" x="6888" y="6105" width="515" height="652"/>
         <path fill="rgb(255,255,255)" stroke="none" d="M 7401,6431 C 7401,6487 7389,6543 7367,6593 7344,6642 7312,6683 7273,6712 7234,6740 7190,6755 7145,6755 7100,6755 7056,6740 7017,6712 6978,6683 6946,6642 6923,6593 6901,6543 6889,6487 6889,6431 6889,6374 6901,6318 6923,6268 6946,6219 6978,6178 7017,6149 7056,6121 7100,6106 7145,6106 7190,6106 7234,6121 7273,6149 7312,6178 7344,6219 7367,6268 7389,6318 7401,6374 7401,6431 L 7401,6431 Z"/>
         <path fill="none" stroke="rgb(255,255,255)" d="M 7401,6431 C 7401,6487 7389,6543 7367,6593 7344,6642 7312,6683 7273,6712 7234,6740 7190,6755 7145,6755 7100,6755 7056,6740 7017,6712 6978,6683 6946,6642 6923,6593 6901,6543 6889,6487 6889,6431 6889,6374 6901,6318 6923,6268 6946,6219 6978,6178 7017,6149 7056,6121 7100,6106 7145,6106 7190,6106 7234,6121 7273,6149 7312,6178 7344,6219 7367,6268 7389,6318 7401,6374 7401,6431 Z"/>
        </g>
       </g>
       <g class="com.sun.star.drawing.CustomShape">
        <g id="id10">
         <rect class="BoundingBox" stroke="none" fill="none" x="5253" y="6105" width="1843" height="651"/>
         <path fill="rgb(255,255,255)" stroke="none" d="M 6174,6754 L 5254,6754 5254,6106 7094,6106 7094,6754 6174,6754 Z"/>
         <path fill="none" stroke="rgb(255,255,255)" d="M 6174,6754 L 5254,6754 5254,6106 7094,6106 7094,6754 6174,6754 Z"/>
        </g>
       </g>
       <g class="com.sun.star.drawing.CustomShape">
        <g id="id11">
         <rect class="BoundingBox" stroke="none" fill="none" x="5048" y="6106" width="515" height="652"/>
         <path fill="rgb(255,255,255)" stroke="none" d="M 5561,6432 C 5561,6488 5549,6544 5527,6594 5504,6643 5472,6684 5433,6713 5394,6741 5350,6756 5305,6756 5260,6756 5216,6741 5177,6713 5138,6684 5106,6643 5083,6594 5061,6544 5049,6488 5049,6432 5049,6375 5061,6319 5083,6269 5106,6220 5138,6179 5177,6150 5216,6122 5260,6107 5305,6107 5350,6107 5394,6122 5433,6150 5472,6179 5504,6220 5527,6269 5549,6319 5561,6375 5561,6432 L 5561,6432 Z"/>
         <path fill="none" stroke="rgb(255,255,255)" d="M 5561,6432 C 5561,6488 5549,6544 5527,6594 5504,6643 5472,6684 5433,6713 5394,6741 5350,6756 5305,6756 5260,6756 5216,6741 5177,6713 5138,6684 5106,6643 5083,6594 5061,6544 5049,6488 5049,6432 5049,6375 5061,6319 5083,6269 5106,6220 5138,6179 5177,6150 5216,6122 5260,6107 5305,6107 5350,6107 5394,6122 5433,6150 5472,6179 5504,6220 5527,6269 5549,6319 5561,6375 5561,6432 Z"/>
        </g>
       </g>
      </g>
      <g class="Group">
       <g class="com.sun.star.drawing.CustomShape">
        <g id="id12">
         <rect class="BoundingBox" stroke="none" fill="none" x="6888" y="7705" width="515" height="652"/>
         <path fill="rgb(255,255,255)" stroke="none" d="M 7401,8031 C 7401,8087 7389,8143 7367,8193 7344,8242 7312,8283 7273,8312 7234,8340 7190,8355 7145,8355 7100,8355 7056,8340 7017,8312 6978,8283 6946,8242 6923,8193 6901,8143 6889,8087 6889,8031 6889,7974 6901,7918 6923,7868 6946,7819 6978,7778 7017,7749 7056,7721 7100,7706 7145,7706 7190,7706 7234,7721 7273,7749 7312,7778 7344,7819 7367,7868 7389,7918 7401,7974 7401,8031 L 7401,8031 Z"/>
         <path fill="none" stroke="rgb(255,255,255)" d="M 7401,8031 C 7401,8087 7389,8143 7367,8193 7344,8242 7312,8283 7273,8312 7234,8340 7190,8355 7145,8355 7100,8355 7056,8340 7017,8312 6978,8283 6946,8242 6923,8193 6901,8143 6889,8087 6889,8031 6889,7974 6901,7918 6923,7868 6946,7819 6978,7778 7017,7749 7056,7721 7100,7706 7145,7706 7190,7706 7234,7721 7273,7749 7312,7778 7344,7819 7367,7868 7389,7918 7401,7974 7401,8031 Z"/>
        </g>
       </g>
       <g class="com.sun.star.drawing.CustomShape">
        <g id="id13">
         <rect class="BoundingBox" stroke="none" fill="none" x="5253" y="7705" width="1843" height="651"/>
         <path fill="rgb(255,255,255)" stroke="none" d="M 6174,8354 L 5254,8354 5254,7706 7094,7706 7094,8354 6174,8354 Z"/>
         <path fill="none" stroke="rgb(255,255,255)" d="M 6174,8354 L 5254,8354 5254,7706 7094,7706 7094,8354 6174,8354 Z"/>
        </g>
       </g>
       <g class="com.sun.star.drawing.CustomShape">
        <g id="id14">
         <rect class="BoundingBox" stroke="none" fill="none" x="5048" y="7706" width="515" height="652"/>
         <path fill="rgb(255,255,255)" stroke="none" d="M 5561,8032 C 5561,8088 5549,8144 5527,8194 5504,8243 5472,8284 5433,8313 5394,8341 5350,8356 5305,8356 5260,8356 5216,8341 5177,8313 5138,8284 5106,8243 5083,8194 5061,8144 5049,8088 5049,8032 5049,7975 5061,7919 5083,7869 5106,7820 5138,7779 5177,7750 5216,7722 5260,7707 5305,7707 5350,7707 5394,7722 5433,7750 5472,7779 5504,7820 5527,7869 5549,7919 5561,7975 5561,8032 L 5561,8032 Z"/>
         <path fill="none" stroke="rgb(255,255,255)" d="M 5561,8032 C 5561,8088 5549,8144 5527,8194 5504,8243 5472,8284 5433,8313 5394,8341 5350,8356 5305,8356 5260,8356 5216,8341 5177,8313 5138,8284 5106,8243 5083,8194 5061,8144 5049,8088 5049,8032 5049,7975 5061,7919 5083,7869 5106,7820 5138,7779 5177,7750 5216,7722 5260,7707 5305,7707 5350,7707 5394,7722 5433,7750 5472,7779 5504,7820 5527,7869 5549,7919 5561,7975 5561,8032 Z"/>
        </g>
       </g>
      </g>
      <g class="Group">
       <g class="com.sun.star.drawing.CustomShape">
        <g id="id15">
         <rect class="BoundingBox" stroke="none" fill="none" x="6888" y="9305" width="515" height="652"/>
         <path fill="rgb(255,255,255)" stroke="none" d="M 7401,9631 C 7401,9687 7389,9743 7367,9793 7344,9842 7312,9883 7273,9912 7234,9940 7190,9955 7145,9955 7100,9955 7056,9940 7017,9912 6978,9883 6946,9842 6923,9793 6901,9743 6889,9687 6889,9631 6889,9574 6901,9518 6923,9468 6946,9419 6978,9378 7017,9349 7056,9321 7100,9306 7145,9306 7190,9306 7234,9321 7273,9349 7312,9378 7344,9419 7367,9468 7389,9518 7401,9574 7401,9631 L 7401,9631 Z"/>
         <path fill="none" stroke="rgb(255,255,255)" d="M 7401,9631 C 7401,9687 7389,9743 7367,9793 7344,9842 7312,9883 7273,9912 7234,9940 7190,9955 7145,9955 7100,9955 7056,9940 7017,9912 6978,9883 6946,9842 6923,9793 6901,9743 6889,9687 6889,9631 6889,9574 6901,9518 6923,9468 6946,9419 6978,9378 7017,9349 7056,9321 7100,9306 7145,9306 7190,9306 7234,9321 7273,9349 7312,9378 7344,9419 7367,9468 7389,9518 7401,9574 7401,9631 Z"/>
        </g>
       </g>
       <g class="com.sun.star.drawing.CustomShape">
        <g id="id16">
         <rect class="BoundingBox" stroke="none" fill="none" x="5253" y="9305" width="1843" height="651"/>
         <path fill="rgb(255,255,255)" stroke="none" d="M 6174,9954 L 5254,9954 5254,9306 7094,9306 7094,9954 6174,9954 Z"/>
         <path fill="none" stroke="rgb(255,255,255)" d="M 6174,9954 L 5254,9954 5254,9306 7094,9306 7094,9954 6174,9954 Z"/>
        </g>
       </g>
       <g class="com.sun.star.drawing.CustomShape">
        <g id="id17">
         <rect class="BoundingBox" stroke="none" fill="none" x="5048" y="9306" width="515" height="652"/>
         <path fill="rgb(255,255,255)" stroke="none" d="M 5561,9632 C 5561,9688 5549,9744 5527,9794 5504,9843 5472,9884 5433,9913 5394,9941 5350,9956 5305,9956 5260,9956 5216,9941 5177,9913 5138,9884 5106,9843 5083,9794 5061,9744 5049,9688 5049,9632 5049,9575 5061,9519 5083,9469 5106,9420 5138,9379 5177,9350 5216,9322 5260,9307 5305,9307 5350,9307 5394,9322 5433,9350 5472,9379 5504,9420 5527,9469 5549,9519 5561,9575 5561,9632 L 5561,9632 Z"/>
         <path fill="none" stroke="rgb(255,255,255)" d="M 5561,9632 C 5561,9688 5549,9744 5527,9794 5504,9843 5472,9884 5433,9913 5394,9941 5350,9956 5305,9956 5260,9956 5216,9941 5177,9913 5138,9884 5106,9843 5083,9794 5061,9744 5049,9688 5049,9632 5049,9575 5061,9519 5083,9469 5106,9420 5138,9379 5177,9350 5216,9322 5260,9307 5305,9307 5350,9307 5394,9322 5433,9350 5472,9379 5504,9420 5527,9469 5549,9519 5561,9575 5561,9632 Z"/>
        </g>
       </g>
      </g>
      <g class="Group">
       <g class="com.sun.star.drawing.CustomShape">
        <g id="id18">
         <rect class="BoundingBox" stroke="none" fill="none" x="6888" y="10905" width="515" height="652"/>
         <path fill="rgb(255,255,255)" stroke="none" d="M 7401,11231 C 7401,11287 7389,11343 7367,11393 7344,11442 7312,11483 7273,11512 7234,11540 7190,11555 7145,11555 7100,11555 7056,11540 7017,11512 6978,11483 6946,11442 6923,11393 6901,11343 6889,11287 6889,11231 6889,11174 6901,11118 6923,11068 6946,11019 6978,10978 7017,10949 7056,10921 7100,10906 7145,10906 7190,10906 7234,10921 7273,10949 7312,10978 7344,11019 7367,11068 7389,11118 7401,11174 7401,11231 L 7401,11231 Z"/>
         <path fill="none" stroke="rgb(255,255,255)" d="M 7401,11231 C 7401,11287 7389,11343 7367,11393 7344,11442 7312,11483 7273,11512 7234,11540 7190,11555 7145,11555 7100,11555 7056,11540 7017,11512 6978,11483 6946,11442 6923,11393 6901,11343 6889,11287 6889,11231 6889,11174 6901,11118 6923,11068 6946,11019 6978,10978 7017,10949 7056,10921 7100,10906 7145,10906 7190,10906 7234,10921 7273,10949 7312,10978 7344,11019 7367,11068 7389,11118 7401,11174 7401,11231 Z"/>
        </g>
       </g>
       <g class="com.sun.star.drawing.CustomShape">
        <g id="id19">
         <rect class="BoundingBox" stroke="none" fill="none" x="5253" y="10905" width="1843" height="651"/>
         <path fill="rgb(255,255,255)" stroke="none" d="M 6174,11554 L 5254,11554 5254,10906 7094,10906 7094,11554 6174,11554 Z"/>
         <path fill="none" stroke="rgb(255,255,255)" d="M 6174,11554 L 5254,11554 5254,10906 7094,10906 7094,11554 6174,11554 Z"/>
        </g>
       </g>
       <g class="com.sun.star.drawing.CustomShape">
        <g id="id20">
         <rect class="BoundingBox" stroke="none" fill="none" x="5048" y="10906" width="515" height="652"/>
         <path fill="rgb(255,255,255)" stroke="none" d="M 5561,11232 C 5561,11288 5549,11344 5527,11394 5504,11443 5472,11484 5433,11513 5394,11541 5350,11556 5305,11556 5260,11556 5216,11541 5177,11513 5138,11484 5106,11443 5083,11394 5061,11344 5049,11288 5049,11232 5049,11175 5061,11119 5083,11069 5106,11020 5138,10979 5177,10950 5216,10922 5260,10907 5305,10907 5350,10907 5394,10922 5433,10950 5472,10979 5504,11020 5527,11069 5549,11119 5561,11175 5561,11232 L 5561,11232 Z"/>
         <path fill="none" stroke="rgb(255,255,255)" d="M 5561,11232 C 5561,11288 5549,11344 5527,11394 5504,11443 5472,11484 5433,11513 5394,11541 5350,11556 5305,11556 5260,11556 5216,11541 5177,11513 5138,11484 5106,11443 5083,11394 5061,11344 5049,11288 5049,11232 5049,11175 5061,11119 5083,11069 5106,11020 5138,10979 5177,10950 5216,10922 5260,10907 5305,10907 5350,10907 5394,10922 5433,10950 5472,10979 5504,11020 5527,11069 5549,11119 5561,11175 5561,11232 Z"/>
        </g>
       </g>
      </g>
      <g class="Group">
       <g class="com.sun.star.drawing.CustomShape">
        <g id="id21">
         <rect class="BoundingBox" stroke="none" fill="none" x="6888" y="12505" width="515" height="652"/>
         <path fill="rgb(255,255,255)" stroke="none" d="M 7401,12831 C 7401,12887 7389,12943 7367,12993 7344,13042 7312,13083 7273,13112 7234,13140 7190,13155 7145,13155 7100,13155 7056,13140 7017,13112 6978,13083 6946,13042 6923,12993 6901,12943 6889,12887 6889,12831 6889,12774 6901,12718 6923,12668 6946,12619 6978,12578 7017,12549 7056,12521 7100,12506 7145,12506 7190,12506 7234,12521 7273,12549 7312,12578 7344,12619 7367,12668 7389,12718 7401,12774 7401,12831 L 7401,12831 Z"/>
         <path fill="none" stroke="rgb(255,255,255)" d="M 7401,12831 C 7401,12887 7389,12943 7367,12993 7344,13042 7312,13083 7273,13112 7234,13140 7190,13155 7145,13155 7100,13155 7056,13140 7017,13112 6978,13083 6946,13042 6923,12993 6901,12943 6889,12887 6889,12831 6889,12774 6901,12718 6923,12668 6946,12619 6978,12578 7017,12549 7056,12521 7100,12506 7145,12506 7190,12506 7234,12521 7273,12549 7312,12578 7344,12619 7367,12668 7389,12718 7401,12774 7401,12831 Z"/>
        </g>
       </g>
       <g class="com.sun.star.drawing.CustomShape">
        <g id="id22">
         <rect class="BoundingBox" stroke="none" fill="none" x="5253" y="12505" width="1843" height="651"/>
         <path fill="rgb(255,255,255)" stroke="none" d="M 6174,13154 L 5254,13154 5254,12506 7094,12506 7094,13154 6174,13154 Z"/>
         <path fill="none" stroke="rgb(255,255,255)" d="M 6174,13154 L 5254,13154 5254,12506 7094,12506 7094,13154 6174,13154 Z"/>
        </g>
       </g>
       <g class="com.sun.star.drawing.CustomShape">
        <g id="id23">
         <rect class="BoundingBox" stroke="none" fill="none" x="5048" y="12506" width="515" height="652"/>
         <path fill="rgb(255,255,255)" stroke="none" d="M 5561,12832 C 5561,12888 5549,12944 5527,12994 5504,13043 5472,13084 5433,13113 5394,13141 5350,13156 5305,13156 5260,13156 5216,13141 5177,13113 5138,13084 5106,13043 5083,12994 5061,12944 5049,12888 5049,12832 5049,12775 5061,12719 5083,12669 5106,12620 5138,12579 5177,12550 5216,12522 5260,12507 5305,12507 5350,12507 5394,12522 5433,12550 5472,12579 5504,12620 5527,12669 5549,12719 5561,12775 5561,12832 L 5561,12832 Z"/>
         <path fill="none" stroke="rgb(255,255,255)" d="M 5561,12832 C 5561,12888 5549,12944 5527,12994 5504,13043 5472,13084 5433,13113 5394,13141 5350,13156 5305,13156 5260,13156 5216,13141 5177,13113 5138,13084 5106,13043 5083,12994 5061,12944 5049,12888 5049,12832 5049,12775 5061,12719 5083,12669 5106,12620 5138,12579 5177,12550 5216,12522 5260,12507 5305,12507 5350,12507 5394,12522 5433,12550 5472,12579 5504,12620 5527,12669 5549,12719 5561,12775 5561,12832 Z"/>
        </g>
       </g>
      </g>
      <g class="Group">
       <g class="com.sun.star.drawing.CustomShape">
        <g id="id24">
         <rect class="BoundingBox" stroke="none" fill="none" x="6888" y="14106" width="515" height="652"/>
         <path fill="rgb(255,255,255)" stroke="none" d="M 7401,14432 C 7401,14488 7389,14544 7367,14594 7344,14643 7312,14684 7273,14713 7234,14741 7190,14756 7145,14756 7100,14756 7056,14741 7017,14713 6978,14684 6946,14643 6923,14594 6901,14544 6889,14488 6889,14432 6889,14375 6901,14319 6923,14269 6946,14220 6978,14179 7017,14150 7056,14122 7100,14107 7145,14107 7190,14107 7234,14122 7273,14150 7312,14179 7344,14220 7367,14269 7389,14319 7401,14375 7401,14432 L 7401,14432 Z"/>
         <path fill="none" stroke="rgb(255,255,255)" d="M 7401,14432 C 7401,14488 7389,14544 7367,14594 7344,14643 7312,14684 7273,14713 7234,14741 7190,14756 7145,14756 7100,14756 7056,14741 7017,14713 6978,14684 6946,14643 6923,14594 6901,14544 6889,14488 6889,14432 6889,14375 6901,14319 6923,14269 6946,14220 6978,14179 7017,14150 7056,14122 7100,14107 7145,14107 7190,14107 7234,14122 7273,14150 7312,14179 7344,14220 7367,14269 7389,14319 7401,14375 7401,14432 Z"/>
        </g>
       </g>
       <g class="com.sun.star.drawing.CustomShape">
        <g id="id25">
         <rect class="BoundingBox" stroke="none" fill="none" x="5253" y="14106" width="1843" height="651"/>
         <path fill="rgb(255,255,255)" stroke="none" d="M 6174,14755 L 5254,14755 5254,14107 7094,14107 7094,14755 6174,14755 Z"/>
         <path fill="none" stroke="rgb(255,255,255)" d="M 6174,14755 L 5254,14755 5254,14107 7094,14107 7094,14755 6174,14755 Z"/>
        </g>
       </g>
       <g class="com.sun.star.drawing.CustomShape">
        <g id="id26">
         <rect class="BoundingBox" stroke="none" fill="none" x="5048" y="14107" width="515" height="652"/>
         <path fill="rgb(255,255,255)" stroke="none" d="M 5561,14433 C 5561,14489 5549,14545 5527,14595 5504,14644 5472,14685 5433,14714 5394,14742 5350,14757 5305,14757 5260,14757 5216,14742 5177,14714 5138,14685 5106,14644 5083,14595 5061,14545 5049,14489 5049,14433 5049,14376 5061,14320 5083,14270 5106,14221 5138,14180 5177,14151 5216,14123 5260,14108 5305,14108 5350,14108 5394,14123 5433,14151 5472,14180 5504,14221 5527,14270 5549,14320 5561,14376 5561,14433 L 5561,14433 Z"/>
         <path fill="none" stroke="rgb(255,255,255)" d="M 5561,14433 C 5561,14489 5549,14545 5527,14595 5504,14644 5472,14685 5433,14714 5394,14742 5350,14757 5305,14757 5260,14757 5216,14742 5177,14714 5138,14685 5106,14644 5083,14595 5061,14545 5049,14489 5049,14433 5049,14376 5061,14320 5083,14270 5106,14221 5138,14180 5177,14151 5216,14123 5260,14108 5305,14108 5350,14108 5394,14123 5433,14151 5472,14180 5504,14221 5527,14270 5549,14320 5561,14376 5561,14433 Z"/>
        </g>
       </g>
      </g>
      <g class="Group">
       <g class="com.sun.star.drawing.CustomShape">
        <g id="id27">
         <rect class="BoundingBox" stroke="none" fill="none" x="6888" y="15706" width="515" height="652"/>
         <path fill="rgb(255,255,255)" stroke="none" d="M 7401,16032 C 7401,16088 7389,16144 7367,16194 7344,16243 7312,16284 7273,16313 7234,16341 7190,16356 7145,16356 7100,16356 7056,16341 7017,16313 6978,16284 6946,16243 6923,16194 6901,16144 6889,16088 6889,16032 6889,15975 6901,15919 6923,15869 6946,15820 6978,15779 7017,15750 7056,15722 7100,15707 7145,15707 7190,15707 7234,15722 7273,15750 7312,15779 7344,15820 7367,15869 7389,15919 7401,15975 7401,16032 L 7401,16032 Z"/>
         <path fill="none" stroke="rgb(255,255,255)" d="M 7401,16032 C 7401,16088 7389,16144 7367,16194 7344,16243 7312,16284 7273,16313 7234,16341 7190,16356 7145,16356 7100,16356 7056,16341 7017,16313 6978,16284 6946,16243 6923,16194 6901,16144 6889,16088 6889,16032 6889,15975 6901,15919 6923,15869 6946,15820 6978,15779 7017,15750 7056,15722 7100,15707 7145,15707 7190,15707 7234,15722 7273,15750 7312,15779 7344,15820 7367,15869 7389,15919 7401,15975 7401,16032 Z"/>
        </g>
       </g>
       <g class="com.sun.star.drawing.CustomShape">
        <g id="id28">
         <rect class="BoundingBox" stroke="none" fill="none" x="5253" y="15706" width="1843" height="651"/>
         <path fill="rgb(255,255,255)" stroke="none" d="M 6174,16355 L 5254,16355 5254,15707 7094,15707 7094,16355 6174,16355 Z"/>
         <path fill="none" stroke="rgb(255,255,255)" d="M 6174,16355 L 5254,16355 5254,15707 7094,15707 7094,16355 6174,16355 Z"/>
        </g>
       </g>
       <g class="com.sun.star.drawing.CustomShape">
        <g id="id29">
         <rect class="BoundingBox" stroke="none" fill="none" x="5048" y="15707" width="515" height="652"/>
         <path fill="rgb(255,255,255)" stroke="none" d="M 5561,16033 C 5561,16089 5549,16145 5527,16195 5504,16244 5472,16285 5433,16314 5394,16342 5350,16357 5305,16357 5260,16357 5216,16342 5177,16314 5138,16285 5106,16244 5083,16195 5061,16145 5049,16089 5049,16033 5049,15976 5061,15920 5083,15870 5106,15821 5138,15780 5177,15751 5216,15723 5260,15708 5305,15708 5350,15708 5394,15723 5433,15751 5472,15780 5504,15821 5527,15870 5549,15920 5561,15976 5561,16033 L 5561,16033 Z"/>
         <path fill="none" stroke="rgb(255,255,255)" d="M 5561,16033 C 5561,16089 5549,16145 5527,16195 5504,16244 5472,16285 5433,16314 5394,16342 5350,16357 5305,16357 5260,16357 5216,16342 5177,16314 5138,16285 5106,16244 5083,16195 5061,16145 5049,16089 5049,16033 5049,15976 5061,15920 5083,15870 5106,15821 5138,15780 5177,15751 5216,15723 5260,15708 5305,15708 5350,15708 5394,15723 5433,15751 5472,15780 5504,15821 5527,15870 5549,15920 5561,15976 5561,16033 Z"/>
        </g>
       </g>
      </g>
      <g class="com.sun.star.drawing.CustomShape">
       <g id="id30">
        <rect class="BoundingBox" stroke="none" fill="none" x="6299" y="3474" width="1809" height="14003"/>
        <path fill="rgb(26,26,27)" stroke="none" d="M 7203,17475 L 6300,17475 6300,3475 8106,3475 8106,17475 7203,17475 Z"/>
        <path fill="none" stroke="rgb(26,26,27)" d="M 7203,17475 L 6300,17475 6300,3475 8106,3475 8106,17475 7203,17475 Z"/>
       </g>
      </g>
      <g class="Group">
       <g class="com.sun.star.drawing.CustomShape">
        <g id="id31">
         <rect class="BoundingBox" stroke="none" fill="none" x="6899" y="4574" width="504" height="504"/>
         <path fill="rgb(68,68,68)" stroke="none" d="M 7401,4825 C 7401,4869 7389,4913 7367,4951 7345,4989 7314,5020 7276,5042 7238,5064 7194,5076 7150,5076 7107,5076 7063,5064 7025,5042 6987,5020 6956,4989 6934,4951 6912,4913 6900,4869 6900,4825 6900,4782 6912,4738 6934,4700 6956,4662 6987,4631 7025,4609 7063,4587 7107,4575 7150,4575 7194,4575 7238,4587 7276,4609 7314,4631 7345,4662 7367,4700 7389,4738 7401,4782 7401,4825 L 7401,4825 Z"/>
         <path fill="none" stroke="rgb(68,68,68)" d="M 7401,4825 C 7401,4869 7389,4913 7367,4951 7345,4989 7314,5020 7276,5042 7238,5064 7194,5076 7150,5076 7107,5076 7063,5064 7025,5042 6987,5020 6956,4989 6934,4951 6912,4913 6900,4869 6900,4825 6900,4782 6912,4738 6934,4700 6956,4662 6987,4631 7025,4609 7063,4587 7107,4575 7150,4575 7194,4575 7238,4587 7276,4609 7314,4631 7345,4662 7367,4700 7389,4738 7401,4782 7401,4825 Z"/>
        </g>
       </g>
       <g class="com.sun.star.drawing.CustomShape">
        <g id="id32">
         <rect class="BoundingBox" stroke="none" fill="none" x="5299" y="4574" width="1803" height="503"/>
         <path fill="rgb(68,68,68)" stroke="none" d="M 6200,5075 L 5300,5075 5300,4575 7100,4575 7100,5075 6200,5075 Z"/>
         <path fill="none" stroke="rgb(68,68,68)" d="M 6200,5075 L 5300,5075 5300,4575 7100,4575 7100,5075 6200,5075 Z"/>
        </g>
       </g>
       <g class="com.sun.star.drawing.CustomShape">
        <g id="id33">
         <rect class="BoundingBox" stroke="none" fill="none" x="5100" y="4575" width="504" height="504"/>
         <path fill="rgb(68,68,68)" stroke="none" d="M 5602,4827 C 5602,4870 5590,4914 5568,4952 5546,4990 5515,5021 5477,5043 5439,5065 5395,5077 5352,5077 5308,5077 5264,5065 5226,5043 5188,5021 5157,4990 5135,4952 5113,4914 5101,4870 5101,4827 5101,4783 5113,4739 5135,4701 5157,4663 5188,4632 5226,4610 5264,4588 5308,4576 5352,4576 5395,4576 5439,4588 5477,4610 5515,4632 5546,4663 5568,4701 5590,4739 5602,4783 5602,4827 L 5602,4827 Z"/>
         <path fill="none" stroke="rgb(68,68,68)" d="M 5602,4827 C 5602,4870 5590,4914 5568,4952 5546,4990 5515,5021 5477,5043 5439,5065 5395,5077 5352,5077 5308,5077 5264,5065 5226,5043 5188,5021 5157,4990 5135,4952 5113,4914 5101,4870 5101,4827 5101,4783 5113,4739 5135,4701 5157,4663 5188,4632 5226,4610 5264,4588 5308,4576 5352,4576 5395,4576 5439,4588 5477,4610 5515,4632 5546,4663 5568,4701 5590,4739 5602,4783 5602,4827 Z"/>
        </g>
       </g>
      </g>
      <g class="Group">
       <g class="com.sun.star.drawing.CustomShape">
        <g id="id34">
         <rect class="BoundingBox" stroke="none" fill="none" x="6900" y="6175" width="504" height="504"/>
         <path fill="rgb(68,68,68)" stroke="none" d="M 7402,6426 C 7402,6470 7390,6514 7368,6552 7346,6590 7315,6621 7277,6643 7239,6665 7195,6677 7151,6677 7108,6677 7064,6665 7026,6643 6988,6621 6957,6590 6935,6552 6913,6514 6901,6470 6901,6426 6901,6383 6913,6339 6935,6301 6957,6263 6988,6232 7026,6210 7064,6188 7108,6176 7151,6176 7195,6176 7239,6188 7277,6210 7315,6232 7346,6263 7368,6301 7390,6339 7402,6383 7402,6426 L 7402,6426 Z"/>
         <path fill="none" stroke="rgb(68,68,68)" d="M 7402,6426 C 7402,6470 7390,6514 7368,6552 7346,6590 7315,6621 7277,6643 7239,6665 7195,6677 7151,6677 7108,6677 7064,6665 7026,6643 6988,6621 6957,6590 6935,6552 6913,6514 6901,6470 6901,6426 6901,6383 6913,6339 6935,6301 6957,6263 6988,6232 7026,6210 7064,6188 7108,6176 7151,6176 7195,6176 7239,6188 7277,6210 7315,6232 7346,6263 7368,6301 7390,6339 7402,6383 7402,6426 Z"/>
        </g>
       </g>
       <g class="com.sun.star.drawing.CustomShape">
        <g id="id35">
         <rect class="BoundingBox" stroke="none" fill="none" x="5300" y="6175" width="1803" height="503"/>
         <path fill="rgb(68,68,68)" stroke="none" d="M 6201,6676 L 5301,6676 5301,6176 7101,6176 7101,6676 6201,6676 Z"/>
         <path fill="none" stroke="rgb(68,68,68)" d="M 6201,6676 L 5301,6676 5301,6176 7101,6176 7101,6676 6201,6676 Z"/>
        </g>
       </g>
       <g class="com.sun.star.drawing.CustomShape">
        <g id="id36">
         <rect class="BoundingBox" stroke="none" fill="none" x="5101" y="6176" width="504" height="504"/>
         <path fill="rgb(68,68,68)" stroke="none" d="M 5603,6427 C 5603,6471 5591,6515 5569,6553 5547,6591 5516,6622 5478,6644 5440,6666 5396,6678 5352,6678 5309,6678 5265,6666 5227,6644 5189,6622 5158,6591 5136,6553 5114,6515 5102,6471 5102,6427 5102,6384 5114,6340 5136,6302 5158,6264 5189,6233 5227,6211 5265,6189 5309,6177 5352,6177 5396,6177 5440,6189 5478,6211 5516,6233 5547,6264 5569,6302 5591,6340 5603,6384 5603,6427 L 5603,6427 Z"/>
         <path fill="none" stroke="rgb(68,68,68)" d="M 5603,6427 C 5603,6471 5591,6515 5569,6553 5547,6591 5516,6622 5478,6644 5440,6666 5396,6678 5352,6678 5309,6678 5265,6666 5227,6644 5189,6622 5158,6591 5136,6553 5114,6515 5102,6471 5102,6427 5102,6384 5114,6340 5136,6302 5158,6264 5189,6233 5227,6211 5265,6189 5309,6177 5352,6177 5396,6177 5440,6189 5478,6211 5516,6233 5547,6264 5569,6302 5591,6340 5603,6384 5603,6427 Z"/>
        </g>
       </g>
      </g>
      <g class="Group">
       <g class="com.sun.star.drawing.CustomShape">
        <g id="id37">
         <rect class="BoundingBox" stroke="none" fill="none" x="6901" y="7776" width="504" height="504"/>
         <path fill="rgb(68,68,68)" stroke="none" d="M 7403,8028 C 7403,8071 7391,8115 7369,8153 7347,8191 7316,8222 7278,8244 7240,8266 7196,8278 7153,8278 7109,8278 7065,8266 7027,8244 6989,8222 6958,8191 6936,8153 6914,8115 6902,8071 6902,8028 6902,7984 6914,7940 6936,7902 6958,7864 6989,7833 7027,7811 7065,7789 7109,7777 7153,7777 7196,7777 7240,7789 7278,7811 7316,7833 7347,7864 7369,7902 7391,7940 7403,7984 7403,8028 L 7403,8028 Z"/>
         <path fill="none" stroke="rgb(68,68,68)" d="M 7403,8028 C 7403,8071 7391,8115 7369,8153 7347,8191 7316,8222 7278,8244 7240,8266 7196,8278 7153,8278 7109,8278 7065,8266 7027,8244 6989,8222 6958,8191 6936,8153 6914,8115 6902,8071 6902,8028 6902,7984 6914,7940 6936,7902 6958,7864 6989,7833 7027,7811 7065,7789 7109,7777 7153,7777 7196,7777 7240,7789 7278,7811 7316,7833 7347,7864 7369,7902 7391,7940 7403,7984 7403,8028 Z"/>
        </g>
       </g>
       <g class="com.sun.star.drawing.CustomShape">
        <g id="id38">
         <rect class="BoundingBox" stroke="none" fill="none" x="5301" y="7776" width="1803" height="503"/>
         <path fill="rgb(68,68,68)" stroke="none" d="M 6202,8277 L 5302,8277 5302,7777 7102,7777 7102,8277 6202,8277 Z"/>
         <path fill="none" stroke="rgb(68,68,68)" d="M 6202,8277 L 5302,8277 5302,7777 7102,7777 7102,8277 6202,8277 Z"/>
        </g>
       </g>
       <g class="com.sun.star.drawing.CustomShape">
        <g id="id39">
         <rect class="BoundingBox" stroke="none" fill="none" x="5102" y="7777" width="504" height="504"/>
         <path fill="rgb(68,68,68)" stroke="none" d="M 5604,8029 C 5604,8072 5592,8116 5570,8154 5548,8192 5517,8223 5479,8245 5441,8267 5397,8279 5354,8279 5310,8279 5266,8267 5228,8245 5190,8223 5159,8192 5137,8154 5115,8116 5103,8072 5103,8029 5103,7985 5115,7941 5137,7903 5159,7865 5190,7834 5228,7812 5266,7790 5310,7778 5354,7778 5397,7778 5441,7790 5479,7812 5517,7834 5548,7865 5570,7903 5592,7941 5604,7985 5604,8029 L 5604,8029 Z"/>
         <path fill="none" stroke="rgb(68,68,68)" d="M 5604,8029 C 5604,8072 5592,8116 5570,8154 5548,8192 5517,8223 5479,8245 5441,8267 5397,8279 5354,8279 5310,8279 5266,8267 5228,8245 5190,8223 5159,8192 5137,8154 5115,8116 5103,8072 5103,8029 5103,7985 5115,7941 5137,7903 5159,7865 5190,7834 5228,7812 5266,7790 5310,7778 5354,7778 5397,7778 5441,7790 5479,7812 5517,7834 5548,7865 5570,7903 5592,7941 5604,7985 5604,8029 Z"/>
        </g>
       </g>
      </g>
      <g class="Group">
       <g class="com.sun.star.drawing.CustomShape">
        <g id="id40">
         <rect class="BoundingBox" stroke="none" fill="none" x="6902" y="9377" width="504" height="504"/>
         <path fill="rgb(68,68,68)" stroke="none" d="M 7404,9629 C 7404,9672 7392,9716 7370,9754 7348,9792 7317,9823 7279,9845 7241,9867 7197,9879 7153,9879 7110,9879 7066,9867 7028,9845 6990,9823 6959,9792 6937,9754 6915,9716 6903,9672 6903,9629 6903,9585 6915,9541 6937,9503 6959,9465 6990,9434 7028,9412 7066,9390 7110,9378 7153,9378 7197,9378 7241,9390 7279,9412 7317,9434 7348,9465 7370,9503 7392,9541 7404,9585 7404,9629 L 7404,9629 Z"/>
         <path fill="none" stroke="rgb(68,68,68)" d="M 7404,9629 C 7404,9672 7392,9716 7370,9754 7348,9792 7317,9823 7279,9845 7241,9867 7197,9879 7153,9879 7110,9879 7066,9867 7028,9845 6990,9823 6959,9792 6937,9754 6915,9716 6903,9672 6903,9629 6903,9585 6915,9541 6937,9503 6959,9465 6990,9434 7028,9412 7066,9390 7110,9378 7153,9378 7197,9378 7241,9390 7279,9412 7317,9434 7348,9465 7370,9503 7392,9541 7404,9585 7404,9629 Z"/>
        </g>
       </g>
       <g class="com.sun.star.drawing.CustomShape">
        <g id="id41">
         <rect class="BoundingBox" stroke="none" fill="none" x="5302" y="9377" width="1803" height="503"/>
         <path fill="rgb(68,68,68)" stroke="none" d="M 6203,9878 L 5303,9878 5303,9378 7103,9378 7103,9878 6203,9878 Z"/>
         <path fill="none" stroke="rgb(68,68,68)" d="M 6203,9878 L 5303,9878 5303,9378 7103,9378 7103,9878 6203,9878 Z"/>
        </g>
       </g>
       <g class="com.sun.star.drawing.CustomShape">
        <g id="id42">
         <rect class="BoundingBox" stroke="none" fill="none" x="5103" y="9378" width="504" height="504"/>
         <path fill="rgb(68,68,68)" stroke="none" d="M 5605,9629 C 5605,9673 5593,9717 5571,9755 5549,9793 5518,9824 5480,9846 5442,9868 5398,9880 5355,9880 5311,9880 5267,9868 5229,9846 5191,9824 5160,9793 5138,9755 5116,9717 5104,9673 5104,9629 5104,9586 5116,9542 5138,9504 5160,9466 5191,9435 5229,9413 5267,9391 5311,9379 5355,9379 5398,9379 5442,9391 5480,9413 5518,9435 5549,9466 5571,9504 5593,9542 5605,9586 5605,9629 L 5605,9629 Z"/>
         <path fill="none" stroke="rgb(68,68,68)" d="M 5605,9629 C 5605,9673 5593,9717 5571,9755 5549,9793 5518,9824 5480,9846 5442,9868 5398,9880 5355,9880 5311,9880 5267,9868 5229,9846 5191,9824 5160,9793 5138,9755 5116,9717 5104,9673 5104,9629 5104,9586 5116,9542 5138,9504 5160,9466 5191,9435 5229,9413 5267,9391 5311,9379 5355,9379 5398,9379 5442,9391 5480,9413 5518,9435 5549,9466 5571,9504 5593,9542 5605,9586 5605,9629 Z"/>
        </g>
       </g>
      </g>
      <g class="Group">
       <g class="com.sun.star.drawing.CustomShape">
        <g id="id43">
         <rect class="BoundingBox" stroke="none" fill="none" x="6903" y="10978" width="504" height="504"/>
         <path fill="rgb(68,68,68)" stroke="none" d="M 7405,11230 C 7405,11273 7393,11317 7371,11355 7349,11393 7318,11424 7280,11446 7242,11468 7198,11480 7154,11480 7111,11480 7067,11468 7029,11446 6991,11424 6960,11393 6938,11355 6916,11317 6904,11273 6904,11230 6904,11186 6916,11142 6938,11104 6960,11066 6991,11035 7029,11013 7067,10991 7111,10979 7154,10979 7198,10979 7242,10991 7280,11013 7318,11035 7349,11066 7371,11104 7393,11142 7405,11186 7405,11230 L 7405,11230 Z"/>
         <path fill="none" stroke="rgb(68,68,68)" d="M 7405,11230 C 7405,11273 7393,11317 7371,11355 7349,11393 7318,11424 7280,11446 7242,11468 7198,11480 7154,11480 7111,11480 7067,11468 7029,11446 6991,11424 6960,11393 6938,11355 6916,11317 6904,11273 6904,11230 6904,11186 6916,11142 6938,11104 6960,11066 6991,11035 7029,11013 7067,10991 7111,10979 7154,10979 7198,10979 7242,10991 7280,11013 7318,11035 7349,11066 7371,11104 7393,11142 7405,11186 7405,11230 Z"/>
        </g>
       </g>
       <g class="com.sun.star.drawing.CustomShape">
        <g id="id44">
         <rect class="BoundingBox" stroke="none" fill="none" x="5303" y="10978" width="1803" height="503"/>
         <path fill="rgb(68,68,68)" stroke="none" d="M 6204,11479 L 5304,11479 5304,10979 7104,10979 7104,11479 6204,11479 Z"/>
         <path fill="none" stroke="rgb(68,68,68)" d="M 6204,11479 L 5304,11479 5304,10979 7104,10979 7104,11479 6204,11479 Z"/>
        </g>
       </g>
       <g class="com.sun.star.drawing.CustomShape">
        <g id="id45">
         <rect class="BoundingBox" stroke="none" fill="none" x="5104" y="10979" width="504" height="504"/>
         <path fill="rgb(68,68,68)" stroke="none" d="M 5606,11230 C 5606,11274 5594,11318 5572,11356 5550,11394 5519,11425 5481,11447 5443,11469 5399,11481 5355,11481 5312,11481 5268,11469 5230,11447 5192,11425 5161,11394 5139,11356 5117,11318 5105,11274 5105,11230 5105,11187 5117,11143 5139,11105 5161,11067 5192,11036 5230,11014 5268,10992 5312,10980 5355,10980 5399,10980 5443,10992 5481,11014 5519,11036 5550,11067 5572,11105 5594,11143 5606,11187 5606,11230 L 5606,11230 Z"/>
         <path fill="none" stroke="rgb(68,68,68)" d="M 5606,11230 C 5606,11274 5594,11318 5572,11356 5550,11394 5519,11425 5481,11447 5443,11469 5399,11481 5355,11481 5312,11481 5268,11469 5230,11447 5192,11425 5161,11394 5139,11356 5117,11318 5105,11274 5105,11230 5105,11187 5117,11143 5139,11105 5161,11067 5192,11036 5230,11014 5268,10992 5312,10980 5355,10980 5399,10980 5443,10992 5481,11014 5519,11036 5550,11067 5572,11105 5594,11143 5606,11187 5606,11230 Z"/>
        </g>
       </g>
      </g>
      <g class="Group">
       <g class="com.sun.star.drawing.CustomShape">
        <g id="id46">
         <rect class="BoundingBox" stroke="none" fill="none" x="6904" y="12579" width="504" height="504"/>
         <path fill="rgb(68,68,68)" stroke="none" d="M 7406,12830 C 7406,12874 7394,12918 7372,12956 7350,12994 7319,13025 7281,13047 7243,13069 7199,13081 7156,13081 7112,13081 7068,13069 7030,13047 6992,13025 6961,12994 6939,12956 6917,12918 6905,12874 6905,12830 6905,12787 6917,12743 6939,12705 6961,12667 6992,12636 7030,12614 7068,12592 7112,12580 7156,12580 7199,12580 7243,12592 7281,12614 7319,12636 7350,12667 7372,12705 7394,12743 7406,12787 7406,12830 L 7406,12830 Z"/>
         <path fill="none" stroke="rgb(68,68,68)" d="M 7406,12830 C 7406,12874 7394,12918 7372,12956 7350,12994 7319,13025 7281,13047 7243,13069 7199,13081 7156,13081 7112,13081 7068,13069 7030,13047 6992,13025 6961,12994 6939,12956 6917,12918 6905,12874 6905,12830 6905,12787 6917,12743 6939,12705 6961,12667 6992,12636 7030,12614 7068,12592 7112,12580 7156,12580 7199,12580 7243,12592 7281,12614 7319,12636 7350,12667 7372,12705 7394,12743 7406,12787 7406,12830 Z"/>
        </g>
       </g>
       <g class="com.sun.star.drawing.CustomShape">
        <g id="id47">
         <rect class="BoundingBox" stroke="none" fill="none" x="5304" y="12579" width="1803" height="503"/>
         <path fill="rgb(68,68,68)" stroke="none" d="M 6205,13080 L 5305,13080 5305,12580 7105,12580 7105,13080 6205,13080 Z"/>
         <path fill="none" stroke="rgb(68,68,68)" d="M 6205,13080 L 5305,13080 5305,12580 7105,12580 7105,13080 6205,13080 Z"/>
        </g>
       </g>
       <g class="com.sun.star.drawing.CustomShape">
        <g id="id48">
         <rect class="BoundingBox" stroke="none" fill="none" x="5105" y="12580" width="504" height="504"/>
         <path fill="rgb(68,68,68)" stroke="none" d="M 5607,12831 C 5607,12875 5595,12919 5573,12957 5551,12995 5520,13026 5482,13048 5444,13070 5400,13082 5357,13082 5313,13082 5269,13070 5231,13048 5193,13026 5162,12995 5140,12957 5118,12919 5106,12875 5106,12831 5106,12788 5118,12744 5140,12706 5162,12668 5193,12637 5231,12615 5269,12593 5313,12581 5357,12581 5400,12581 5444,12593 5482,12615 5520,12637 5551,12668 5573,12706 5595,12744 5607,12788 5607,12831 L 5607,12831 Z"/>
         <path fill="none" stroke="rgb(68,68,68)" d="M 5607,12831 C 5607,12875 5595,12919 5573,12957 5551,12995 5520,13026 5482,13048 5444,13070 5400,13082 5357,13082 5313,13082 5269,13070 5231,13048 5193,13026 5162,12995 5140,12957 5118,12919 5106,12875 5106,12831 5106,12788 5118,12744 5140,12706 5162,12668 5193,12637 5231,12615 5269,12593 5313,12581 5357,12581 5400,12581 5444,12593 5482,12615 5520,12637 5551,12668 5573,12706 5595,12744 5607,12788 5607,12831 Z"/>
        </g>
       </g>
      </g>
      <g class="Group">
       <g class="com.sun.star.drawing.CustomShape">
        <g id="id49">
         <rect class="BoundingBox" stroke="none" fill="none" x="6905" y="14180" width="504" height="504"/>
         <path fill="rgb(68,68,68)" stroke="none" d="M 7407,14431 C 7407,14475 7395,14519 7373,14557 7351,14595 7320,14626 7282,14648 7244,14670 7200,14682 7156,14682 7113,14682 7069,14670 7031,14648 6993,14626 6962,14595 6940,14557 6918,14519 6906,14475 6906,14431 6906,14388 6918,14344 6940,14306 6962,14268 6993,14237 7031,14215 7069,14193 7113,14181 7156,14181 7200,14181 7244,14193 7282,14215 7320,14237 7351,14268 7373,14306 7395,14344 7407,14388 7407,14431 L 7407,14431 Z"/>
         <path fill="none" stroke="rgb(68,68,68)" d="M 7407,14431 C 7407,14475 7395,14519 7373,14557 7351,14595 7320,14626 7282,14648 7244,14670 7200,14682 7156,14682 7113,14682 7069,14670 7031,14648 6993,14626 6962,14595 6940,14557 6918,14519 6906,14475 6906,14431 6906,14388 6918,14344 6940,14306 6962,14268 6993,14237 7031,14215 7069,14193 7113,14181 7156,14181 7200,14181 7244,14193 7282,14215 7320,14237 7351,14268 7373,14306 7395,14344 7407,14388 7407,14431 Z"/>
        </g>
       </g>
       <g class="com.sun.star.drawing.CustomShape">
        <g id="id50">
         <rect class="BoundingBox" stroke="none" fill="none" x="5305" y="14180" width="1803" height="503"/>
         <path fill="rgb(68,68,68)" stroke="none" d="M 6206,14681 L 5306,14681 5306,14181 7106,14181 7106,14681 6206,14681 Z"/>
         <path fill="none" stroke="rgb(68,68,68)" d="M 6206,14681 L 5306,14681 5306,14181 7106,14181 7106,14681 6206,14681 Z"/>
        </g>
       </g>
       <g class="com.sun.star.drawing.CustomShape">
        <g id="id51">
         <rect class="BoundingBox" stroke="none" fill="none" x="5106" y="14181" width="504" height="504"/>
         <path fill="rgb(68,68,68)" stroke="none" d="M 5608,14432 C 5608,14476 5596,14520 5574,14558 5552,14596 5521,14627 5483,14649 5445,14671 5401,14683 5358,14683 5314,14683 5270,14671 5232,14649 5194,14627 5163,14596 5141,14558 5119,14520 5107,14476 5107,14432 5107,14389 5119,14345 5141,14307 5163,14269 5194,14238 5232,14216 5270,14194 5314,14182 5358,14182 5401,14182 5445,14194 5483,14216 5521,14238 5552,14269 5574,14307 5596,14345 5608,14389 5608,14432 L 5608,14432 Z"/>
         <path fill="none" stroke="rgb(68,68,68)" d="M 5608,14432 C 5608,14476 5596,14520 5574,14558 5552,14596 5521,14627 5483,14649 5445,14671 5401,14683 5358,14683 5314,14683 5270,14671 5232,14649 5194,14627 5163,14596 5141,14558 5119,14520 5107,14476 5107,14432 5107,14389 5119,14345 5141,14307 5163,14269 5194,14238 5232,14216 5270,14194 5314,14182 5358,14182 5401,14182 5445,14194 5483,14216 5521,14238 5552,14269 5574,14307 5596,14345 5608,14389 5608,14432 Z"/>
        </g>
       </g>
      </g>
      <g class="Group">
       <g class="com.sun.star.drawing.CustomShape">
        <g id="id52">
         <rect class="BoundingBox" stroke="none" fill="none" x="6906" y="15781" width="504" height="504"/>
         <path fill="rgb(68,68,68)" stroke="none" d="M 7408,16033 C 7408,16076 7396,16120 7374,16158 7352,16196 7321,16227 7283,16249 7245,16271 7201,16283 7157,16283 7114,16283 7070,16271 7032,16249 6994,16227 6963,16196 6941,16158 6919,16120 6907,16076 6907,16033 6907,15989 6919,15945 6941,15907 6963,15869 6994,15838 7032,15816 7070,15794 7114,15782 7157,15782 7201,15782 7245,15794 7283,15816 7321,15838 7352,15869 7374,15907 7396,15945 7408,15989 7408,16033 L 7408,16033 Z"/>
         <path fill="none" stroke="rgb(68,68,68)" d="M 7408,16033 C 7408,16076 7396,16120 7374,16158 7352,16196 7321,16227 7283,16249 7245,16271 7201,16283 7157,16283 7114,16283 7070,16271 7032,16249 6994,16227 6963,16196 6941,16158 6919,16120 6907,16076 6907,16033 6907,15989 6919,15945 6941,15907 6963,15869 6994,15838 7032,15816 7070,15794 7114,15782 7157,15782 7201,15782 7245,15794 7283,15816 7321,15838 7352,15869 7374,15907 7396,15945 7408,15989 7408,16033 Z"/>
        </g>
       </g>
       <g class="com.sun.star.drawing.CustomShape">
        <g id="id53">
         <rect class="BoundingBox" stroke="none" fill="none" x="5306" y="15781" width="1803" height="503"/>
         <path fill="rgb(68,68,68)" stroke="none" d="M 6207,16282 L 5307,16282 5307,15782 7107,15782 7107,16282 6207,16282 Z"/>
         <path fill="none" stroke="rgb(68,68,68)" d="M 6207,16282 L 5307,16282 5307,15782 7107,15782 7107,16282 6207,16282 Z"/>
        </g>
       </g>
       <g class="com.sun.star.drawing.CustomShape">
        <g id="id54">
         <rect class="BoundingBox" stroke="none" fill="none" x="5107" y="15782" width="504" height="504"/>
         <path fill="rgb(68,68,68)" stroke="none" d="M 5609,16033 C 5609,16077 5597,16121 5575,16159 5553,16197 5522,16228 5484,16250 5446,16272 5402,16284 5358,16284 5315,16284 5271,16272 5233,16250 5195,16228 5164,16197 5142,16159 5120,16121 5108,16077 5108,16033 5108,15990 5120,15946 5142,15908 5164,15870 5195,15839 5233,15817 5271,15795 5315,15783 5358,15783 5402,15783 5446,15795 5484,15817 5522,15839 5553,15870 5575,15908 5597,15946 5609,15990 5609,16033 L 5609,16033 Z"/>
         <path fill="none" stroke="rgb(68,68,68)" d="M 5609,16033 C 5609,16077 5597,16121 5575,16159 5553,16197 5522,16228 5484,16250 5446,16272 5402,16284 5358,16284 5315,16284 5271,16272 5233,16250 5195,16228 5164,16197 5142,16159 5120,16121 5108,16077 5108,16033 5108,15990 5120,15946 5142,15908 5164,15870 5195,15839 5233,15817 5271,15795 5315,15783 5358,15783 5402,15783 5446,15795 5484,15817 5522,15839 5553,15870 5575,15908 5597,15946 5609,15990 5609,16033 Z"/>
        </g>
       </g>
      </g>
      <g class="com.sun.star.drawing.CustomShape">
       <g id="id55">
        <rect class="BoundingBox" stroke="none" fill="none" x="9199" y="12274" width="4353" height="1003"/>
        <path fill="rgb(185,98,188)" stroke="none" d="M 11375,13275 L 9200,13275 9200,12275 13550,12275 13550,13275 11375,13275 Z"/>
        <path fill="none" stroke="rgb(184,98,188)" d="M 11375,13275 L 9200,13275 9200,12275 13550,12275 13550,13275 11375,13275 Z"/>
       </g>
      </g>
      <g class="com.sun.star.drawing.CustomShape">
       <g id="id56">
        <rect class="BoundingBox" stroke="none" fill="none" x="9199" y="13774" width="3003" height="1003"/>
        <path fill="rgb(184,98,188)" stroke="none" d="M 10700,14775 L 9200,14775 9200,13775 12200,13775 12200,14775 10700,14775 Z"/>
        <path fill="none" stroke="rgb(184,98,188)" d="M 10700,14775 L 9200,14775 9200,13775 12200,13775 12200,14775 10700,14775 Z"/>
       </g>
      </g>
      <g class="com.sun.star.drawing.CustomShape">
       <g id="id57">
        <rect class="BoundingBox" stroke="none" fill="none" x="9199" y="15274" width="5253" height="1003"/>
        <path fill="rgb(184,98,188)" stroke="none" d="M 11825,16275 L 9200,16275 9200,15275 14450,15275 14450,16275 11825,16275 Z"/>
        <path fill="none" stroke="rgb(184,98,188)" d="M 11825,16275 L 9200,16275 9200,15275 14450,15275 14450,16275 11825,16275 Z"/>
       </g>
      </g>
      <g class="com.sun.star.drawing.CustomShape">
       <g id="id58">
        <rect class="BoundingBox" stroke="none" fill="none" x="8889" y="4423" width="5504" height="6722"/>
        <path fill="rgb(255,152,244)" stroke="none" d="M 14391,11143 L 8890,11143 10516,4424 12766,4424 14391,11143 Z"/>
        <path fill="none" stroke="rgb(255,152,244)" d="M 14391,11143 L 8890,11143 10516,4424 12766,4424 14391,11143 Z"/>
       </g>
      </g>
      <g class="com.sun.star.drawing.CustomShape">
       <g id="id59">
        <rect class="BoundingBox" stroke="none" fill="none" x="13198" y="4423" width="1166" height="5004"/>
        <path fill="rgb(68,68,68)" stroke="none" d="M 14362,9425 L 13199,4424 14362,4424 14362,9425 14362,9425 Z"/>
        <path fill="none" stroke="rgb(68,68,68)" d="M 14362,9425 L 13199,4424 14362,4424 14362,9425 14362,9425 Z"/>
       </g>
      </g>
      <g class="com.sun.star.drawing.CustomShape">
       <g id="id60">
        <rect class="BoundingBox" stroke="none" fill="none" x="10747" y="9973" width="1705" height="1184"/>
        <path fill="rgb(220,106,207)" stroke="none" d="M 12450,11155 L 10748,11155 10921,9974 12278,9974 12450,11155 Z"/>
        <path fill="none" stroke="rgb(220,106,207)" d="M 12450,11155 L 10748,11155 10921,9974 12278,9974 12450,11155 Z"/>
       </g>
      </g>
      <g class="com.sun.star.drawing.CustomShape">
       <g id="id61">
        <rect class="BoundingBox" stroke="none" fill="none" x="11049" y="5674" width="1104" height="3004"/>
        <path fill="rgb(220,106,207)" stroke="none" d="M 11610,5675 L 12151,8676 11050,8676 11610,5675 Z"/>
        <path fill="none" stroke="rgb(220,106,207)" d="M 11610,5675 L 12151,8676 11050,8676 11610,5675 Z"/>
       </g>
      </g>
     </g>
    </g>
   </g>
  </g>
 </g>
</svg>